GeoramaExtraExtended-Thin.ufo
<glyph name="exclam" format="2">
  <advance width="336"/>
  <unicode hex="0021"/>
  <outline>
    <contour>
      <point x="158" y="264" type="line"/>
      <point x="178" y="264" type="line"/>
      <point x="178" y="740" type="line"/>
      <point x="158" y="740" type="line"/>
    </contour>
    <contour>
      <point x="151" y="17" type="curve" smooth="yes"/>
      <point x="151" y="1"/>
      <point x="153" y="0"/>
      <point x="168" y="0" type="curve" smooth="yes"/>
      <point x="184" y="0"/>
      <point x="185" y="1"/>
      <point x="185" y="17" type="curve" smooth="yes"/>
      <point x="185" y="33"/>
      <point x="184" y="34"/>
      <point x="168" y="34" type="curve" smooth="yes"/>
      <point x="152" y="34"/>
      <point x="151" y="33"/>
    </contour>
  </outline>
</glyph>
<glyph name="quotesingle" format="2">
  <advance width="188"/>
  <unicode hex="0027"/>
  <outline>
    <contour>
      <point x="88" y="427" type="line"/>
      <point x="100" y="427" type="line"/>
      <point x="105" y="700" type="line"/>
      <point x="83" y="700" type="line"/>
    </contour>
  </outline>
</glyph>
<glyph name="parenleft" format="2">
  <advance width="466"/>
  <unicode hex="0028"/>
  <outline>
    <contour>
      <point x="159" y="265" type="curve" smooth="yes"/>
      <point x="159" y="32"/>
      <point x="241" y="-180"/>
      <point x="432" y="-220" type="curve"/>
      <point x="432" y="-200" type="line"/>
      <point x="261" y="-165"/>
      <point x="179" y="41"/>
      <point x="179" y="265" type="curve" smooth="yes"/>
      <point x="179" y="489"/>
      <point x="261" y="695"/>
      <point x="432" y="730" type="curve"/>
      <point x="432" y="750" type="line"/>
      <point x="241" y="710"/>
      <point x="159" y="498"/>
    </contour>
  </outline>
</glyph>
<glyph name="parenright" format="2">
  <advance width="466"/>
  <unicode hex="0029"/>
  <outline>
    <contour>
      <point x="34" y="-200" type="curve"/>
      <point x="34" y="-220" type="line"/>
      <point x="225" y="-180"/>
      <point x="307" y="32"/>
      <point x="307" y="265" type="curve" smooth="yes"/>
      <point x="307" y="498"/>
      <point x="225" y="710"/>
      <point x="34" y="750" type="curve"/>
      <point x="34" y="730" type="line"/>
      <point x="205" y="695"/>
      <point x="287" y="489"/>
      <point x="287" y="265" type="curve" smooth="yes"/>
      <point x="287" y="41"/>
      <point x="205" y="-165"/>
    </contour>
  </outline>
</glyph>
<glyph name="comma" format="2">
  <advance width="221"/>
  <unicode hex="002C"/>
  <outline>
    <contour>
      <point x="106" y="28" type="line"/>
      <point x="116" y="8"/>
      <point x="122" y="-14"/>
      <point x="122" y="-37" type="curve" smooth="yes"/>
      <point x="122" y="-95"/>
      <point x="88" y="-160"/>
      <point x="28" y="-183" type="curve"/>
      <point x="36" y="-200" type="line"/>
      <point x="106" y="-176"/>
      <point x="142" y="-100"/>
      <point x="142" y="-35" type="curve" smooth="yes"/>
      <point x="142" y="-8"/>
      <point x="136" y="17"/>
      <point x="125" y="37" type="curve"/>
    </contour>
  </outline>
</glyph>
<glyph name="hyphen" format="2">
  <advance width="446"/>
  <unicode hex="002D"/>
  <outline>
    <contour>
      <point x="63" y="255" type="line"/>
      <point x="383" y="255" type="line"/>
      <point x="383" y="275" type="line"/>
      <point x="63" y="275" type="line"/>
    </contour>
  </outline>
</glyph>
<glyph name="zero" format="2">
  <advance width="1034"/>
  <unicode hex="0030"/>
  <outline>
    <contour>
      <point x="53" y="350" type="curve" smooth="yes"/>
      <point x="53" y="69"/>
      <point x="273" y="-10"/>
      <point x="517" y="-10" type="curve" smooth="yes"/>
      <point x="761" y="-10"/>
      <point x="981" y="69"/>
      <point x="981" y="350" type="curve" smooth="yes"/>
      <point x="981" y="631"/>
      <point x="761" y="710"/>
      <point x="517" y="710" type="curve" smooth="yes"/>
      <point x="273" y="710"/>
      <point x="53" y="631"/>
    </contour>
    <contour>
      <point x="73" y="350" type="curve" smooth="yes"/>
      <point x="73" y="615"/>
      <point x="283" y="690"/>
      <point x="517" y="690" type="curve" smooth="yes"/>
      <point x="751" y="690"/>
      <point x="961" y="615"/>
      <point x="961" y="350" type="curve" smooth="yes"/>
      <point x="961" y="85"/>
      <point x="751" y="10"/>
      <point x="517" y="10" type="curve" smooth="yes"/>
      <point x="283" y="10"/>
      <point x="73" y="85"/>
    </contour>
  </outline>
</glyph>
<glyph name="two" format="2">
  <advance width="1034"/>
  <unicode hex="0032"/>
  <outline>
    <contour>
      <point x="98" y="17" type="curve"/>
      <point x="102" y="0" type="line"/>
      <point x="955" y="0" type="line"/>
      <point x="955" y="20" type="line"/>
      <point x="149" y="20" type="line"/>
      <point x="702" y="261"/>
      <point x="799" y="352"/>
      <point x="799" y="490" type="curve" smooth="yes"/>
      <point x="799" y="632"/>
      <point x="696" y="710"/>
      <point x="485" y="710" type="curve" smooth="yes"/>
      <point x="368" y="710"/>
      <point x="244" y="685"/>
      <point x="154" y="645" type="curve"/>
      <point x="162" y="627" type="line"/>
      <point x="253" y="666"/>
      <point x="373" y="690"/>
      <point x="485" y="690" type="curve" smooth="yes"/>
      <point x="682" y="690"/>
      <point x="779" y="618"/>
      <point x="779" y="490" type="curve" smooth="yes"/>
      <point x="779" y="357"/>
      <point x="668" y="266"/>
    </contour>
  </outline>
</glyph>
<glyph name="three" format="2">
  <advance width="1034"/>
  <unicode hex="0033"/>
  <outline>
    <contour>
      <point x="48" y="87" type="line"/>
      <point x="178" y="21"/>
      <point x="296" y="-9"/>
      <point x="471" y="-9" type="curve" smooth="yes"/>
      <point x="767" y="-9"/>
      <point x="945" y="73"/>
      <point x="945" y="210" type="curve" smooth="yes"/>
      <point x="945" y="308"/>
      <point x="842" y="369"/>
      <point x="658" y="371" type="curve"/>
      <point x="791" y="382"/>
      <point x="868" y="440"/>
      <point x="868" y="530" type="curve" smooth="yes"/>
      <point x="868" y="644"/>
      <point x="749" y="710"/>
      <point x="492" y="710" type="curve" smooth="yes"/>
      <point x="368" y="710"/>
      <point x="239" y="692"/>
      <point x="126" y="668" type="curve"/>
      <point x="130" y="648" type="line"/>
      <point x="243" y="672"/>
      <point x="370" y="690"/>
      <point x="492" y="690" type="curve" smooth="yes"/>
      <point x="735" y="690"/>
      <point x="848" y="632"/>
      <point x="848" y="528" type="curve" smooth="yes"/>
      <point x="848" y="431"/>
      <point x="740" y="379"/>
      <point x="542" y="379" type="curve" smooth="yes"/>
      <point x="289" y="379" type="line"/>
      <point x="289" y="359" type="line"/>
      <point x="541" y="359" type="line" smooth="yes"/>
      <point x="796" y="359"/>
      <point x="925" y="318"/>
      <point x="925" y="210" type="curve" smooth="yes"/>
      <point x="925" y="86"/>
      <point x="754" y="11"/>
      <point x="471" y="11" type="curve" smooth="yes"/>
      <point x="301" y="11"/>
      <point x="186" y="40"/>
      <point x="57" y="105" type="curve"/>
    </contour>
  </outline>
</glyph>
<glyph name="five" format="2">
  <advance width="1034"/>
  <unicode hex="0035"/>
  <outline>
    <contour>
      <point x="75" y="87" type="line"/>
      <point x="182" y="27"/>
      <point x="282" y="-9"/>
      <point x="493" y="-9" type="curve" smooth="yes"/>
      <point x="808" y="-9"/>
      <point x="942" y="75"/>
      <point x="942" y="222" type="curve" smooth="yes"/>
      <point x="942" y="358"/>
      <point x="861" y="413"/>
      <point x="665" y="413" type="curve" smooth="yes"/>
      <point x="154" y="413" type="line"/>
      <point x="207" y="680" type="line"/>
      <point x="878" y="680" type="line"/>
      <point x="878" y="700" type="line"/>
      <point x="191" y="700" type="line"/>
      <point x="132" y="404" type="line"/>
      <point x="142" y="393" type="line"/>
      <point x="650" y="393" type="line" smooth="yes"/>
      <point x="846" y="393"/>
      <point x="922" y="346"/>
      <point x="922" y="222" type="curve" smooth="yes"/>
      <point x="922" y="85"/>
      <point x="800" y="11"/>
      <point x="493" y="11" type="curve" smooth="yes"/>
      <point x="286" y="11"/>
      <point x="190" y="47"/>
      <point x="85" y="105" type="curve"/>
    </contour>
  </outline>
</glyph>
<glyph name="six" format="2">
  <advance width="1034"/>
  <unicode hex="0036"/>
  <outline>
    <contour>
      <point x="553" y="-10" type="curve" smooth="yes"/>
      <point x="822" y="-10"/>
      <point x="977" y="77"/>
      <point x="977" y="225" type="curve" smooth="yes"/>
      <point x="977" y="369"/>
      <point x="827" y="440"/>
      <point x="587" y="440" type="curve" smooth="yes"/>
      <point x="396" y="440"/>
      <point x="186" y="394"/>
      <point x="75" y="331" type="curve"/>
      <point x="76" y="309" type="line"/>
      <point x="177" y="373"/>
      <point x="388" y="420"/>
      <point x="587" y="420" type="curve" smooth="yes"/>
      <point x="815" y="420"/>
      <point x="957" y="357"/>
      <point x="957" y="225" type="curve" smooth="yes"/>
      <point x="957" y="89"/>
      <point x="811" y="10"/>
      <point x="553" y="10" type="curve" smooth="yes"/>
      <point x="228" y="10"/>
      <point x="78" y="124"/>
      <point x="78" y="348" type="curve" smooth="yes"/>
      <point x="78" y="569"/>
      <point x="250" y="690"/>
      <point x="556" y="690" type="curve" smooth="yes"/>
      <point x="682" y="690"/>
      <point x="803" y="672"/>
      <point x="930" y="648" type="curve"/>
      <point x="934" y="668" type="line"/>
      <point x="806" y="693"/>
      <point x="685" y="710"/>
      <point x="556" y="710" type="curve" smooth="yes"/>
      <point x="237" y="710"/>
      <point x="58" y="583"/>
      <point x="58" y="350" type="curve" smooth="yes"/>
      <point x="58" y="111"/>
      <point x="214" y="-10"/>
    </contour>
  </outline>
</glyph>
<glyph name="seven" format="2">
  <advance width="1034"/>
  <unicode hex="0037"/>
  <outline>
    <contour>
      <point x="388" y="0" type="curve"/>
      <point x="408" y="0" type="line"/>
      <point x="408" y="132"/>
      <point x="468" y="225"/>
      <point x="591" y="348" type="curve" smooth="yes"/>
      <point x="928" y="683" type="line"/>
      <point x="928" y="700" type="line"/>
      <point x="85" y="700" type="line"/>
      <point x="85" y="680" type="line"/>
      <point x="898" y="680" type="line"/>
      <point x="623" y="408" type="line" smooth="yes"/>
      <point x="436" y="223"/>
      <point x="388" y="146"/>
    </contour>
  </outline>
</glyph>
<glyph name="less" format="2">
  <advance width="560"/>
  <unicode hex="003C"/>
  <outline>
    <contour>
      <point x="497" y="69" type="line"/>
      <point x="497" y="91" type="line"/>
      <point x="85" y="289" type="line"/>
      <point x="497" y="489" type="line"/>
      <point x="497" y="510" type="line"/>
      <point x="63" y="299" type="line"/>
      <point x="63" y="279" type="line"/>
    </contour>
  </outline>
</glyph>
<glyph name="equal" format="2">
  <advance width="560"/>
  <unicode hex="003D"/>
  <outline>
    <contour>
      <point x="497" y="197" type="line"/>
      <point x="63" y="197" type="line"/>
      <point x="63" y="177" type="line"/>
      <point x="497" y="177" type="line"/>
    </contour>
    <contour>
      <point x="497" y="404" type="line"/>
      <point x="63" y="404" type="line"/>
      <point x="63" y="384" type="line"/>
      <point x="497" y="384" type="line"/>
    </contour>
  </outline>
</glyph>
<glyph name="question" format="2">
  <advance width="674"/>
  <unicode hex="003F"/>
  <outline>
    <contour>
      <point x="298" y="261" type="line"/>
      <point x="318" y="261" type="line"/>
      <point x="318" y="327" type="line"/>
      <point x="522" y="369"/>
      <point x="625" y="428"/>
      <point x="625" y="545" type="curve" smooth="yes"/>
      <point x="625" y="706"/>
      <point x="470" y="750"/>
      <point x="342" y="750" type="curve" smooth="yes"/>
      <point x="230" y="750"/>
      <point x="106" y="726"/>
      <point x="12" y="670" type="curve"/>
      <point x="22" y="652" type="line"/>
      <point x="114" y="706"/>
      <point x="234" y="730"/>
      <point x="342" y="730" type="curve" smooth="yes"/>
      <point x="460" y="730"/>
      <point x="605" y="690"/>
      <point x="605" y="545" type="curve" smooth="yes"/>
      <point x="605" y="454"/>
      <point x="523" y="380"/>
      <point x="298" y="343" type="curve"/>
    </contour>
    <contour>
      <point x="298" y="17" type="curve" smooth="yes"/>
      <point x="298" y="1"/>
      <point x="300" y="0"/>
      <point x="315" y="0" type="curve" smooth="yes"/>
      <point x="331" y="0"/>
      <point x="332" y="1"/>
      <point x="332" y="17" type="curve" smooth="yes"/>
      <point x="332" y="33"/>
      <point x="331" y="34"/>
      <point x="315" y="34" type="curve" smooth="yes"/>
      <point x="299" y="34"/>
      <point x="298" y="33"/>
    </contour>
  </outline>
</glyph>
<glyph name="at" format="2">
  <advance width="1180"/>
  <unicode hex="0040"/>
  <outline>
    <contour>
      <point x="572" y="-123" type="curve" smooth="yes"/>
      <point x="697" y="-123"/>
      <point x="818" y="-91"/>
      <point x="910" y="-46" type="curve"/>
      <point x="903" y="-28" type="line"/>
      <point x="814" y="-72"/>
      <point x="698" y="-103"/>
      <point x="572" y="-103" type="curve" smooth="yes"/>
      <point x="302" y="-103"/>
      <point x="115" y="44"/>
      <point x="115" y="272" type="curve" smooth="yes"/>
      <point x="115" y="504"/>
      <point x="287" y="690"/>
      <point x="600" y="690" type="curve" smooth="yes"/>
      <point x="898" y="690"/>
      <point x="1069" y="556"/>
      <point x="1069" y="339" type="curve" smooth="yes"/>
      <point x="1069" y="213"/>
      <point x="1000" y="100"/>
      <point x="915" y="100" type="curve" smooth="yes"/>
      <point x="837" y="100"/>
      <point x="808" y="154"/>
      <point x="814" y="264" type="curve" smooth="yes"/>
      <point x="827" y="489" type="line"/>
      <point x="749" y="506"/>
      <point x="683" y="515"/>
      <point x="625" y="515" type="curve" smooth="yes"/>
      <point x="422" y="515"/>
      <point x="320" y="386"/>
      <point x="320" y="268" type="curve" smooth="yes"/>
      <point x="320" y="151"/>
      <point x="402" y="84"/>
      <point x="506" y="84" type="curve" smooth="yes"/>
      <point x="618" y="84"/>
      <point x="742" y="153"/>
      <point x="796" y="324" type="curve"/>
      <point x="784" y="193"/>
      <point x="794" y="81"/>
      <point x="914" y="81" type="curve" smooth="yes"/>
      <point x="1013" y="81"/>
      <point x="1088" y="202"/>
      <point x="1088" y="339" type="curve" smooth="yes"/>
      <point x="1088" y="569"/>
      <point x="910" y="709"/>
      <point x="600" y="709" type="curve" smooth="yes"/>
      <point x="274" y="709"/>
      <point x="95" y="514"/>
      <point x="95" y="272" type="curve" smooth="yes"/>
      <point x="95" y="32"/>
      <point x="289" y="-123"/>
    </contour>
    <contour>
      <point x="506" y="103" type="curve" smooth="yes"/>
      <point x="414" y="103"/>
      <point x="340" y="163"/>
      <point x="340" y="268" type="curve" smooth="yes"/>
      <point x="340" y="377"/>
      <point x="436" y="495"/>
      <point x="624" y="495" type="curve" smooth="yes"/>
      <point x="671" y="495"/>
      <point x="749" y="484"/>
      <point x="807" y="473" type="curve"/>
      <point x="804" y="413" type="line"/>
      <point x="774" y="209"/>
      <point x="631" y="103"/>
    </contour>
  </outline>
</glyph>
<glyph name="A" format="2">
  <advance width="952"/>
  <unicode hex="0041"/>
  <anchor x="942" y="0" name="ogonek"/>
  <anchor x="476" y="0" name="bottom"/>
  <anchor x="476" y="700" name="top"/>
  <outline>
    <contour>
      <point x="10" y="0" type="line"/>
      <point x="32" y="0" type="line"/>
      <point x="176" y="222" type="line"/>
      <point x="774" y="222" type="line"/>
      <point x="919" y="0" type="line"/>
      <point x="942" y="0" type="line"/>
      <point x="479" y="710" type="line"/>
      <point x="471" y="710" type="line"/>
    </contour>
    <contour>
      <point x="189" y="241" type="line"/>
      <point x="474" y="680" type="line"/>
      <point x="762" y="241" type="line"/>
    </contour>
  </outline>
</glyph>
<glyph name="B" format="2">
  <advance width="1036"/>
  <unicode hex="0042"/>
  <anchor x="542" y="700" name="top"/>
  <anchor x="542" y="0" name="bottom"/>
  <outline>
    <contour>
      <point x="142" y="5" type="line"/>
      <point x="345" y="-7"/>
      <point x="446" y="-10"/>
      <point x="583" y="-10" type="curve" smooth="yes"/>
      <point x="871" y="-10"/>
      <point x="981" y="47"/>
      <point x="981" y="194" type="curve" smooth="yes"/>
      <point x="981" y="293"/>
      <point x="895" y="358"/>
      <point x="757" y="372" type="curve"/>
      <point x="757" y="374" type="line"/>
      <point x="857" y="392"/>
      <point x="919" y="455"/>
      <point x="919" y="540" type="curve" smooth="yes"/>
      <point x="919" y="665"/>
      <point x="825" y="710"/>
      <point x="562" y="710" type="curve" smooth="yes"/>
      <point x="451" y="710"/>
      <point x="353" y="706"/>
      <point x="142" y="695" type="curve"/>
    </contour>
    <contour>
      <point x="162" y="380" type="line"/>
      <point x="162" y="677" type="line"/>
      <point x="388" y="689"/>
      <point x="402" y="690"/>
      <point x="541" y="690" type="curve" smooth="yes"/>
      <point x="805" y="690"/>
      <point x="899" y="651"/>
      <point x="899" y="540" type="curve" smooth="yes"/>
      <point x="899" y="442"/>
      <point x="805" y="380"/>
      <point x="657" y="380" type="curve" smooth="yes"/>
    </contour>
    <contour>
      <point x="162" y="24" type="curve"/>
      <point x="162" y="360" type="line"/>
      <point x="669" y="360" type="line" smooth="yes"/>
      <point x="855" y="360"/>
      <point x="961" y="303"/>
      <point x="961" y="192" type="curve" smooth="yes"/>
      <point x="961" y="57"/>
      <point x="856" y="9"/>
      <point x="574" y="9" type="curve" smooth="yes"/>
      <point x="466" y="9"/>
      <point x="394" y="12"/>
    </contour>
  </outline>
</glyph>
<glyph name="D" format="2">
  <advance width="1152"/>
  <unicode hex="0044"/>
  <anchor x="570" y="700" name="top"/>
  <outline>
    <contour>
      <point x="533" y="-10" type="curve" smooth="yes"/>
      <point x="860" y="-10"/>
      <point x="1060" y="109"/>
      <point x="1060" y="342" type="curve" smooth="yes"/>
      <point x="1060" y="592"/>
      <point x="881" y="710"/>
      <point x="512" y="710" type="curve" smooth="yes"/>
      <point x="401" y="710"/>
      <point x="284" y="707"/>
      <point x="142" y="700" type="curve"/>
      <point x="142" y="0" type="line"/>
      <point x="290" y="-4"/>
      <point x="439" y="-10"/>
    </contour>
    <contour>
      <point x="523" y="10" type="curve" smooth="yes"/>
      <point x="450" y="10"/>
      <point x="253" y="15"/>
      <point x="162" y="20" type="curve"/>
      <point x="162" y="680" type="line"/>
      <point x="279" y="686"/>
      <point x="430" y="690"/>
      <point x="503" y="690" type="curve" smooth="yes"/>
      <point x="865" y="690"/>
      <point x="1039" y="579"/>
      <point x="1039" y="343" type="curve" smooth="yes"/>
      <point x="1039" y="124"/>
      <point x="848" y="10"/>
    </contour>
  </outline>
</glyph>
<glyph name="E" format="2">
  <advance width="954"/>
  <unicode hex="0045"/>
  <anchor x="901" y="0" name="ogonek"/>
  <anchor x="522" y="0" name="bottom"/>
  <anchor x="511" y="700" name="top"/>
  <outline>
    <contour>
      <point x="142" y="0" type="line"/>
      <point x="901" y="0" type="line"/>
      <point x="901" y="20" type="line"/>
      <point x="162" y="20" type="line"/>
      <point x="162" y="373" type="line"/>
      <point x="840" y="373" type="line"/>
      <point x="840" y="393" type="line"/>
      <point x="162" y="393" type="line"/>
      <point x="162" y="680" type="line"/>
      <point x="872" y="680" type="line"/>
      <point x="872" y="700" type="line"/>
      <point x="142" y="700" type="line"/>
    </contour>
  </outline>
</glyph>
<glyph name="G" format="2">
  <advance width="1127"/>
  <unicode hex="0047"/>
  <anchor x="572" y="700" name="top"/>
  <anchor x="580" y="0" name="bottom"/>
  <outline>
    <contour>
      <point x="92" y="337" type="curve" smooth="yes"/>
      <point x="92" y="118"/>
      <point x="268" y="-10"/>
      <point x="566" y="-10" type="curve" smooth="yes"/>
      <point x="741" y="-10"/>
      <point x="904" y="14"/>
      <point x="1012" y="58" type="curve"/>
      <point x="1012" y="310" type="line"/>
      <point x="597" y="310" type="line"/>
      <point x="597" y="290" type="line"/>
      <point x="992" y="290" type="line"/>
      <point x="992" y="72" type="line"/>
      <point x="874" y="30"/>
      <point x="734" y="10"/>
      <point x="566" y="10" type="curve" smooth="yes"/>
      <point x="281" y="10"/>
      <point x="112" y="131"/>
      <point x="112" y="337" type="curve" smooth="yes"/>
      <point x="112" y="550"/>
      <point x="290" y="690"/>
      <point x="581" y="690" type="curve" smooth="yes"/>
      <point x="716" y="690"/>
      <point x="839" y="673"/>
      <point x="959" y="636" type="curve"/>
      <point x="965" y="654" type="line"/>
      <point x="853" y="691"/>
      <point x="722" y="710"/>
      <point x="581" y="710" type="curve" smooth="yes"/>
      <point x="278" y="710"/>
      <point x="92" y="562"/>
    </contour>
  </outline>
</glyph>
<glyph name="H" format="2">
  <advance width="1189"/>
  <unicode hex="0048"/>
  <anchor x="595" y="700" name="top"/>
  <outline>
    <contour>
      <point x="142" y="0" type="line"/>
      <point x="162" y="0" type="line"/>
      <point x="162" y="290" type="line"/>
      <point x="1027" y="290" type="line"/>
      <point x="1027" y="0" type="line"/>
      <point x="1047" y="0" type="line"/>
      <point x="1047" y="700" type="line"/>
      <point x="1027" y="700" type="line"/>
      <point x="1027" y="310" type="line"/>
      <point x="162" y="310" type="line"/>
      <point x="162" y="700" type="line"/>
      <point x="142" y="700" type="line"/>
    </contour>
  </outline>
</glyph>
<glyph name="K" format="2">
  <advance width="1059"/>
  <unicode hex="004B"/>
  <anchor x="530" y="700" name="top"/>
  <anchor x="495" y="0" name="bottom"/>
  <outline>
    <contour>
      <point x="1019" y="-10" type="curve" smooth="yes"/>
      <point x="1023" y="-10"/>
      <point x="1030" y="-10"/>
      <point x="1036" y="-9" type="curve"/>
      <point x="1036" y="11" type="line"/>
      <point x="1031" y="10"/>
      <point x="1025" y="10"/>
      <point x="1021" y="10" type="curve" smooth="yes"/>
      <point x="933" y="13"/>
      <point x="868" y="49"/>
      <point x="700" y="146" type="curve" smooth="yes"/>
      <point x="162" y="457" type="line"/>
      <point x="162" y="700" type="line"/>
      <point x="142" y="700" type="line"/>
      <point x="142" y="0" type="line"/>
      <point x="162" y="0" type="line"/>
      <point x="162" y="434" type="line"/>
      <point x="689" y="128" type="line" smooth="yes"/>
      <point x="852" y="34"/>
      <point x="928" y="-10"/>
    </contour>
    <contour>
      <point x="357" y="326" type="line"/>
      <point x="545" y="391"/>
      <point x="847" y="513"/>
      <point x="992" y="694" type="curve"/>
      <point x="976" y="706" type="line"/>
      <point x="829" y="524"/>
      <point x="519" y="401"/>
      <point x="338" y="339" type="curve"/>
    </contour>
  </outline>
</glyph>
<glyph name="M" format="2">
  <advance width="1356"/>
  <unicode hex="004D"/>
  <outline>
    <contour>
      <point x="142" y="0" type="line"/>
      <point x="162" y="0" type="line"/>
      <point x="162" y="676" type="line"/>
      <point x="674" y="293" type="line"/>
      <point x="682" y="293" type="line"/>
      <point x="1194" y="675" type="line"/>
      <point x="1194" y="0" type="line"/>
      <point x="1214" y="0" type="line"/>
      <point x="1214" y="700" type="line"/>
      <point x="1196" y="700" type="line"/>
      <point x="678" y="314" type="line"/>
      <point x="160" y="700" type="line"/>
      <point x="142" y="700" type="line"/>
    </contour>
  </outline>
</glyph>
<glyph name="N" format="2">
  <advance width="1189"/>
  <unicode hex="004E"/>
  <anchor x="595" y="700" name="top"/>
  <anchor x="595" y="0" name="bottom"/>
  <outline>
    <contour>
      <point x="142" y="0" type="line"/>
      <point x="162" y="0" type="line"/>
      <point x="162" y="684" type="line"/>
      <point x="1029" y="0" type="line"/>
      <point x="1047" y="0" type="line"/>
      <point x="1047" y="700" type="line"/>
      <point x="1027" y="700" type="line"/>
      <point x="1027" y="26" type="line"/>
      <point x="160" y="710" type="line"/>
      <point x="142" y="710" type="line"/>
    </contour>
  </outline>
</glyph>
<glyph name="O" format="2">
  <advance width="1257"/>
  <unicode hex="004F"/>
  <anchor x="684" y="0" name="ogonek"/>
  <anchor x="627" y="700" name="top"/>
  <anchor x="952" y="658" name="topright"/>
  <anchor x="627" y="0" name="bottom"/>
  <outline>
    <contour>
      <point x="627" y="10" type="curve" smooth="yes"/>
      <point x="401" y="10"/>
      <point x="112" y="76"/>
      <point x="112" y="350" type="curve" smooth="yes"/>
      <point x="112" y="636"/>
      <point x="401" y="690"/>
      <point x="627" y="690" type="curve" smooth="yes"/>
      <point x="854" y="690"/>
      <point x="1144" y="637"/>
      <point x="1144" y="350" type="curve" smooth="yes"/>
      <point x="1144" y="62"/>
      <point x="854" y="10"/>
    </contour>
    <contour>
      <point x="627" y="-10" type="curve" smooth="yes"/>
      <point x="872" y="-10"/>
      <point x="1165" y="48"/>
      <point x="1165" y="355" type="curve" smooth="yes"/>
      <point x="1165" y="652"/>
      <point x="860" y="710"/>
      <point x="627" y="710" type="curve" smooth="yes"/>
      <point x="390" y="710"/>
      <point x="92" y="648"/>
      <point x="92" y="350" type="curve" smooth="yes"/>
      <point x="92" y="65"/>
      <point x="390" y="-10"/>
    </contour>
  </outline>
</glyph>
<glyph name="P" format="2">
  <advance width="1038"/>
  <unicode hex="0050"/>
  <outline>
    <contour>
      <point x="142" y="0" type="line"/>
      <point x="162" y="0" type="line"/>
      <point x="162" y="250" type="line"/>
      <point x="324" y="246"/>
      <point x="409" y="245"/>
      <point x="535" y="245" type="curve" smooth="yes"/>
      <point x="852" y="245"/>
      <point x="970" y="296"/>
      <point x="970" y="483" type="curve" smooth="yes"/>
      <point x="970" y="642"/>
      <point x="886" y="710"/>
      <point x="510" y="710" type="curve" smooth="yes"/>
      <point x="446" y="710"/>
      <point x="364" y="708"/>
      <point x="142" y="700" type="curve"/>
    </contour>
    <contour>
      <point x="162" y="680" type="line"/>
      <point x="368" y="688"/>
      <point x="444" y="690"/>
      <point x="510" y="690" type="curve" smooth="yes"/>
      <point x="864" y="690"/>
      <point x="950" y="631"/>
      <point x="950" y="483" type="curve" smooth="yes"/>
      <point x="950" y="322"/>
      <point x="858" y="265"/>
      <point x="535" y="265" type="curve" smooth="yes"/>
      <point x="389" y="265"/>
      <point x="315" y="268"/>
      <point x="162" y="271" type="curve"/>
    </contour>
  </outline>
</glyph>
<glyph name="Q" format="2">
  <advance width="1257"/>
  <unicode hex="0051"/>
  <outline>
    <contour>
      <point x="720" y="-2" type="curve"/>
      <point x="699" y="-3" type="line"/>
      <point x="763" y="-117"/>
      <point x="840" y="-208"/>
      <point x="961" y="-208" type="curve" smooth="yes"/>
      <point x="1004" y="-208"/>
      <point x="1055" y="-197"/>
      <point x="1112" y="-171" type="curve"/>
      <point x="1104" y="-153" type="line"/>
      <point x="1050" y="-177"/>
      <point x="1002" y="-188"/>
      <point x="961" y="-188" type="curve" smooth="yes"/>
      <point x="850" y="-188"/>
      <point x="780" y="-108"/>
    </contour>
    <component base="O"/>
  </outline>
</glyph>
<glyph name="R" format="2">
  <advance width="1135"/>
  <unicode hex="0052"/>
  <anchor x="516" y="700" name="top"/>
  <anchor x="544" y="0" name="bottom"/>
  <outline>
    <contour>
      <point x="1116" y="-10" type="curve" smooth="yes"/>
      <point x="1120" y="-10"/>
      <point x="1127" y="-10"/>
      <point x="1133" y="-9" type="curve"/>
      <point x="1133" y="11" type="line"/>
      <point x="1128" y="10"/>
      <point x="1122" y="10"/>
      <point x="1118" y="10" type="curve" smooth="yes"/>
      <point x="1025" y="10"/>
      <point x="832" y="155"/>
      <point x="650" y="310" type="curve"/>
      <point x="845" y="322"/>
      <point x="949" y="366"/>
      <point x="949" y="513" type="curve" smooth="yes"/>
      <point x="949" y="670"/>
      <point x="825" y="709"/>
      <point x="477" y="709" type="curve" smooth="yes"/>
      <point x="341" y="709"/>
      <point x="269" y="708"/>
      <point x="142" y="702" type="curve"/>
      <point x="142" y="0" type="line"/>
      <point x="162" y="0" type="line"/>
      <point x="162" y="312" type="line"/>
      <point x="293" y="309"/>
      <point x="411" y="307"/>
      <point x="525" y="307" type="curve" smooth="yes"/>
      <point x="558" y="307"/>
      <point x="591" y="307"/>
      <point x="624" y="308" type="curve"/>
      <point x="807" y="151"/>
      <point x="1007" y="-10"/>
    </contour>
    <contour>
      <point x="525" y="327" type="curve" smooth="yes"/>
      <point x="411" y="327"/>
      <point x="293" y="329"/>
      <point x="162" y="332" type="curve"/>
      <point x="162" y="683" type="line"/>
      <point x="289" y="689"/>
      <point x="341" y="689"/>
      <point x="477" y="689" type="curve" smooth="yes"/>
      <point x="811" y="689"/>
      <point x="929" y="654"/>
      <point x="929" y="513" type="curve" smooth="yes"/>
      <point x="929" y="375"/>
      <point x="831" y="327"/>
    </contour>
  </outline>
</glyph>
<glyph name="V" format="2">
  <advance width="988"/>
  <unicode hex="0056"/>
  <outline>
    <contour>
      <point x="489" y="0" type="line"/>
      <point x="499" y="0" type="line"/>
      <point x="974" y="694" type="line"/>
      <point x="958" y="706" type="line"/>
      <point x="494" y="28" type="line"/>
      <point x="30" y="706" type="line"/>
      <point x="14" y="694" type="line"/>
    </contour>
  </outline>
</glyph>
<glyph name="b" format="2">
  <advance width="861"/>
  <unicode hex="0062"/>
  <outline>
    <contour>
      <point x="124" y="21" type="line"/>
      <point x="231" y="0"/>
      <point x="317" y="-10"/>
      <point x="396" y="-10" type="curve" smooth="yes"/>
      <point x="655" y="-10"/>
      <point x="787" y="90"/>
      <point x="787" y="285" type="curve" smooth="yes"/>
      <point x="787" y="443"/>
      <point x="676" y="540"/>
      <point x="494" y="540" type="curve" smooth="yes"/>
      <point x="380" y="540"/>
      <point x="280" y="503"/>
      <point x="144" y="409" type="curve"/>
      <point x="144" y="740" type="line"/>
      <point x="124" y="740" type="line"/>
    </contour>
    <contour>
      <point x="144" y="37" type="curve"/>
      <point x="144" y="387" type="line"/>
      <point x="281" y="482"/>
      <point x="380" y="520"/>
      <point x="494" y="520" type="curve" smooth="yes"/>
      <point x="662" y="520"/>
      <point x="767" y="430"/>
      <point x="767" y="285" type="curve" smooth="yes"/>
      <point x="767" y="101"/>
      <point x="643" y="9"/>
      <point x="396" y="9" type="curve" smooth="yes"/>
      <point x="328" y="9"/>
      <point x="243" y="18"/>
    </contour>
  </outline>
</glyph>
<glyph name="c" format="2">
  <advance width="823"/>
  <unicode hex="0063"/>
  <anchor x="470" y="530" name="top"/>
  <anchor x="470" y="0" name="bottom"/>
  <outline>
    <contour>
      <point x="74" y="251" type="curve" smooth="yes"/>
      <point x="74" y="84"/>
      <point x="215" y="-10"/>
      <point x="468" y="-10" type="curve" smooth="yes"/>
      <point x="568" y="-10"/>
      <point x="686" y="8"/>
      <point x="774" y="32" type="curve"/>
      <point x="770" y="52" type="line"/>
      <point x="679" y="28"/>
      <point x="563" y="10"/>
      <point x="472" y="10" type="curve" smooth="yes"/>
      <point x="231" y="10"/>
      <point x="94" y="96"/>
      <point x="94" y="251" type="curve" smooth="yes"/>
      <point x="94" y="424"/>
      <point x="243" y="520"/>
      <point x="470" y="520" type="curve" smooth="yes"/>
      <point x="554" y="520"/>
      <point x="673" y="504"/>
      <point x="756" y="483" type="curve"/>
      <point x="760" y="503" type="line"/>
      <point x="677" y="524"/>
      <point x="557" y="540"/>
      <point x="470" y="540" type="curve" smooth="yes"/>
      <point x="231" y="540"/>
      <point x="74" y="436"/>
    </contour>
  </outline>
</glyph>
<glyph name="e" format="2">
  <advance width="856"/>
  <unicode hex="0065"/>
  <anchor x="738" y="23" name="ogonek"/>
  <anchor x="454" y="0" name="bottom"/>
  <anchor x="454" y="530" name="top"/>
  <outline>
    <contour>
      <point x="422" y="-10" type="curve" smooth="yes"/>
      <point x="574" y="-10"/>
      <point x="714" y="16"/>
      <point x="784" y="32" type="curve"/>
      <point x="780" y="52" type="line"/>
      <point x="713" y="37"/>
      <point x="568" y="10"/>
      <point x="422" y="10" type="curve" smooth="yes"/>
      <point x="234" y="10"/>
      <point x="94" y="92"/>
      <point x="94" y="249" type="curve" smooth="yes"/>
      <point x="94" y="262"/>
      <point x="95" y="274"/>
      <point x="96" y="286" type="curve"/>
      <point x="442" y="286"/>
      <point x="727" y="305"/>
      <point x="791" y="308" type="curve"/>
      <point x="792" y="314"/>
      <point x="792" y="320"/>
      <point x="792" y="325" type="curve" smooth="yes"/>
      <point x="792" y="471"/>
      <point x="684" y="540"/>
      <point x="475" y="540" type="curve" smooth="yes"/>
      <point x="264" y="540"/>
      <point x="74" y="453"/>
      <point x="74" y="249" type="curve" smooth="yes"/>
      <point x="74" y="78"/>
      <point x="221" y="-10"/>
    </contour>
    <contour>
      <point x="99" y="306" type="curve"/>
      <point x="131" y="469"/>
      <point x="326" y="520"/>
      <point x="475" y="520" type="curve" smooth="yes"/>
      <point x="679" y="520"/>
      <point x="771" y="452"/>
      <point x="771" y="326" type="curve"/>
      <point x="723" y="323"/>
      <point x="444" y="306"/>
    </contour>
  </outline>
</glyph>
<glyph name="f" format="2">
  <advance width="542"/>
  <unicode hex="0066"/>
  <outline>
    <contour>
      <point x="185" y="0" type="line"/>
      <point x="205" y="0" type="line"/>
      <point x="205" y="464" type="line"/>
      <point x="538" y="464" type="line"/>
      <point x="538" y="484" type="line"/>
      <point x="205" y="484" type="line"/>
      <point x="205" y="499" type="line" smooth="yes"/>
      <point x="205" y="668"/>
      <point x="283" y="731"/>
      <point x="429" y="731" type="curve" smooth="yes"/>
      <point x="497" y="731"/>
      <point x="557" y="719"/>
      <point x="635" y="697" type="curve"/>
      <point x="640" y="717" type="line"/>
      <point x="554" y="742"/>
      <point x="496" y="751"/>
      <point x="425" y="751" type="curve" smooth="yes"/>
      <point x="278" y="751"/>
      <point x="185" y="686"/>
      <point x="185" y="499" type="curve" smooth="yes"/>
      <point x="185" y="484" type="line"/>
      <point x="45" y="479" type="line"/>
      <point x="45" y="464" type="line"/>
      <point x="185" y="464" type="line"/>
    </contour>
  </outline>
</glyph>
<glyph name="i" format="2">
  <advance width="268"/>
  <unicode hex="0069"/>
  <anchor x="143" y="0" name="ogonek"/>
  <anchor x="134" y="0" name="bottom"/>
  <outline>
    <contour>
      <point x="134" y="677" type="curve" smooth="yes"/>
      <point x="150" y="677"/>
      <point x="151" y="678"/>
      <point x="151" y="694" type="curve" smooth="yes"/>
      <point x="151" y="710"/>
      <point x="150" y="711"/>
      <point x="134" y="711" type="curve" smooth="yes"/>
      <point x="118" y="711"/>
      <point x="117" y="710"/>
      <point x="117" y="694" type="curve" smooth="yes"/>
      <point x="117" y="678"/>
      <point x="119" y="677"/>
    </contour>
    <contour>
      <point x="124" y="0" type="line"/>
      <point x="144" y="0" type="line"/>
      <point x="144" y="530" type="line"/>
      <point x="124" y="530" type="line"/>
    </contour>
  </outline>
</glyph>
<glyph name="l" format="2">
  <advance width="353"/>
  <unicode hex="006C"/>
  <anchor x="177" y="395" name="center"/>
  <anchor x="134" y="740" name="top"/>
  <anchor x="272" y="740" name="topright"/>
  <anchor x="237" y="0" name="bottom"/>
  <outline>
    <contour>
      <point x="144" y="740" type="line"/>
      <point x="124" y="740" type="line"/>
      <point x="124" y="155" type="line" smooth="yes"/>
      <point x="124" y="16"/>
      <point x="191" y="-10"/>
      <point x="260" y="-10" type="curve" smooth="yes"/>
      <point x="295" y="-10"/>
      <point x="329" y="-3"/>
      <point x="355" y="6" type="curve"/>
      <point x="351" y="26" type="line"/>
      <point x="325" y="17"/>
      <point x="292" y="10"/>
      <point x="260" y="10" type="curve" smooth="yes"/>
      <point x="201" y="10"/>
      <point x="144" y="32"/>
      <point x="144" y="155" type="curve" smooth="yes"/>
    </contour>
  </outline>
</glyph>
<glyph name="m" format="2">
  <advance width="1367"/>
  <unicode hex="006D"/>
  <outline>
    <contour>
      <point x="124" y="0" type="line"/>
      <point x="144" y="0" type="line"/>
      <point x="144" y="404" type="line"/>
      <point x="260" y="471"/>
      <point x="347" y="515"/>
      <point x="481" y="515" type="curve" smooth="yes"/>
      <point x="660" y="515"/>
      <point x="676" y="383"/>
      <point x="676" y="328" type="curve" smooth="yes"/>
      <point x="676" y="0" type="line"/>
      <point x="696" y="0" type="line"/>
      <point x="696" y="328" type="line" smooth="yes"/>
      <point x="696" y="349"/>
      <point x="694" y="380"/>
      <point x="683" y="412" type="curve"/>
      <point x="754" y="453"/>
      <point x="867" y="520"/>
      <point x="1024" y="520" type="curve" smooth="yes"/>
      <point x="1207" y="520"/>
      <point x="1223" y="387"/>
      <point x="1223" y="332" type="curve" smooth="yes"/>
      <point x="1223" y="0" type="line"/>
      <point x="1243" y="0" type="line"/>
      <point x="1243" y="332" type="line" smooth="yes"/>
      <point x="1243" y="393"/>
      <point x="1225" y="540"/>
      <point x="1024" y="540" type="curve" smooth="yes"/>
      <point x="861" y="540"/>
      <point x="746" y="473"/>
      <point x="675" y="431" type="curve"/>
      <point x="650" y="485"/>
      <point x="596" y="535"/>
      <point x="481" y="535" type="curve" smooth="yes"/>
      <point x="342" y="535"/>
      <point x="245" y="486"/>
      <point x="144" y="428" type="curve"/>
      <point x="144" y="530" type="line"/>
      <point x="124" y="530" type="line"/>
    </contour>
  </outline>
</glyph>
<glyph name="q" format="2">
  <advance width="861"/>
  <unicode hex="0071"/>
  <outline>
    <contour>
      <point x="737" y="509" type="line"/>
      <point x="630" y="530"/>
      <point x="544" y="540"/>
      <point x="465" y="540" type="curve" smooth="yes"/>
      <point x="206" y="540"/>
      <point x="74" y="440"/>
      <point x="74" y="245" type="curve" smooth="yes"/>
      <point x="74" y="87"/>
      <point x="185" y="-10"/>
      <point x="367" y="-10" type="curve" smooth="yes"/>
      <point x="481" y="-10"/>
      <point x="581" y="27"/>
      <point x="717" y="121" type="curve"/>
      <point x="717" y="-210" type="line"/>
      <point x="737" y="-210" type="line"/>
    </contour>
    <contour>
      <point x="717" y="493" type="curve"/>
      <point x="717" y="143" type="line"/>
      <point x="580" y="48"/>
      <point x="481" y="10"/>
      <point x="367" y="10" type="curve" smooth="yes"/>
      <point x="199" y="10"/>
      <point x="94" y="100"/>
      <point x="94" y="245" type="curve" smooth="yes"/>
      <point x="94" y="429"/>
      <point x="218" y="521"/>
      <point x="465" y="521" type="curve" smooth="yes"/>
      <point x="533" y="521"/>
      <point x="618" y="512"/>
    </contour>
  </outline>
</glyph>
<glyph name="r" format="2">
  <advance width="615"/>
  <unicode hex="0072"/>
  <anchor x="351" y="530" name="top"/>
  <anchor x="134" y="0" name="bottom"/>
  <outline>
    <contour>
      <point x="144" y="530" type="line"/>
      <point x="124" y="530" type="line"/>
      <point x="124" y="0" type="line"/>
      <point x="144" y="0" type="line"/>
      <point x="144" y="379" type="line"/>
      <point x="259" y="482"/>
      <point x="366" y="520"/>
      <point x="465" y="520" type="curve" smooth="yes"/>
      <point x="508" y="520"/>
      <point x="561" y="512"/>
      <point x="600" y="502" type="curve"/>
      <point x="604" y="522" type="line"/>
      <point x="573" y="531"/>
      <point x="518" y="540"/>
      <point x="461" y="540" type="curve" smooth="yes"/>
      <point x="360" y="540"/>
      <point x="264" y="505"/>
      <point x="144" y="408" type="curve"/>
    </contour>
  </outline>
</glyph>
<glyph name="s" format="2">
  <advance width="769"/>
  <unicode hex="0073"/>
  <anchor x="382" y="530" name="top"/>
  <anchor x="391" y="0" name="bottom"/>
  <outline>
    <contour>
      <point x="59" y="42" type="line"/>
      <point x="132" y="12"/>
      <point x="270" y="-10"/>
      <point x="391" y="-10" type="curve" smooth="yes"/>
      <point x="602" y="-10"/>
      <point x="711" y="38"/>
      <point x="711" y="137" type="curve" smooth="yes"/>
      <point x="711" y="246"/>
      <point x="559" y="262"/>
      <point x="406" y="276" type="curve" smooth="yes"/>
      <point x="261" y="289"/>
      <point x="109" y="302"/>
      <point x="109" y="400" type="curve" smooth="yes"/>
      <point x="109" y="480"/>
      <point x="202" y="520"/>
      <point x="401" y="520" type="curve" smooth="yes"/>
      <point x="495" y="520"/>
      <point x="596" y="499"/>
      <point x="654" y="483" type="curve"/>
      <point x="660" y="503" type="line"/>
      <point x="602" y="519"/>
      <point x="500" y="540"/>
      <point x="401" y="540" type="curve" smooth="yes"/>
      <point x="188" y="540"/>
      <point x="89" y="492"/>
      <point x="89" y="400" type="curve" smooth="yes"/>
      <point x="89" y="286"/>
      <point x="243" y="271"/>
      <point x="404" y="256" type="curve" smooth="yes"/>
      <point x="553" y="242"/>
      <point x="691" y="226"/>
      <point x="691" y="137" type="curve" smooth="yes"/>
      <point x="691" y="52"/>
      <point x="588" y="10"/>
      <point x="391" y="10" type="curve" smooth="yes"/>
      <point x="274" y="10"/>
      <point x="138" y="32"/>
      <point x="65" y="62" type="curve"/>
    </contour>
  </outline>
</glyph>
<glyph name="t" format="2">
  <advance width="635"/>
  <unicode hex="0074"/>
  <anchor x="318" y="275" name="center"/>
  <anchor x="203" y="665" name="top"/>
  <anchor x="489" y="795" name="topright"/>
  <anchor x="377" y="0" name="bottom"/>
  <outline>
    <contour>
      <point x="384" y="-10" type="curve" smooth="yes"/>
      <point x="444" y="-10"/>
      <point x="525" y="3"/>
      <point x="611" y="31" type="curve"/>
      <point x="605" y="50" type="line"/>
      <point x="540" y="27"/>
      <point x="467" y="10"/>
      <point x="388" y="10" type="curve" smooth="yes"/>
      <point x="265" y="10"/>
      <point x="211" y="64"/>
      <point x="211" y="175" type="curve" smooth="yes"/>
      <point x="211" y="510" type="line"/>
      <point x="582" y="510" type="line"/>
      <point x="582" y="530" type="line"/>
      <point x="211" y="530" type="line"/>
      <point x="211" y="665" type="line"/>
      <point x="195" y="665" type="line"/>
      <point x="191" y="530" type="line"/>
      <point x="12" y="525" type="line"/>
      <point x="12" y="510" type="line"/>
      <point x="191" y="510" type="line"/>
      <point x="191" y="175" type="line" smooth="yes"/>
      <point x="191" y="41"/>
      <point x="266" y="-10"/>
    </contour>
  </outline>
</glyph>
<glyph name="v" format="2">
  <advance width="755"/>
  <unicode hex="0076"/>
  <outline>
    <contour>
      <point x="372" y="0" type="line"/>
      <point x="382" y="0" type="line"/>
      <point x="742" y="524" type="line"/>
      <point x="726" y="536" type="line"/>
      <point x="378" y="26" type="line"/>
      <point x="29" y="536" type="line"/>
      <point x="13" y="524" type="line"/>
    </contour>
  </outline>
</glyph>
<glyph name="w" format="2">
  <advance width="1152"/>
  <unicode hex="0077"/>
  <anchor x="576" y="530" name="top"/>
  <anchor x="576" y="0" name="bottom"/>
  <outline>
    <contour>
      <point x="295" y="0" type="line"/>
      <point x="309" y="0" type="line"/>
      <point x="576" y="507" type="line"/>
      <point x="843" y="0" type="line"/>
      <point x="857" y="0" type="line"/>
      <point x="1136" y="525" type="line"/>
      <point x="1118" y="535" type="line"/>
      <point x="852" y="30" type="line"/>
      <point x="586" y="530" type="line"/>
      <point x="566" y="530" type="line"/>
      <point x="304" y="29" type="line"/>
      <point x="34" y="535" type="line"/>
      <point x="16" y="525" type="line"/>
    </contour>
  </outline>
</glyph>
<glyph name="bar" format="2">
  <advance width="304"/>
  <unicode hex="007C"/>
  <outline>
    <contour>
      <point x="162" y="790" type="line"/>
      <point x="142" y="790" type="line"/>
      <point x="142" y="-210" type="line"/>
      <point x="162" y="-210" type="line"/>
    </contour>
  </outline>
</glyph>
<glyph name="exclamdown" format="2">
  <advance width="336"/>
  <unicode hex="00A1"/>
  <outline>
    <contour>
      <point x="178" y="266" type="line"/>
      <point x="158" y="266" type="line"/>
      <point x="158" y="-210" type="line"/>
      <point x="178" y="-210" type="line"/>
    </contour>
    <contour>
      <point x="185" y="513" type="curve" smooth="yes"/>
      <point x="185" y="529"/>
      <point x="184" y="530"/>
      <point x="168" y="530" type="curve" smooth="yes"/>
      <point x="153" y="530"/>
      <point x="151" y="529"/>
      <point x="151" y="513" type="curve" smooth="yes"/>
      <point x="151" y="497"/>
      <point x="152" y="496"/>
      <point x="168" y="496" type="curve" smooth="yes"/>
      <point x="184" y="496"/>
      <point x="185" y="497"/>
    </contour>
  </outline>
</glyph>
<glyph name="cent" format="2">
  <advance width="1034"/>
  <unicode hex="00A2"/>
  <outline>
    <contour>
      <point x="526" y="-10" type="curve" smooth="yes"/>
      <point x="639" y="-10"/>
      <point x="781" y="5"/>
      <point x="867" y="26" type="curve"/>
      <point x="863" y="46" type="line"/>
      <point x="779" y="26"/>
      <point x="635" y="10"/>
      <point x="529" y="10" type="curve" smooth="yes"/>
      <point x="313" y="10"/>
      <point x="187" y="99"/>
      <point x="187" y="251" type="curve" smooth="yes"/>
      <point x="187" y="418"/>
      <point x="331" y="520"/>
      <point x="567" y="520" type="curve" smooth="yes"/>
      <point x="669" y="520"/>
      <point x="737" y="511"/>
      <point x="849" y="483" type="curve"/>
      <point x="853" y="503" type="line"/>
      <point x="756" y="529"/>
      <point x="670" y="540"/>
      <point x="567" y="540" type="curve" smooth="yes"/>
      <point x="319" y="540"/>
      <point x="167" y="430"/>
      <point x="167" y="251" type="curve" smooth="yes"/>
      <point x="167" y="84"/>
      <point x="296" y="-10"/>
    </contour>
    <contour>
      <point x="524" y="-105" type="line"/>
      <point x="544" y="-105" type="line"/>
      <point x="544" y="-4" type="line"/>
      <point x="524" y="-5" type="line"/>
    </contour>
    <contour>
      <point x="524" y="534" type="line"/>
      <point x="544" y="535" type="line"/>
      <point x="544" y="635" type="line"/>
      <point x="524" y="635" type="line"/>
    </contour>
  </outline>
</glyph>
<glyph name="degree" format="2">
  <advance width="268"/>
  <unicode hex="00B0"/>
  <outline>
    <contour>
      <point x="133" y="520" type="curve" smooth="yes"/>
      <point x="190" y="520"/>
      <point x="238" y="566"/>
      <point x="238" y="623" type="curve" smooth="yes"/>
      <point x="238" y="680"/>
      <point x="190" y="728"/>
      <point x="133" y="728" type="curve" smooth="yes"/>
      <point x="76" y="728"/>
      <point x="30" y="680"/>
      <point x="30" y="623" type="curve" smooth="yes"/>
      <point x="30" y="566"/>
      <point x="76" y="520"/>
    </contour>
    <contour>
      <point x="133" y="540" type="curve" smooth="yes"/>
      <point x="87" y="540"/>
      <point x="50" y="577"/>
      <point x="50" y="623" type="curve" smooth="yes"/>
      <point x="50" y="669"/>
      <point x="87" y="708"/>
      <point x="133" y="708" type="curve" smooth="yes"/>
      <point x="179" y="708"/>
      <point x="218" y="669"/>
      <point x="218" y="623" type="curve" smooth="yes"/>
      <point x="218" y="577"/>
      <point x="179" y="540"/>
    </contour>
  </outline>
</glyph>
<glyph name="plusminus" format="2">
  <advance width="560"/>
  <unicode hex="00B1"/>
  <outline>
    <contour>
      <point x="63" y="72" type="line"/>
      <point x="497" y="72" type="line"/>
      <point x="497" y="92" type="line"/>
      <point x="290" y="92" type="line"/>
      <point x="290" y="298" type="line"/>
      <point x="497" y="298" type="line"/>
      <point x="497" y="318" type="line"/>
      <point x="290" y="318" type="line"/>
      <point x="290" y="525" type="line"/>
      <point x="270" y="525" type="line"/>
      <point x="270" y="318" type="line"/>
      <point x="63" y="318" type="line"/>
      <point x="63" y="298" type="line"/>
      <point x="270" y="298" type="line"/>
      <point x="270" y="92" type="line"/>
      <point x="63" y="92" type="line"/>
    </contour>
  </outline>
</glyph>
<glyph name="uni00B3" format="2">
  <advance width="605"/>
  <unicode hex="00B3"/>
  <outline>
    <contour>
      <point x="24" y="413" type="line"/>
      <point x="98" y="376"/>
      <point x="176" y="360"/>
      <point x="283" y="360" type="curve" smooth="yes"/>
      <point x="454" y="360"/>
      <point x="556" y="407"/>
      <point x="556" y="485" type="curve" smooth="yes"/>
      <point x="556" y="541"/>
      <point x="497" y="575"/>
      <point x="395" y="577" type="curve"/>
      <point x="469" y="583"/>
      <point x="513" y="617"/>
      <point x="513" y="668" type="curve" smooth="yes"/>
      <point x="513" y="733"/>
      <point x="426" y="772"/>
      <point x="279" y="772" type="curve" smooth="yes"/>
      <point x="175" y="772"/>
      <point x="104" y="756"/>
      <point x="67" y="748" type="curve"/>
      <point x="70" y="730" type="line"/>
      <point x="118" y="739"/>
      <point x="177" y="754"/>
      <point x="278" y="754" type="curve" smooth="yes"/>
      <point x="413" y="754"/>
      <point x="493" y="721"/>
      <point x="493" y="665" type="curve" smooth="yes"/>
      <point x="493" y="612"/>
      <point x="432" y="583"/>
      <point x="321" y="583" type="curve" smooth="yes"/>
      <point x="172" y="583" type="line"/>
      <point x="172" y="568" type="line"/>
      <point x="320" y="568" type="line" smooth="yes"/>
      <point x="465" y="568"/>
      <point x="536" y="545"/>
      <point x="536" y="485" type="curve" smooth="yes"/>
      <point x="536" y="417"/>
      <point x="441" y="376"/>
      <point x="283" y="376" type="curve" smooth="yes"/>
      <point x="178" y="376"/>
      <point x="100" y="392"/>
      <point x="30" y="429" type="curve"/>
    </contour>
  </outline>
</glyph>
<glyph name="paragraph" format="2">
  <advance width="783"/>
  <unicode hex="00B6"/>
  <outline>
    <contour>
      <point x="634" y="-210" type="line"/>
      <point x="654" y="-210" type="line"/>
      <point x="654" y="740" type="line"/>
      <point x="634" y="740" type="line"/>
    </contour>
    <contour>
      <point x="342" y="206" type="line"/>
      <point x="166" y="218"/>
      <point x="85" y="306"/>
      <point x="85" y="469" type="curve" smooth="yes"/>
      <point x="85" y="641"/>
      <point x="190" y="717"/>
      <point x="439" y="720" type="curve"/>
      <point x="439" y="-210" type="line"/>
      <point x="459" y="-210" type="line"/>
      <point x="459" y="740" type="line"/>
      <point x="446" y="740" type="line" smooth="yes"/>
      <point x="178" y="740"/>
      <point x="65" y="654"/>
      <point x="65" y="469" type="curve" smooth="yes"/>
      <point x="65" y="294"/>
      <point x="152" y="200"/>
      <point x="340" y="186" type="curve"/>
    </contour>
  </outline>
</glyph>
<glyph name="periodcentered" format="2">
  <advance width="221"/>
  <unicode hex="00B7"/>
  <outline>
    <contour>
      <point x="94" y="287" type="curve" smooth="yes"/>
      <point x="94" y="271"/>
      <point x="96" y="270"/>
      <point x="111" y="270" type="curve" smooth="yes"/>
      <point x="127" y="270"/>
      <point x="128" y="271"/>
      <point x="128" y="287" type="curve" smooth="yes"/>
      <point x="128" y="303"/>
      <point x="127" y="304"/>
      <point x="111" y="304" type="curve" smooth="yes"/>
      <point x="95" y="304"/>
      <point x="94" y="303"/>
    </contour>
  </outline>
</glyph>
<glyph name="ordmasculine" format="2">
  <advance width="558"/>
  <unicode hex="00BA"/>
  <outline>
    <contour>
      <point x="91" y="276" type="line"/>
      <point x="488" y="276" type="line"/>
      <point x="488" y="292" type="line"/>
      <point x="91" y="292" type="line"/>
    </contour>
    <component base="o.superior" xOffset="8"/>
  </outline>
</glyph>
<glyph name="questiondown" format="2">
  <advance width="687"/>
  <unicode hex="00BF"/>
  <outline>
    <contour>
      <point x="367" y="269" type="line"/>
      <point x="347" y="269" type="line"/>
      <point x="347" y="203" type="line"/>
      <point x="143" y="161"/>
      <point x="40" y="102"/>
      <point x="40" y="-15" type="curve" smooth="yes"/>
      <point x="40" y="-176"/>
      <point x="195" y="-220"/>
      <point x="323" y="-220" type="curve" smooth="yes"/>
      <point x="435" y="-220"/>
      <point x="559" y="-196"/>
      <point x="653" y="-140" type="curve"/>
      <point x="643" y="-122" type="line"/>
      <point x="551" y="-176"/>
      <point x="431" y="-200"/>
      <point x="323" y="-200" type="curve" smooth="yes"/>
      <point x="205" y="-200"/>
      <point x="60" y="-160"/>
      <point x="60" y="-15" type="curve" smooth="yes"/>
      <point x="60" y="76"/>
      <point x="142" y="150"/>
      <point x="367" y="187" type="curve"/>
    </contour>
    <contour>
      <point x="367" y="513" type="curve" smooth="yes"/>
      <point x="367" y="529"/>
      <point x="365" y="530"/>
      <point x="350" y="530" type="curve" smooth="yes"/>
      <point x="334" y="530"/>
      <point x="333" y="529"/>
      <point x="333" y="513" type="curve" smooth="yes"/>
      <point x="333" y="497"/>
      <point x="334" y="496"/>
      <point x="350" y="496" type="curve" smooth="yes"/>
      <point x="366" y="496"/>
      <point x="367" y="497"/>
    </contour>
  </outline>
</glyph>
<glyph name="multiply" format="2">
  <advance width="560"/>
  <unicode hex="00D7"/>
  <outline>
    <contour>
      <point x="86" y="79" type="line"/>
      <point x="281" y="274" type="line"/>
      <point x="473" y="82" type="line"/>
      <point x="487" y="96" type="line"/>
      <point x="295" y="288" type="line"/>
      <point x="489" y="482" type="line"/>
      <point x="475" y="496" type="line"/>
      <point x="281" y="302" type="line"/>
      <point x="85" y="498" type="line"/>
      <point x="71" y="484" type="line"/>
      <point x="267" y="288" type="line"/>
      <point x="72" y="93" type="line"/>
    </contour>
  </outline>
</glyph>
<glyph name="Oslash" format="2">
  <advance width="1257"/>
  <unicode hex="00D8"/>
  <anchor x="627" y="700" name="top"/>
  <outline>
    <contour>
      <point x="128" y="-10" type="line"/>
      <point x="259" y="81" type="line"/>
      <point x="259" y="81" type="line"/>
      <point x="1021" y="610" type="line"/>
      <point x="1021" y="610" type="line"/>
      <point x="1165" y="710" type="line"/>
      <point x="1129" y="710" type="line"/>
      <point x="1004" y="623" type="line"/>
      <point x="1004" y="623" type="line"/>
      <point x="241" y="94" type="line"/>
      <point x="241" y="94" type="line"/>
      <point x="92" y="-10" type="line"/>
    </contour>
    <contour>
      <point x="627" y="10" type="curve" smooth="yes"/>
      <point x="401" y="10"/>
      <point x="112" y="76"/>
      <point x="112" y="350" type="curve" smooth="yes"/>
      <point x="112" y="636"/>
      <point x="401" y="690"/>
      <point x="627" y="690" type="curve" smooth="yes"/>
      <point x="854" y="690"/>
      <point x="1144" y="637"/>
      <point x="1144" y="350" type="curve" smooth="yes"/>
      <point x="1144" y="62"/>
      <point x="854" y="10"/>
    </contour>
    <contour>
      <point x="627" y="-10" type="curve" smooth="yes"/>
      <point x="872" y="-10"/>
      <point x="1165" y="48"/>
      <point x="1165" y="355" type="curve" smooth="yes"/>
      <point x="1165" y="652"/>
      <point x="860" y="710"/>
      <point x="627" y="710" type="curve" smooth="yes"/>
      <point x="390" y="710"/>
      <point x="92" y="648"/>
      <point x="92" y="350" type="curve" smooth="yes"/>
      <point x="92" y="65"/>
      <point x="390" y="-10"/>
    </contour>
  </outline>
</glyph>
<glyph name="germandbls" format="2">
  <advance width="924"/>
  <unicode hex="00DF"/>
  <outline>
    <contour>
      <point x="184" y="0" type="line"/>
      <point x="204" y="0" type="line"/>
      <point x="204" y="484" type="line" smooth="yes"/>
      <point x="204" y="644"/>
      <point x="307" y="730"/>
      <point x="521" y="730" type="curve" smooth="yes"/>
      <point x="697" y="730"/>
      <point x="750" y="710"/>
      <point x="750" y="635" type="curve" smooth="yes"/>
      <point x="750" y="579"/>
      <point x="700" y="556"/>
      <point x="566" y="535" type="curve" smooth="yes"/>
      <point x="423" y="513"/>
      <point x="368" y="481"/>
      <point x="368" y="402" type="curve" smooth="yes"/>
      <point x="368" y="317"/>
      <point x="441" y="278"/>
      <point x="648" y="256" type="curve" smooth="yes"/>
      <point x="845" y="235"/>
      <point x="898" y="205"/>
      <point x="898" y="131" type="curve" smooth="yes"/>
      <point x="898" y="56"/>
      <point x="790" y="9"/>
      <point x="646" y="9" type="curve" smooth="yes"/>
      <point x="549" y="9"/>
      <point x="416" y="30"/>
      <point x="314" y="62" type="curve"/>
      <point x="308" y="42" type="line"/>
      <point x="410" y="10"/>
      <point x="546" y="-11"/>
      <point x="646" y="-11" type="curve" smooth="yes"/>
      <point x="803" y="-11"/>
      <point x="918" y="43"/>
      <point x="918" y="131" type="curve" smooth="yes"/>
      <point x="918" y="217"/>
      <point x="854" y="256"/>
      <point x="658" y="276" type="curve" smooth="yes"/>
      <point x="459" y="296"/>
      <point x="388" y="329"/>
      <point x="388" y="402" type="curve" smooth="yes"/>
      <point x="388" y="467"/>
      <point x="442" y="496"/>
      <point x="563" y="515" type="curve" smooth="yes"/>
      <point x="712" y="538"/>
      <point x="770" y="566"/>
      <point x="770" y="636" type="curve" smooth="yes"/>
      <point x="770" y="720"/>
      <point x="699" y="750"/>
      <point x="523" y="750" type="curve" smooth="yes"/>
      <point x="297" y="750"/>
      <point x="187" y="661"/>
      <point x="184" y="493" type="curve" smooth="yes"/>
      <point x="184" y="484" type="line"/>
      <point x="45" y="479" type="line"/>
      <point x="45" y="464" type="line"/>
      <point x="184" y="464" type="line"/>
    </contour>
  </outline>
</glyph>
<glyph name="eth" format="2">
  <advance width="905"/>
  <unicode hex="00F0"/>
  <outline>
    <contour>
      <point x="815" y="404" type="curve"/>
      <point x="815" y="423" type="line"/>
      <point x="724" y="493"/>
      <point x="604" y="518"/>
      <point x="468" y="518" type="curve" smooth="yes"/>
      <point x="196" y="518"/>
      <point x="74" y="425"/>
      <point x="74" y="262" type="curve" smooth="yes"/>
      <point x="74" y="79"/>
      <point x="200" y="-10"/>
      <point x="434" y="-10" type="curve" smooth="yes"/>
      <point x="710" y="-10"/>
      <point x="835" y="102"/>
      <point x="835" y="350" type="curve" smooth="yes"/>
      <point x="835" y="580"/>
      <point x="674" y="710"/>
      <point x="390" y="710" type="curve" smooth="yes"/>
      <point x="292" y="710"/>
      <point x="215" y="701"/>
      <point x="107" y="677" type="curve"/>
      <point x="110" y="658" type="line"/>
      <point x="209" y="680"/>
      <point x="291" y="691"/>
      <point x="388" y="691" type="curve" smooth="yes"/>
      <point x="659" y="691"/>
      <point x="815" y="570"/>
      <point x="815" y="349" type="curve" smooth="yes"/>
      <point x="815" y="115"/>
      <point x="695" y="10"/>
      <point x="434" y="10" type="curve" smooth="yes"/>
      <point x="214" y="10"/>
      <point x="94" y="93"/>
      <point x="94" y="263" type="curve" smooth="yes"/>
      <point x="94" y="416"/>
      <point x="219" y="499"/>
      <point x="464" y="499" type="curve" smooth="yes"/>
      <point x="606" y="499"/>
      <point x="711" y="474"/>
    </contour>
    <contour>
      <point x="226" y="550" type="line"/>
      <point x="616" y="660" type="line"/>
      <point x="617" y="663" type="line"/>
      <point x="817" y="720" type="line"/>
      <point x="753" y="720" type="line"/>
      <point x="586" y="672" type="line"/>
      <point x="591" y="671" type="line"/>
      <point x="162" y="550" type="line"/>
    </contour>
  </outline>
</glyph>
<glyph name="oslash" format="2">
  <advance width="914"/>
  <unicode hex="00F8"/>
  <anchor x="457" y="530" name="top"/>
  <outline>
    <contour>
      <point x="457" y="-10" type="curve" smooth="yes"/>
      <point x="191" y="-10"/>
      <point x="74" y="84"/>
      <point x="74" y="267" type="curve" smooth="yes"/>
      <point x="74" y="437"/>
      <point x="174" y="540"/>
      <point x="457" y="540" type="curve" smooth="yes"/>
      <point x="740" y="540"/>
      <point x="840" y="437"/>
      <point x="840" y="267" type="curve" smooth="yes"/>
      <point x="840" y="84"/>
      <point x="723" y="-10"/>
    </contour>
    <contour>
      <point x="457" y="10" type="curve" smooth="yes"/>
      <point x="714" y="10"/>
      <point x="820" y="103"/>
      <point x="820" y="267" type="curve" smooth="yes"/>
      <point x="820" y="421"/>
      <point x="731" y="520"/>
      <point x="457" y="520" type="curve" smooth="yes"/>
      <point x="183" y="520"/>
      <point x="94" y="421"/>
      <point x="94" y="267" type="curve" smooth="yes"/>
      <point x="94" y="103"/>
      <point x="200" y="10"/>
    </contour>
    <contour>
      <point x="74" y="-10" type="line"/>
      <point x="178" y="68" type="line"/>
      <point x="178" y="68" type="line"/>
      <point x="723" y="477" type="line"/>
      <point x="723" y="477" type="line"/>
      <point x="807" y="540" type="line"/>
      <point x="840" y="540" type="line"/>
      <point x="739" y="464" type="line"/>
      <point x="739" y="464" type="line"/>
      <point x="191" y="53" type="line"/>
      <point x="191" y="53" type="line"/>
      <point x="107" y="-10" type="line"/>
    </contour>
  </outline>
</glyph>
<glyph name="thorn" format="2">
  <advance width="861"/>
  <unicode hex="00FE"/>
  <outline>
    <contour>
      <point x="124" y="-210" type="line"/>
      <point x="144" y="-210" type="line"/>
      <point x="144" y="16" type="line"/>
      <point x="228" y="-1"/>
      <point x="319" y="-10"/>
      <point x="396" y="-10" type="curve" smooth="yes"/>
      <point x="665" y="-10"/>
      <point x="787" y="76"/>
      <point x="787" y="265" type="curve" smooth="yes"/>
      <point x="787" y="442"/>
      <point x="651" y="540"/>
      <point x="403" y="540" type="curve" smooth="yes"/>
      <point x="321" y="540"/>
      <point x="235" y="531"/>
      <point x="144" y="514" type="curve"/>
      <point x="144" y="740" type="line"/>
      <point x="124" y="740" type="line"/>
    </contour>
    <contour>
      <point x="396" y="9" type="curve" smooth="yes"/>
      <point x="328" y="9"/>
      <point x="243" y="18"/>
      <point x="144" y="37" type="curve"/>
      <point x="144" y="493" type="line"/>
      <point x="232" y="511"/>
      <point x="324" y="521"/>
      <point x="396" y="521" type="curve" smooth="yes"/>
      <point x="641" y="521"/>
      <point x="767" y="434"/>
      <point x="767" y="265" type="curve" smooth="yes"/>
      <point x="767" y="87"/>
      <point x="653" y="9"/>
    </contour>
  </outline>
</glyph>
<glyph name="dcroat" format="2">
  <advance width="861"/>
  <unicode hex="0111"/>
  <outline>
    <contour>
      <point x="440" y="618" type="line"/>
      <point x="877" y="618" type="line"/>
      <point x="877" y="636" type="line"/>
      <point x="440" y="636" type="line"/>
    </contour>
    <component base="d"/>
  </outline>
</glyph>
<glyph name="Hbar" format="2">
  <advance width="1189"/>
  <unicode hex="0126"/>
  <outline>
    <contour>
      <point x="42" y="500" type="line"/>
      <point x="142" y="500" type="line"/>
      <point x="142" y="0" type="line"/>
      <point x="162" y="0" type="line"/>
      <point x="162" y="290" type="line"/>
      <point x="1027" y="290" type="line"/>
      <point x="1027" y="0" type="line"/>
      <point x="1047" y="0" type="line"/>
      <point x="1047" y="500" type="line"/>
      <point x="1147" y="500" type="line"/>
      <point x="1147" y="520" type="line"/>
      <point x="1047" y="520" type="line"/>
      <point x="1047" y="700" type="line"/>
      <point x="1027" y="700" type="line"/>
      <point x="1027" y="520" type="line"/>
      <point x="162" y="520" type="line"/>
      <point x="162" y="700" type="line"/>
      <point x="142" y="700" type="line"/>
      <point x="142" y="520" type="line"/>
      <point x="42" y="520" type="line"/>
    </contour>
    <contour>
      <point x="162" y="310" type="line"/>
      <point x="162" y="500" type="line"/>
      <point x="1027" y="500" type="line"/>
      <point x="1027" y="310" type="line"/>
    </contour>
  </outline>
</glyph>
<glyph name="hbar" format="2">
  <advance width="893"/>
  <unicode hex="0127"/>
  <outline>
    <contour>
      <point x="-16" y="618" type="line"/>
      <point x="481" y="618" type="line"/>
      <point x="481" y="636" type="line"/>
      <point x="-16" y="636" type="line"/>
    </contour>
    <component base="h"/>
  </outline>
</glyph>
<glyph name="Idotaccent" format="2">
  <advance width="304"/>
  <unicode hex="0130"/>
  <outline>
    <contour>
      <point x="152" y="837" type="curve" smooth="yes"/>
      <point x="168" y="837"/>
      <point x="169" y="838"/>
      <point x="169" y="854" type="curve" smooth="yes"/>
      <point x="169" y="870"/>
      <point x="168" y="871"/>
      <point x="152" y="871" type="curve" smooth="yes"/>
      <point x="136" y="871"/>
      <point x="135" y="870"/>
      <point x="135" y="854" type="curve" smooth="yes"/>
      <point x="135" y="838"/>
      <point x="137" y="837"/>
    </contour>
    <component base="I"/>
  </outline>
</glyph>
<glyph name="kgreenlandic" format="2">
  <advance width="801"/>
  <unicode hex="0138"/>
  <anchor x="401" y="530" name="top"/>
  <anchor x="401" y="0" name="bottom"/>
  <outline>
    <contour>
      <point x="771" y="-10" type="curve" smooth="yes"/>
      <point x="775" y="-10"/>
      <point x="782" y="-10"/>
      <point x="787" y="-9" type="curve"/>
      <point x="783" y="11" type="line"/>
      <point x="778" y="10"/>
      <point x="773" y="10"/>
      <point x="771" y="10" type="curve" smooth="yes"/>
      <point x="723" y="10"/>
      <point x="647" y="52"/>
      <point x="463" y="175" type="curve" smooth="yes"/>
      <point x="144" y="389" type="line"/>
      <point x="144" y="530" type="line"/>
      <point x="124" y="530" type="line"/>
      <point x="124" y="0" type="line"/>
      <point x="144" y="0" type="line"/>
      <point x="144" y="365" type="line"/>
      <point x="464" y="150" type="line" smooth="yes"/>
      <point x="688" y="0"/>
      <point x="726" y="-10"/>
    </contour>
    <contour>
      <point x="307" y="264" type="line"/>
      <point x="441" y="320"/>
      <point x="638" y="397"/>
      <point x="725" y="528" type="curve"/>
      <point x="709" y="540" type="line"/>
      <point x="625" y="415"/>
      <point x="435" y="336"/>
      <point x="287" y="277" type="curve"/>
    </contour>
  </outline>
</glyph>
<glyph name="Eng" format="2">
  <advance width="1189"/>
  <unicode hex="014A"/>
  <outline>
    <contour>
      <point x="142" y="0" type="line"/>
      <point x="162" y="0" type="line"/>
      <point x="162" y="684" type="line"/>
      <point x="1027" y="-8" type="line"/>
      <point x="1027" y="-13" type="line" smooth="yes"/>
      <point x="1021" y="-151"/>
      <point x="899" y="-200"/>
      <point x="745" y="-200" type="curve" smooth="yes"/>
      <point x="667" y="-200"/>
      <point x="584" y="-187"/>
      <point x="521" y="-174" type="curve"/>
      <point x="516" y="-194" type="line"/>
      <point x="579" y="-207"/>
      <point x="664" y="-220"/>
      <point x="745" y="-220" type="curve" smooth="yes"/>
      <point x="913" y="-220"/>
      <point x="1047" y="-164"/>
      <point x="1047" y="-10" type="curve" smooth="yes"/>
      <point x="1047" y="700" type="line"/>
      <point x="1027" y="700" type="line"/>
      <point x="1027" y="16" type="line"/>
      <point x="160" y="710" type="line"/>
      <point x="142" y="710" type="line"/>
    </contour>
  </outline>
</glyph>
<glyph name="eng" format="2">
  <advance width="893"/>
  <unicode hex="014B"/>
  <outline>
    <contour>
      <point x="769" y="4" type="curve"/>
      <point x="769" y="333" type="line" smooth="yes"/>
      <point x="769" y="463"/>
      <point x="690" y="540"/>
      <point x="528" y="540" type="curve" smooth="yes"/>
      <point x="378" y="540"/>
      <point x="277" y="494"/>
      <point x="144" y="432" type="curve"/>
      <point x="144" y="530" type="line"/>
      <point x="124" y="530" type="line"/>
      <point x="124" y="0" type="line"/>
      <point x="144" y="0" type="line"/>
      <point x="144" y="411" type="line"/>
      <point x="284" y="476"/>
      <point x="379" y="520"/>
      <point x="528" y="520" type="curve" smooth="yes"/>
      <point x="681" y="520"/>
      <point x="749" y="446"/>
      <point x="749" y="333" type="curve" smooth="yes"/>
      <point x="749" y="0" type="line" smooth="yes"/>
      <point x="749" y="-83"/>
      <point x="721" y="-141"/>
      <point x="669" y="-173" type="curve" smooth="yes"/>
      <point x="659" y="-179"/>
      <point x="649" y="-184"/>
      <point x="638" y="-188" type="curve"/>
      <point x="648" y="-206" type="line"/>
      <point x="660" y="-202"/>
      <point x="672" y="-196"/>
      <point x="682" y="-190" type="curve" smooth="yes"/>
      <point x="739" y="-155"/>
      <point x="769" y="-90"/>
    </contour>
  </outline>
</glyph>
<glyph name="OE" format="2">
  <advance width="1802"/>
  <unicode hex="0152"/>
  <outline>
    <contour>
      <point x="1749" y="0" type="line"/>
      <point x="1749" y="20" type="line"/>
      <point x="1010" y="20" type="line"/>
      <point x="1010" y="373" type="line"/>
      <point x="1688" y="373" type="line"/>
      <point x="1688" y="393" type="line"/>
      <point x="1010" y="393" type="line"/>
      <point x="1010" y="680" type="line"/>
      <point x="1720" y="680" type="line"/>
      <point x="1720" y="700" type="line"/>
      <point x="1010" y="700" type="line"/>
      <point x="862" y="704"/>
      <point x="713" y="710"/>
      <point x="619" y="710" type="curve" smooth="yes"/>
      <point x="350" y="710"/>
      <point x="92" y="628"/>
      <point x="92" y="356" type="curve" smooth="yes"/>
      <point x="92" y="25"/>
      <point x="399" y="-10"/>
      <point x="650" y="-10" type="curve" smooth="yes"/>
      <point x="767" y="-10"/>
      <point x="875" y="-4"/>
      <point x="1010" y="0" type="curve"/>
    </contour>
    <contour>
      <point x="990" y="20" type="line"/>
      <point x="920" y="18"/>
      <point x="777" y="10"/>
      <point x="659" y="10" type="curve" smooth="yes"/>
      <point x="405" y="10"/>
      <point x="113" y="47"/>
      <point x="113" y="355" type="curve" smooth="yes"/>
      <point x="113" y="637"/>
      <point x="409" y="690"/>
      <point x="629" y="690" type="curve" smooth="yes"/>
      <point x="678" y="690"/>
      <point x="958" y="680"/>
      <point x="990" y="680" type="curve"/>
    </contour>
  </outline>
</glyph>
<glyph name="oe" format="2">
  <advance width="1602"/>
  <unicode hex="0153"/>
  <outline>
    <contour>
      <point x="74" y="267" type="curve" smooth="yes"/>
      <point x="74" y="84"/>
      <point x="191" y="-10"/>
      <point x="457" y="-10" type="curve" smooth="yes"/>
      <point x="676" y="-10"/>
      <point x="794" y="54"/>
      <point x="829" y="179" type="curve"/>
      <point x="865" y="54"/>
      <point x="995" y="-10"/>
      <point x="1158" y="-10" type="curve" smooth="yes"/>
      <point x="1320" y="-10"/>
      <point x="1460" y="16"/>
      <point x="1530" y="32" type="curve"/>
      <point x="1526" y="52" type="line"/>
      <point x="1459" y="37"/>
      <point x="1314" y="10"/>
      <point x="1158" y="10" type="curve" smooth="yes"/>
      <point x="980" y="10"/>
      <point x="839" y="92"/>
      <point x="839" y="249" type="curve" smooth="yes"/>
      <point x="839" y="262"/>
      <point x="840" y="274"/>
      <point x="841" y="286" type="curve"/>
      <point x="1187" y="286"/>
      <point x="1473" y="305"/>
      <point x="1537" y="308" type="curve"/>
      <point x="1538" y="314"/>
      <point x="1538" y="320"/>
      <point x="1538" y="325" type="curve" smooth="yes"/>
      <point x="1538" y="471"/>
      <point x="1430" y="540"/>
      <point x="1221" y="540" type="curve" smooth="yes"/>
      <point x="1043" y="540"/>
      <point x="881" y="478"/>
      <point x="834" y="336" type="curve"/>
      <point x="807" y="464"/>
      <point x="699" y="540"/>
      <point x="457" y="540" type="curve" smooth="yes"/>
      <point x="174" y="540"/>
      <point x="74" y="437"/>
    </contour>
    <contour>
      <point x="94" y="267" type="curve" smooth="yes"/>
      <point x="94" y="421"/>
      <point x="183" y="520"/>
      <point x="457" y="520" type="curve" smooth="yes"/>
      <point x="731" y="520"/>
      <point x="820" y="421"/>
      <point x="820" y="267" type="curve" smooth="yes"/>
      <point x="820" y="103"/>
      <point x="714" y="10"/>
      <point x="457" y="10" type="curve" smooth="yes"/>
      <point x="200" y="10"/>
      <point x="94" y="103"/>
    </contour>
    <contour>
      <point x="845" y="306" type="curve"/>
      <point x="877" y="469"/>
      <point x="1072" y="520"/>
      <point x="1221" y="520" type="curve" smooth="yes"/>
      <point x="1425" y="520"/>
      <point x="1517" y="452"/>
      <point x="1517" y="326" type="curve"/>
      <point x="1469" y="323"/>
      <point x="1190" y="306"/>
    </contour>
  </outline>
</glyph>
<glyph name="tbar" format="2">
  <advance width="635"/>
  <unicode hex="0167"/>
  <outline>
    <contour>
      <point x="211" y="314" type="line"/>
      <point x="522" y="314" type="line"/>
      <point x="522" y="332" type="line"/>
      <point x="211" y="332" type="line"/>
      <point x="211" y="510" type="line"/>
      <point x="582" y="510" type="line"/>
      <point x="582" y="530" type="line"/>
      <point x="211" y="530" type="line"/>
      <point x="211" y="665" type="line"/>
      <point x="195" y="665" type="line"/>
      <point x="191" y="530" type="line"/>
      <point x="12" y="525" type="line"/>
      <point x="12" y="510" type="line"/>
      <point x="191" y="510" type="line"/>
      <point x="191" y="332" type="line"/>
      <point x="92" y="332" type="line"/>
      <point x="92" y="314" type="line"/>
      <point x="191" y="314" type="line"/>
      <point x="191" y="175" type="line" smooth="yes"/>
      <point x="191" y="41"/>
      <point x="266" y="-10"/>
      <point x="384" y="-10" type="curve" smooth="yes"/>
      <point x="444" y="-10"/>
      <point x="525" y="3"/>
      <point x="611" y="31" type="curve"/>
      <point x="605" y="50" type="line"/>
      <point x="540" y="27"/>
      <point x="467" y="10"/>
      <point x="388" y="10" type="curve" smooth="yes"/>
      <point x="265" y="10"/>
      <point x="211" y="64"/>
      <point x="211" y="175" type="curve" smooth="yes"/>
    </contour>
  </outline>
</glyph>
<glyph name="uni018F" format="2">
  <advance width="1117"/>
  <unicode hex="018F"/>
  <outline>
    <contour>
      <point x="97" y="637" type="line"/>
      <point x="187" y="658"/>
      <point x="377" y="692"/>
      <point x="581" y="692" type="curve" smooth="yes"/>
      <point x="818" y="692"/>
      <point x="1005" y="582"/>
      <point x="1005" y="370" type="curve" smooth="yes"/>
      <point x="1005" y="351"/>
      <point x="1003" y="333"/>
      <point x="1001" y="316" type="curve"/>
      <point x="717" y="315"/>
      <point x="402" y="305"/>
      <point x="82" y="287" type="curve"/>
      <point x="82" y="281"/>
      <point x="82" y="275"/>
      <point x="82" y="269" type="curve" smooth="yes"/>
      <point x="82" y="79"/>
      <point x="223" y="-9"/>
      <point x="497" y="-9" type="curve" smooth="yes"/>
      <point x="825" y="-9"/>
      <point x="1025" y="135"/>
      <point x="1025" y="370" type="curve" smooth="yes"/>
      <point x="1025" y="594"/>
      <point x="831" y="710"/>
      <point x="581" y="710" type="curve" smooth="yes"/>
      <point x="368" y="710"/>
      <point x="186" y="677"/>
      <point x="92" y="655" type="curve"/>
    </contour>
    <contour>
      <point x="998" y="297" type="curve"/>
      <point x="961" y="116"/>
      <point x="775" y="9"/>
      <point x="497" y="9" type="curve" smooth="yes"/>
      <point x="224" y="9"/>
      <point x="101" y="100"/>
      <point x="101" y="272" type="curve"/>
      <point x="309" y="285"/>
      <point x="733" y="297"/>
    </contour>
  </outline>
</glyph>
<glyph name="acutecomb" format="2">
  <unicode hex="0301"/>
  <anchor x="-356" y="730" name="top"/>
  <anchor x="-457" y="530" name="_top"/>
  <outline>
    <contour>
      <point x="-482" y="596" type="line"/>
      <point x="-454" y="596" type="line"/>
      <point x="-230" y="790" type="line"/>
      <point x="-260" y="790" type="line"/>
    </contour>
  </outline>
</glyph>
<glyph name="tildecomb" format="2">
  <unicode hex="0303"/>
  <anchor x="-457" y="695" name="top"/>
  <anchor x="-457" y="530" name="_top"/>
  <outline>
    <contour>
      <point x="-678" y="612" type="curve"/>
      <point x="-658" y="612" type="line"/>
      <point x="-659" y="622"/>
      <point x="-659" y="633"/>
      <point x="-659" y="641" type="curve" smooth="yes"/>
      <point x="-659" y="693"/>
      <point x="-634" y="717"/>
      <point x="-595" y="717" type="curve" smooth="yes"/>
      <point x="-505" y="717"/>
      <point x="-429" y="612"/>
      <point x="-321" y="612" type="curve" smooth="yes"/>
      <point x="-267" y="612"/>
      <point x="-235" y="651"/>
      <point x="-235" y="706" type="curve" smooth="yes"/>
      <point x="-235" y="714"/>
      <point x="-235" y="725"/>
      <point x="-236" y="735" type="curve"/>
      <point x="-256" y="735" type="line"/>
      <point x="-255" y="725"/>
      <point x="-255" y="714"/>
      <point x="-255" y="706" type="curve" smooth="yes"/>
      <point x="-255" y="655"/>
      <point x="-283" y="631"/>
      <point x="-321" y="631" type="curve" smooth="yes"/>
      <point x="-427" y="631"/>
      <point x="-494" y="735"/>
      <point x="-595" y="735" type="curve" smooth="yes"/>
      <point x="-644" y="735"/>
      <point x="-679" y="707"/>
      <point x="-679" y="641" type="curve" smooth="yes"/>
      <point x="-679" y="633"/>
      <point x="-679" y="622"/>
    </contour>
  </outline>
</glyph>
<glyph name="uni0304" format="2">
  <unicode hex="0304"/>
  <anchor x="-457" y="705" name="top"/>
  <anchor x="-457" y="530" name="_top"/>
  <outline>
    <contour>
      <point x="-652" y="685" type="line"/>
      <point x="-262" y="685" type="line"/>
      <point x="-262" y="705" type="line"/>
      <point x="-652" y="705" type="line"/>
    </contour>
  </outline>
</glyph>
<glyph name="uni0308" format="2">
  <unicode hex="0308"/>
  <anchor x="-457" y="662" name="top"/>
  <anchor x="-457" y="530" name="_top"/>
  <outline>
    <contour>
      <point x="-300" y="676" type="curve" smooth="yes"/>
      <point x="-287" y="676"/>
      <point x="-286" y="684"/>
      <point x="-286" y="694" type="curve" smooth="yes"/>
      <point x="-286" y="704"/>
      <point x="-287" y="712"/>
      <point x="-300" y="712" type="curve" smooth="yes"/>
      <point x="-313" y="712"/>
      <point x="-316" y="704"/>
      <point x="-316" y="694" type="curve" smooth="yes"/>
      <point x="-316" y="684"/>
      <point x="-313" y="676"/>
    </contour>
    <contour>
      <point x="-613" y="676" type="curve" smooth="yes"/>
      <point x="-600" y="676"/>
      <point x="-599" y="684"/>
      <point x="-599" y="694" type="curve" smooth="yes"/>
      <point x="-599" y="704"/>
      <point x="-600" y="712"/>
      <point x="-613" y="712" type="curve" smooth="yes"/>
      <point x="-626" y="712"/>
      <point x="-629" y="704"/>
      <point x="-629" y="694" type="curve" smooth="yes"/>
      <point x="-629" y="684"/>
      <point x="-626" y="676"/>
    </contour>
  </outline>
</glyph>
<glyph name="hookabovecomb" format="2">
  <unicode hex="0309"/>
  <anchor x="-448" y="794" name="top"/>
  <anchor x="-457" y="530" name="_top"/>
  <outline>
    <contour>
      <point x="-455" y="601" type="line"/>
      <point x="-380" y="628"/>
      <point x="-347" y="659"/>
      <point x="-347" y="711" type="curve" smooth="yes"/>
      <point x="-347" y="768"/>
      <point x="-391" y="794"/>
      <point x="-448" y="794" type="curve" smooth="yes"/>
      <point x="-494" y="794"/>
      <point x="-533" y="779"/>
      <point x="-569" y="745" type="curve"/>
      <point x="-557" y="731" type="line"/>
      <point x="-528" y="760"/>
      <point x="-493" y="777"/>
      <point x="-447" y="777" type="curve" smooth="yes"/>
      <point x="-405" y="777"/>
      <point x="-367" y="757"/>
      <point x="-367" y="711" type="curve" smooth="yes"/>
      <point x="-367" y="668"/>
      <point x="-392" y="641"/>
      <point x="-462" y="617" type="curve"/>
    </contour>
  </outline>
</glyph>
<glyph name="uni030F" format="2">
  <unicode hex="030F"/>
  <anchor x="-531" y="790" name="top"/>
  <anchor x="-457" y="530" name="_top"/>
  <outline>
    <contour>
      <point x="-542" y="596" type="line"/>
      <point x="-513" y="596" type="line"/>
      <point x="-735" y="790" type="line"/>
      <point x="-765" y="790" type="line"/>
    </contour>
    <contour>
      <point x="-325" y="596" type="line"/>
      <point x="-296" y="596" type="line"/>
      <point x="-518" y="790" type="line"/>
      <point x="-548" y="790" type="line"/>
    </contour>
  </outline>
</glyph>
<glyph name="uni0312" format="2">
  <unicode hex="0312"/>
  <anchor x="-457" y="530" name="_top"/>
  <outline>
    <contour>
      <point x="-446" y="595" type="line"/>
      <point x="-471" y="611"/>
      <point x="-485" y="642"/>
      <point x="-485" y="675" type="curve" smooth="yes"/>
      <point x="-485" y="710"/>
      <point x="-470" y="746"/>
      <point x="-409" y="790" type="curve"/>
      <point x="-439" y="790" type="line"/>
      <point x="-485" y="753"/>
      <point x="-505" y="720"/>
      <point x="-505" y="675" type="curve" smooth="yes"/>
      <point x="-505" y="637"/>
      <point x="-489" y="608"/>
      <point x="-471" y="595" type="curve"/>
    </contour>
  </outline>
</glyph>
<glyph name="uni0326" format="2">
  <unicode hex="0326"/>
  <anchor x="-457" y="0" name="_bottom"/>
  <outline>
    <contour>
      <point x="-491" y="-220" type="curve"/>
      <point x="-469" y="-220" type="line"/>
      <point x="-444" y="-187"/>
      <point x="-431" y="-152"/>
      <point x="-431" y="-122" type="curve" smooth="yes"/>
      <point x="-431" y="-103"/>
      <point x="-436" y="-87"/>
      <point x="-444" y="-73" type="curve"/>
      <point x="-470" y="-73" type="line"/>
      <point x="-458" y="-85"/>
      <point x="-451" y="-101"/>
      <point x="-451" y="-122" type="curve" smooth="yes"/>
      <point x="-451" y="-153"/>
      <point x="-466" y="-188"/>
    </contour>
  </outline>
</glyph>
<glyph name="uni0327" format="2">
  <unicode hex="0327"/>
  <anchor x="-457" y="0" name="_bottom"/>
  <anchor x="-440" y="-220" name="bottom"/>
  <outline>
    <contour>
      <point x="-598" y="-163" type="curve"/>
      <point x="-606" y="-181" type="line"/>
      <point x="-541" y="-208"/>
      <point x="-485" y="-220"/>
      <point x="-440" y="-220" type="curve" smooth="yes"/>
      <point x="-352" y="-220"/>
      <point x="-307" y="-181"/>
      <point x="-307" y="-116" type="curve" smooth="yes"/>
      <point x="-307" y="-63"/>
      <point x="-357" y="-25"/>
      <point x="-442" y="0" type="curve"/>
      <point x="-472" y="0" type="line"/>
      <point x="-395" y="-30"/>
      <point x="-327" y="-62"/>
      <point x="-327" y="-116" type="curve" smooth="yes"/>
      <point x="-327" y="-169"/>
      <point x="-366" y="-200"/>
      <point x="-440" y="-200" type="curve" smooth="yes"/>
      <point x="-483" y="-200"/>
      <point x="-536" y="-188"/>
    </contour>
  </outline>
</glyph>
<glyph name="uni0328" format="2">
  <unicode hex="0328"/>
  <anchor x="-387" y="0" name="_ogonek"/>
  <outline>
    <contour>
      <point x="-428" y="-220" type="curve" smooth="yes"/>
      <point x="-409" y="-220"/>
      <point x="-395" y="-218"/>
      <point x="-383" y="-214" type="curve"/>
      <point x="-383" y="-196" type="line"/>
      <point x="-395" y="-199"/>
      <point x="-408" y="-201"/>
      <point x="-425" y="-201" type="curve" smooth="yes"/>
      <point x="-467" y="-201"/>
      <point x="-510" y="-185"/>
      <point x="-510" y="-128" type="curve" smooth="yes"/>
      <point x="-510" y="-61"/>
      <point x="-445" y="-15"/>
      <point x="-387" y="0" type="curve"/>
      <point x="-394" y="12" type="line"/>
      <point x="-470" y="-5"/>
      <point x="-532" y="-62"/>
      <point x="-532" y="-130" type="curve" smooth="yes"/>
      <point x="-532" y="-200"/>
      <point x="-475" y="-220"/>
    </contour>
  </outline>
</glyph>
<glyph name="pi" format="2">
  <advance width="931"/>
  <unicode hex="03C0"/>
  <outline>
    <contour>
      <point x="814" y="-10" type="curve" smooth="yes"/>
      <point x="829" y="-10"/>
      <point x="844" y="-7"/>
      <point x="859" y="-1" type="curve"/>
      <point x="854" y="14" type="line"/>
      <point x="840" y="10"/>
      <point x="828" y="8"/>
      <point x="816" y="8" type="curve" smooth="yes"/>
      <point x="761" y="8"/>
      <point x="732" y="56"/>
      <point x="732" y="139" type="curve" smooth="yes"/>
      <point x="732" y="510" type="line"/>
      <point x="853" y="510" type="line"/>
      <point x="853" y="530" type="line"/>
      <point x="299" y="530" type="line" smooth="yes"/>
      <point x="252" y="530"/>
      <point x="146" y="525"/>
      <point x="78" y="493" type="curve"/>
      <point x="86" y="476" type="line"/>
      <point x="159" y="506"/>
      <point x="237" y="509"/>
      <point x="287" y="510" type="curve"/>
      <point x="271" y="375"/>
      <point x="171" y="105"/>
      <point x="145" y="0" type="curve"/>
      <point x="165" y="0" type="line"/>
      <point x="193" y="115"/>
      <point x="291" y="380"/>
      <point x="307" y="510" type="curve"/>
      <point x="712" y="510" type="line"/>
      <point x="712" y="118" type="line" smooth="yes"/>
      <point x="712" y="32"/>
      <point x="760" y="-10"/>
    </contour>
  </outline>
</glyph>
<glyph name="quoteright" format="2">
  <advance width="201"/>
  <unicode hex="2019"/>
  <outline>
    <contour>
      <point x="61" y="430" type="line"/>
      <point x="118" y="498"/>
      <point x="143" y="564"/>
      <point x="143" y="664" type="curve" smooth="yes"/>
      <point x="143" y="676"/>
      <point x="143" y="688"/>
      <point x="142" y="700" type="curve"/>
      <point x="123" y="700" type="line"/>
      <point x="124" y="688"/>
      <point x="124" y="676"/>
      <point x="124" y="664" type="curve" smooth="yes"/>
      <point x="124" y="564"/>
      <point x="97" y="498"/>
      <point x="40" y="430" type="curve"/>
    </contour>
  </outline>
</glyph>
<glyph name="dagger" format="2">
  <advance width="630"/>
  <unicode hex="2020"/>
  <outline>
    <contour>
      <point x="305" y="-210" type="line"/>
      <point x="325" y="-210" type="line"/>
      <point x="325" y="520" type="line"/>
      <point x="570" y="520" type="line"/>
      <point x="570" y="540" type="line"/>
      <point x="325" y="540" type="line"/>
      <point x="325" y="740" type="line"/>
      <point x="305" y="740" type="line"/>
      <point x="305" y="540" type="line"/>
      <point x="60" y="540" type="line"/>
      <point x="60" y="520" type="line"/>
      <point x="305" y="520" type="line"/>
    </contour>
  </outline>
</glyph>
<glyph name="minute" format="2">
  <advance width="186"/>
  <unicode hex="2032"/>
  <outline>
    <contour>
      <point x="46" y="429" type="line"/>
      <point x="57" y="429" type="line"/>
      <point x="141" y="700" type="line"/>
      <point x="119" y="700" type="line"/>
    </contour>
  </outline>
</glyph>
<glyph name="guilsinglleft" format="2">
  <advance width="400"/>
  <unicode hex="2039"/>
  <outline>
    <contour>
      <point x="45" y="262" type="line"/>
      <point x="343" y="8" type="line"/>
      <point x="355" y="24" type="line"/>
      <point x="64" y="272" type="line"/>
      <point x="355" y="520" type="line"/>
      <point x="343" y="536" type="line"/>
      <point x="45" y="282" type="line"/>
    </contour>
  </outline>
</glyph>
<glyph name="uni2074" format="2">
  <advance width="604"/>
  <unicode hex="2074"/>
  <outline>
    <contour>
      <point x="33" y="486" type="line"/>
      <point x="423" y="486" type="line"/>
      <point x="423" y="370" type="line"/>
      <point x="442" y="370" type="line"/>
      <point x="442" y="486" type="line"/>
      <point x="570" y="486" type="line"/>
      <point x="570" y="502" type="line"/>
      <point x="442" y="502" type="line"/>
      <point x="442" y="765" type="line"/>
      <point x="430" y="770" type="line"/>
      <point x="31" y="500" type="line"/>
    </contour>
    <contour>
      <point x="62" y="502" type="line"/>
      <point x="423" y="746" type="line"/>
      <point x="423" y="502" type="line"/>
    </contour>
  </outline>
</glyph>
<glyph name="uni2075" format="2">
  <advance width="618"/>
  <unicode hex="2075"/>
  <outline>
    <contour>
      <point x="43" y="412" type="line"/>
      <point x="110" y="379"/>
      <point x="187" y="360"/>
      <point x="299" y="360" type="curve" smooth="yes"/>
      <point x="442" y="360"/>
      <point x="567" y="397"/>
      <point x="567" y="483" type="curve" smooth="yes"/>
      <point x="567" y="557"/>
      <point x="507" y="599"/>
      <point x="339" y="599" type="curve" smooth="yes"/>
      <point x="94" y="599" type="line"/>
      <point x="123" y="743" type="line"/>
      <point x="525" y="743" type="line"/>
      <point x="525" y="760" type="line"/>
      <point x="109" y="760" type="line"/>
      <point x="74" y="589" type="line"/>
      <point x="80" y="582" type="line"/>
      <point x="325" y="582" type="line" smooth="yes"/>
      <point x="490" y="582"/>
      <point x="547" y="549"/>
      <point x="547" y="484" type="curve" smooth="yes"/>
      <point x="547" y="418"/>
      <point x="454" y="376"/>
      <point x="299" y="376" type="curve" smooth="yes"/>
      <point x="190" y="376"/>
      <point x="114" y="396"/>
      <point x="50" y="428" type="curve"/>
    </contour>
  </outline>
</glyph>
<glyph name="uni2077" format="2">
  <advance width="497"/>
  <unicode hex="2077"/>
  <outline>
    <contour>
      <point x="180" y="370" type="curve"/>
      <point x="199" y="370" type="line"/>
      <point x="199" y="465"/>
      <point x="253" y="516"/>
      <point x="344" y="607" type="curve" smooth="yes"/>
      <point x="483" y="746" type="line"/>
      <point x="483" y="760" type="line"/>
      <point x="4" y="760" type="line"/>
      <point x="4" y="744" type="line"/>
      <point x="457" y="744" type="line"/>
      <point x="341" y="629" type="line" smooth="yes"/>
      <point x="233" y="521"/>
      <point x="180" y="470"/>
    </contour>
  </outline>
</glyph>
<glyph name="uni207A" format="2">
  <advance width="400"/>
  <unicode hex="207A"/>
  <outline>
    <contour>
      <point x="191" y="406" type="line"/>
      <point x="208" y="406" type="line"/>
      <point x="208" y="523" type="line"/>
      <point x="325" y="523" type="line"/>
      <point x="325" y="540" type="line"/>
      <point x="208" y="540" type="line"/>
      <point x="208" y="657" type="line"/>
      <point x="191" y="657" type="line"/>
      <point x="191" y="540" type="line"/>
      <point x="75" y="540" type="line"/>
      <point x="75" y="523" type="line"/>
      <point x="191" y="523" type="line"/>
    </contour>
  </outline>
</glyph>
<glyph name="uni207B" format="2">
  <advance width="400"/>
  <unicode hex="207B"/>
  <outline>
    <contour>
      <point x="75" y="523" type="line"/>
      <point x="325" y="523" type="line"/>
      <point x="325" y="540" type="line"/>
      <point x="75" y="540" type="line"/>
    </contour>
  </outline>
</glyph>
<glyph name="uni207C" format="2">
  <advance width="500"/>
  <unicode hex="207C"/>
  <outline>
    <contour>
      <point x="375" y="483" type="line"/>
      <point x="125" y="483" type="line"/>
      <point x="125" y="466" type="line"/>
      <point x="375" y="466" type="line"/>
    </contour>
    <contour>
      <point x="375" y="599" type="line"/>
      <point x="125" y="599" type="line"/>
      <point x="125" y="582" type="line"/>
      <point x="375" y="582" type="line"/>
    </contour>
  </outline>
</glyph>
<glyph name="uni207D" format="2">
  <advance width="256"/>
  <unicode hex="207D"/>
  <outline>
    <contour>
      <point x="73" y="554" type="curve" smooth="yes"/>
      <point x="73" y="422"/>
      <point x="121" y="300"/>
      <point x="233" y="277" type="curve"/>
      <point x="233" y="295" type="line"/>
      <point x="136" y="315"/>
      <point x="91" y="430"/>
      <point x="91" y="554" type="curve" smooth="yes"/>
      <point x="91" y="679"/>
      <point x="136" y="793"/>
      <point x="233" y="813" type="curve"/>
      <point x="233" y="831" type="line"/>
      <point x="121" y="808"/>
      <point x="73" y="687"/>
    </contour>
  </outline>
</glyph>
<glyph name="n.superior" format="2">
  <advance width="549"/>
  <unicode hex="207F"/>
  <outline>
    <contour>
      <point x="93" y="370" type="line"/>
      <point x="112" y="370" type="line"/>
      <point x="112" y="599" type="line"/>
      <point x="188" y="635"/>
      <point x="239" y="659"/>
      <point x="319" y="659" type="curve" smooth="yes"/>
      <point x="399" y="659"/>
      <point x="437" y="616"/>
      <point x="437" y="555" type="curve" smooth="yes"/>
      <point x="437" y="370" type="line"/>
      <point x="456" y="370" type="line"/>
      <point x="456" y="558" type="line" smooth="yes"/>
      <point x="456" y="630"/>
      <point x="413" y="675"/>
      <point x="322" y="675" type="curve" smooth="yes"/>
      <point x="240" y="675"/>
      <point x="185" y="651"/>
      <point x="111" y="614" type="curve"/>
      <point x="111" y="670" type="line"/>
      <point x="93" y="670" type="line"/>
    </contour>
  </outline>
</glyph>
<glyph name="franc" format="2">
  <advance width="1034"/>
  <unicode hex="20A3"/>
  <outline>
    <contour>
      <point x="202" y="0" type="line"/>
      <point x="222" y="0" type="line"/>
      <point x="222" y="680" type="line"/>
      <point x="932" y="680" type="line"/>
      <point x="932" y="700" type="line"/>
      <point x="202" y="700" type="line"/>
    </contour>
    <contour>
      <point x="76" y="216" type="line"/>
      <point x="752" y="216" type="line"/>
      <point x="752" y="236" type="line"/>
      <point x="76" y="236" type="line"/>
    </contour>
    <contour>
      <point x="76" y="383" type="line"/>
      <point x="752" y="383" type="line"/>
      <point x="752" y="403" type="line"/>
      <point x="76" y="403" type="line"/>
    </contour>
  </outline>
</glyph>
<glyph name="lira" format="2">
  <advance width="1034"/>
  <unicode hex="20A4"/>
  <outline>
    <contour>
      <point x="105" y="0" type="line"/>
      <point x="970" y="0" type="line"/>
      <point x="970" y="20" type="line"/>
      <point x="137" y="20" type="line"/>
      <point x="262" y="105"/>
      <point x="313" y="158"/>
      <point x="313" y="228" type="curve" smooth="yes"/>
      <point x="313" y="340"/>
      <point x="205" y="377"/>
      <point x="205" y="487" type="curve" smooth="yes"/>
      <point x="205" y="614"/>
      <point x="337" y="690"/>
      <point x="555" y="690" type="curve" smooth="yes"/>
      <point x="648" y="690"/>
      <point x="819" y="671"/>
      <point x="923" y="648" type="curve"/>
      <point x="927" y="668" type="line"/>
      <point x="848" y="689"/>
      <point x="658" y="710"/>
      <point x="555" y="710" type="curve" smooth="yes"/>
      <point x="321" y="710"/>
      <point x="185" y="628"/>
      <point x="185" y="486" type="curve" smooth="yes"/>
      <point x="185" y="368"/>
      <point x="293" y="330"/>
      <point x="293" y="226" type="curve" smooth="yes"/>
      <point x="293" y="168"/>
      <point x="247" y="117"/>
      <point x="105" y="20" type="curve"/>
    </contour>
    <contour>
      <point x="105" y="426" type="line"/>
      <point x="770" y="426" type="line"/>
      <point x="770" y="446" type="line"/>
      <point x="105" y="446" type="line"/>
    </contour>
    <contour>
      <point x="105" y="276" type="line"/>
      <point x="770" y="276" type="line"/>
      <point x="770" y="296" type="line"/>
      <point x="105" y="296" type="line"/>
    </contour>
  </outline>
</glyph>
<glyph name="uni20A6" format="2">
  <advance width="1034"/>
  <unicode hex="20A6"/>
  <outline>
    <contour>
      <point x="165" y="0" type="line"/>
      <point x="185" y="0" type="line"/>
      <point x="185" y="679" type="line"/>
      <point x="852" y="0" type="line"/>
      <point x="870" y="0" type="line"/>
      <point x="870" y="700" type="line"/>
      <point x="850" y="700" type="line"/>
      <point x="850" y="31" type="line"/>
      <point x="183" y="710" type="line"/>
      <point x="165" y="710" type="line"/>
    </contour>
    <contour>
      <point x="49" y="345" type="line"/>
      <point x="172" y="345" type="line"/>
      <point x="172" y="365" type="line"/>
      <point x="49" y="365" type="line"/>
    </contour>
    <contour>
      <point x="863" y="345" type="line"/>
      <point x="986" y="345" type="line"/>
      <point x="986" y="365" type="line"/>
      <point x="863" y="365" type="line"/>
    </contour>
  </outline>
</glyph>
<glyph name="uni20A9" format="2">
  <advance width="1034"/>
  <unicode hex="20A9"/>
  <outline>
    <contour>
      <point x="267" y="0" type="line"/>
      <point x="282" y="0" type="line"/>
      <point x="517" y="635" type="line"/>
      <point x="752" y="0" type="line"/>
      <point x="767" y="0" type="line"/>
      <point x="997" y="696" type="line"/>
      <point x="978" y="701" type="line"/>
      <point x="760" y="38" type="line"/>
      <point x="527" y="662" type="line"/>
      <point x="506" y="662" type="line"/>
      <point x="276" y="37" type="line"/>
      <point x="57" y="702" type="line"/>
      <point x="37" y="696" type="line"/>
    </contour>
    <contour>
      <point x="12" y="335" type="line"/>
      <point x="166" y="335" type="line"/>
      <point x="162" y="355" type="line"/>
      <point x="12" y="355" type="line"/>
    </contour>
    <contour>
      <point x="868" y="335" type="line"/>
      <point x="1022" y="335" type="line"/>
      <point x="1022" y="355" type="line"/>
      <point x="878" y="355" type="line"/>
    </contour>
  </outline>
</glyph>
<glyph name="dong" format="2">
  <advance width="1034"/>
  <unicode hex="20AB"/>
  <outline>
    <contour>
      <point x="472" y="88" type="curve" smooth="yes"/>
      <point x="586" y="88"/>
      <point x="686" y="110"/>
      <point x="822" y="168" type="curve"/>
      <point x="829" y="98" type="line"/>
      <point x="842" y="98" type="line"/>
      <point x="842" y="740" type="line"/>
      <point x="822" y="740" type="line"/>
      <point x="822" y="512" type="line"/>
      <point x="738" y="529"/>
      <point x="647" y="540"/>
      <point x="570" y="540" type="curve" smooth="yes"/>
      <point x="298" y="540"/>
      <point x="159" y="453"/>
      <point x="159" y="285" type="curve" smooth="yes"/>
      <point x="159" y="166"/>
      <point x="278" y="88"/>
    </contour>
    <contour>
      <point x="161" y="0" type="line"/>
      <point x="940" y="0" type="line"/>
      <point x="940" y="20" type="line"/>
      <point x="161" y="20" type="line"/>
    </contour>
    <contour>
      <point x="472" y="108" type="curve" smooth="yes"/>
      <point x="292" y="108"/>
      <point x="179" y="178"/>
      <point x="179" y="285" type="curve" smooth="yes"/>
      <point x="179" y="442"/>
      <point x="310" y="521"/>
      <point x="570" y="521" type="curve" smooth="yes"/>
      <point x="638" y="521"/>
      <point x="723" y="512"/>
      <point x="822" y="493" type="curve"/>
      <point x="822" y="189" type="line"/>
      <point x="685" y="129"/>
      <point x="586" y="108"/>
    </contour>
    <contour>
      <point x="544" y="624" type="line"/>
      <point x="938" y="624" type="line"/>
      <point x="938" y="642" type="line"/>
      <point x="544" y="642" type="line"/>
    </contour>
  </outline>
</glyph>
<glyph name="Euro" format="2">
  <advance width="1034"/>
  <unicode hex="20AC"/>
  <outline>
    <contour>
      <point x="209" y="350" type="curve" smooth="yes"/>
      <point x="209" y="115"/>
      <point x="367" y="-10"/>
      <point x="723" y="-10" type="curve" smooth="yes"/>
      <point x="808" y="-10"/>
      <point x="880" y="-2"/>
      <point x="941" y="15" type="curve"/>
      <point x="934" y="33" type="line"/>
      <point x="878" y="17"/>
      <point x="812" y="10"/>
      <point x="723" y="10" type="curve" smooth="yes"/>
      <point x="380" y="10"/>
      <point x="229" y="128"/>
      <point x="229" y="350" type="curve" smooth="yes"/>
      <point x="229" y="572"/>
      <point x="390" y="690"/>
      <point x="713" y="690" type="curve" smooth="yes"/>
      <point x="797" y="690"/>
      <point x="870" y="681"/>
      <point x="931" y="664" type="curve"/>
      <point x="935" y="683" type="line"/>
      <point x="871" y="701"/>
      <point x="797" y="710"/>
      <point x="713" y="710" type="curve" smooth="yes"/>
      <point x="377" y="710"/>
      <point x="209" y="585"/>
    </contour>
    <contour>
      <point x="738" y="435" type="line"/>
      <point x="738" y="455" type="line"/>
      <point x="90" y="455" type="line"/>
      <point x="90" y="435" type="line"/>
    </contour>
    <contour>
      <point x="738" y="245" type="line"/>
      <point x="738" y="265" type="line"/>
      <point x="90" y="265" type="line"/>
      <point x="90" y="245" type="line"/>
    </contour>
  </outline>
</glyph>
<glyph name="uni20B1" format="2">
  <advance width="1034"/>
  <unicode hex="20B1"/>
  <outline>
    <contour>
      <point x="162" y="0" type="line"/>
      <point x="182" y="0" type="line"/>
      <point x="182" y="250" type="line"/>
      <point x="335" y="246"/>
      <point x="416" y="245"/>
      <point x="535" y="245" type="curve" smooth="yes"/>
      <point x="752" y="245"/>
      <point x="870" y="296"/>
      <point x="870" y="483" type="curve" smooth="yes"/>
      <point x="870" y="650"/>
      <point x="774" y="710"/>
      <point x="510" y="710" type="curve" smooth="yes"/>
      <point x="449" y="710"/>
      <point x="372" y="708"/>
      <point x="162" y="700" type="curve"/>
    </contour>
    <contour>
      <point x="35" y="535" type="line"/>
      <point x="174" y="535" type="line"/>
      <point x="174" y="555" type="line"/>
      <point x="35" y="555" type="line"/>
    </contour>
    <contour>
      <point x="535" y="265" type="curve" smooth="yes"/>
      <point x="397" y="265"/>
      <point x="327" y="268"/>
      <point x="182" y="271" type="curve"/>
      <point x="182" y="680" type="line"/>
      <point x="376" y="688"/>
      <point x="448" y="690"/>
      <point x="510" y="690" type="curve" smooth="yes"/>
      <point x="759" y="690"/>
      <point x="850" y="634"/>
      <point x="850" y="483" type="curve" smooth="yes"/>
      <point x="850" y="322"/>
      <point x="758" y="265"/>
    </contour>
    <contour>
      <point x="859" y="535" type="line"/>
      <point x="1014" y="535" type="line"/>
      <point x="1014" y="555" type="line"/>
      <point x="859" y="555" type="line"/>
    </contour>
    <contour>
      <point x="35" y="404" type="line"/>
      <point x="174" y="404" type="line"/>
      <point x="174" y="424" type="line"/>
      <point x="35" y="424" type="line"/>
    </contour>
    <contour>
      <point x="859" y="404" type="line"/>
      <point x="1014" y="404" type="line"/>
      <point x="1014" y="424" type="line"/>
      <point x="859" y="424" type="line"/>
    </contour>
  </outline>
</glyph>
<glyph name="uni20B2" format="2">
  <advance width="1034"/>
  <unicode hex="20B2"/>
  <outline>
    <contour>
      <point x="55" y="337" type="curve" smooth="yes"/>
      <point x="55" y="118"/>
      <point x="235" y="-10"/>
      <point x="529" y="-10" type="curve" smooth="yes"/>
      <point x="710" y="-10"/>
      <point x="870" y="14"/>
      <point x="975" y="58" type="curve"/>
      <point x="975" y="310" type="line"/>
      <point x="560" y="310" type="line"/>
      <point x="560" y="290" type="line"/>
      <point x="955" y="290" type="line"/>
      <point x="955" y="70" type="line"/>
      <point x="839" y="29"/>
      <point x="703" y="10"/>
      <point x="529" y="10" type="curve" smooth="yes"/>
      <point x="248" y="10"/>
      <point x="75" y="131"/>
      <point x="75" y="337" type="curve" smooth="yes"/>
      <point x="75" y="550"/>
      <point x="257" y="690"/>
      <point x="544" y="690" type="curve" smooth="yes"/>
      <point x="685" y="690"/>
      <point x="805" y="673"/>
      <point x="922" y="636" type="curve"/>
      <point x="928" y="654" type="line"/>
      <point x="819" y="691"/>
      <point x="691" y="710"/>
      <point x="544" y="710" type="curve" smooth="yes"/>
      <point x="245" y="710"/>
      <point x="55" y="562"/>
    </contour>
    <contour>
      <point x="522" y="-105" type="line"/>
      <point x="542" y="-105" type="line"/>
      <point x="542" y="-5" type="line"/>
      <point x="522" y="-5" type="line"/>
    </contour>
    <contour>
      <point x="522" y="705" type="line"/>
      <point x="542" y="705" type="line"/>
      <point x="542" y="805" type="line"/>
      <point x="522" y="805" type="line"/>
    </contour>
  </outline>
</glyph>
<glyph name="uni20B9" format="2">
  <advance width="1034"/>
  <unicode hex="20B9"/>
  <outline>
    <contour>
      <point x="891" y="0" type="line"/>
      <point x="946" y="0" type="line"/>
      <point x="161" y="335" type="line"/>
      <point x="161" y="335" type="line"/>
      <point x="613" y="335" type="line"/>
      <point x="770" y="335"/>
      <point x="849" y="398"/>
      <point x="849" y="519" type="curve" smooth="yes"/>
      <point x="849" y="604"/>
      <point x="812" y="658"/>
      <point x="736" y="680" type="curve"/>
      <point x="964" y="680" type="line"/>
      <point x="964" y="700" type="line"/>
      <point x="109" y="700" type="line"/>
      <point x="109" y="680" type="line"/>
      <point x="601" y="680" type="line" smooth="yes"/>
      <point x="766" y="680"/>
      <point x="829" y="624"/>
      <point x="829" y="519" type="curve" smooth="yes"/>
      <point x="829" y="405"/>
      <point x="758" y="355"/>
      <point x="610" y="355" type="curve" smooth="yes"/>
      <point x="109" y="355" type="line"/>
      <point x="109" y="335" type="line"/>
    </contour>
    <contour>
      <point x="109" y="509" type="line"/>
      <point x="964" y="509" type="line"/>
      <point x="964" y="529" type="line"/>
      <point x="109" y="529" type="line"/>
    </contour>
  </outline>
</glyph>
<glyph name="uni20BA" format="2">
  <advance width="1034"/>
  <unicode hex="20BA"/>
  <outline>
    <contour>
      <point x="212" y="0" type="line"/>
      <point x="517" y="0" type="line" smooth="yes"/>
      <point x="780" y="0"/>
      <point x="924" y="139"/>
      <point x="924" y="393" type="curve"/>
      <point x="904" y="393" type="line"/>
      <point x="904" y="149"/>
      <point x="766" y="19"/>
      <point x="515" y="19" type="curve" smooth="yes"/>
      <point x="232" y="19" type="line"/>
      <point x="232" y="700" type="line"/>
      <point x="212" y="700" type="line"/>
    </contour>
    <contour>
      <point x="84" y="310" type="line"/>
      <point x="498" y="543" type="line"/>
      <point x="498" y="565" type="line"/>
      <point x="84" y="332" type="line"/>
    </contour>
    <contour>
      <point x="84" y="148" type="line"/>
      <point x="498" y="381" type="line"/>
      <point x="498" y="403" type="line"/>
      <point x="84" y="170" type="line"/>
    </contour>
  </outline>
</glyph>
<glyph name="uni2113" format="2">
  <advance width="575"/>
  <unicode hex="2113"/>
  <outline>
    <contour>
      <point x="373" y="-10" type="curve" smooth="yes"/>
      <point x="443" y="-10"/>
      <point x="492" y="5"/>
      <point x="544" y="44" type="curve"/>
      <point x="533" y="60" type="line"/>
      <point x="481" y="26"/>
      <point x="431" y="10"/>
      <point x="373" y="10" type="curve" smooth="yes"/>
      <point x="215" y="10"/>
      <point x="118" y="156"/>
      <point x="118" y="358" type="curve" smooth="yes"/>
      <point x="118" y="569"/>
      <point x="196" y="690"/>
      <point x="338" y="690" type="curve" smooth="yes"/>
      <point x="437" y="690"/>
      <point x="488" y="631"/>
      <point x="488" y="513" type="curve" smooth="yes"/>
      <point x="488" y="354"/>
      <point x="352" y="227"/>
      <point x="139" y="187" type="curve"/>
      <point x="146" y="168" type="line"/>
      <point x="368" y="209"/>
      <point x="508" y="343"/>
      <point x="508" y="513" type="curve" smooth="yes"/>
      <point x="508" y="641"/>
      <point x="448" y="710"/>
      <point x="338" y="710" type="curve" smooth="yes"/>
      <point x="185" y="710"/>
      <point x="98" y="577"/>
      <point x="98" y="365" type="curve" smooth="yes"/>
      <point x="98" y="139"/>
      <point x="201" y="-10"/>
    </contour>
    <contour>
      <point x="32" y="158" type="line"/>
      <point x="67" y="158"/>
      <point x="101" y="161"/>
      <point x="135" y="166" type="curve"/>
      <point x="128" y="185" type="line"/>
      <point x="98" y="180"/>
      <point x="65" y="178"/>
      <point x="32" y="178" type="curve"/>
    </contour>
  </outline>
</glyph>
<glyph name="uni2120" format="2">
  <advance width="1130"/>
  <unicode hex="2120"/>
  <outline>
    <contour>
      <point x="441" y="678" type="line"/>
      <point x="389" y="696"/>
      <point x="333" y="702"/>
      <point x="268" y="702" type="curve" smooth="yes"/>
      <point x="151" y="702"/>
      <point x="81" y="672"/>
      <point x="81" y="617" type="curve" smooth="yes"/>
      <point x="81" y="568"/>
      <point x="125" y="550"/>
      <point x="274" y="530" type="curve" smooth="yes"/>
      <point x="420" y="510"/>
      <point x="451" y="502"/>
      <point x="451" y="460" type="curve" smooth="yes"/>
      <point x="451" y="417"/>
      <point x="390" y="392"/>
      <point x="291" y="392" type="curve" smooth="yes"/>
      <point x="217" y="392"/>
      <point x="113" y="407"/>
      <point x="66" y="421" type="curve"/>
      <point x="60" y="402" type="line"/>
      <point x="110" y="388"/>
      <point x="216" y="374"/>
      <point x="291" y="374" type="curve" smooth="yes"/>
      <point x="396" y="374"/>
      <point x="470" y="401"/>
      <point x="470" y="461" type="curve" smooth="yes"/>
      <point x="470" y="512"/>
      <point x="429" y="528"/>
      <point x="290" y="546" type="curve" smooth="yes"/>
      <point x="148" y="564"/>
      <point x="100" y="581"/>
      <point x="100" y="617" type="curve" smooth="yes"/>
      <point x="100" y="657"/>
      <point x="161" y="684"/>
      <point x="270" y="684" type="curve" smooth="yes"/>
      <point x="330" y="684"/>
      <point x="387" y="677"/>
      <point x="434" y="661" type="curve"/>
    </contour>
    <contour>
      <point x="517" y="381" type="line"/>
      <point x="537" y="381" type="line"/>
      <point x="537" y="676" type="line"/>
      <point x="774" y="503" type="line"/>
      <point x="782" y="503" type="line"/>
      <point x="1020" y="675" type="line"/>
      <point x="1020" y="381" type="line"/>
      <point x="1040" y="381" type="line"/>
      <point x="1040" y="700" type="line"/>
      <point x="1022" y="700" type="line"/>
      <point x="778" y="524" type="line"/>
      <point x="535" y="700" type="line"/>
      <point x="517" y="700" type="line"/>
    </contour>
  </outline>
</glyph>
<glyph name="uni2206" format="2">
  <advance width="995"/>
  <unicode hex="2206"/>
  <outline>
    <contour>
      <point x="44" y="0" type="line"/>
      <point x="951" y="0" type="line"/>
      <point x="951" y="20" type="line"/>
      <point x="502" y="710" type="line"/>
      <point x="494" y="710" type="line"/>
      <point x="44" y="20" type="line"/>
    </contour>
    <contour>
      <point x="67" y="20" type="line"/>
      <point x="498" y="683" type="line"/>
      <point x="928" y="20" type="line"/>
    </contour>
  </outline>
</glyph>
<glyph name="product" format="2">
  <advance width="1205"/>
  <unicode hex="220F"/>
  <outline>
    <contour>
      <point x="150" y="-210" type="line"/>
      <point x="170" y="-210" type="line"/>
      <point x="170" y="682" type="line"/>
      <point x="1035" y="682" type="line"/>
      <point x="1035" y="-210" type="line"/>
      <point x="1055" y="-210" type="line"/>
      <point x="1055" y="700" type="line"/>
      <point x="150" y="700" type="line"/>
    </contour>
  </outline>
</glyph>
<glyph name="minus" format="2">
  <advance width="560"/>
  <unicode hex="2212"/>
  <outline>
    <contour>
      <point x="63" y="279" type="line"/>
      <point x="497" y="279" type="line"/>
      <point x="497" y="299" type="line"/>
      <point x="63" y="299" type="line"/>
    </contour>
  </outline>
</glyph>
<glyph name="radical" format="2">
  <advance width="1000"/>
  <unicode hex="221A"/>
  <outline>
    <contour>
      <point x="11" y="510" type="line"/>
      <point x="260" y="510" type="line"/>
      <point x="525" y="-10" type="line"/>
      <point x="535" y="-10" type="line"/>
      <point x="989" y="750" type="line"/>
      <point x="966" y="750" type="line"/>
      <point x="530" y="18" type="line"/>
      <point x="272" y="530" type="line"/>
      <point x="11" y="530" type="line"/>
    </contour>
  </outline>
</glyph>
<glyph name="integral" format="2">
  <advance width="594"/>
  <unicode hex="222B"/>
  <outline>
    <contour>
      <point x="67" y="-220" type="curve" smooth="yes"/>
      <point x="214" y="-220"/>
      <point x="307" y="-155"/>
      <point x="307" y="32" type="curve" smooth="yes"/>
      <point x="307" y="499" type="line" smooth="yes"/>
      <point x="307" y="666"/>
      <point x="385" y="731"/>
      <point x="531" y="731" type="curve" smooth="yes"/>
      <point x="561" y="731"/>
      <point x="599" y="727"/>
      <point x="629" y="720" type="curve"/>
      <point x="632" y="740" type="line"/>
      <point x="602" y="746"/>
      <point x="562" y="751"/>
      <point x="527" y="751" type="curve" smooth="yes"/>
      <point x="380" y="751"/>
      <point x="287" y="686"/>
      <point x="287" y="499" type="curve" smooth="yes"/>
      <point x="287" y="32" type="line" smooth="yes"/>
      <point x="287" y="-135"/>
      <point x="209" y="-200"/>
      <point x="63" y="-200" type="curve" smooth="yes"/>
      <point x="33" y="-200"/>
      <point x="-5" y="-196"/>
      <point x="-35" y="-189" type="curve"/>
      <point x="-38" y="-209" type="line"/>
      <point x="-8" y="-215"/>
      <point x="32" y="-220"/>
    </contour>
  </outline>
</glyph>
<glyph name="notequal" format="2">
  <advance width="560"/>
  <unicode hex="2260"/>
  <outline>
    <contour>
      <point x="497" y="404" type="line"/>
      <point x="357" y="404" type="line"/>
      <point x="397" y="473" type="line"/>
      <point x="379" y="483" type="line"/>
      <point x="333" y="404" type="line"/>
      <point x="63" y="404" type="line"/>
      <point x="63" y="384" type="line"/>
      <point x="322" y="384" type="line"/>
      <point x="214" y="197" type="line"/>
      <point x="63" y="197" type="line"/>
      <point x="63" y="177" type="line"/>
      <point x="203" y="177" type="line"/>
      <point x="163" y="107" type="line"/>
      <point x="181" y="97" type="line"/>
      <point x="227" y="177" type="line"/>
      <point x="497" y="177" type="line"/>
      <point x="497" y="197" type="line"/>
      <point x="238" y="197" type="line"/>
      <point x="346" y="384" type="line"/>
      <point x="497" y="384" type="line"/>
    </contour>
  </outline>
</glyph>
<glyph name="uni25B3" format="2">
  <advance width="694"/>
  <unicode hex="25B3"/>
  <outline>
    <contour>
      <point x="113" y="42" type="line"/>
      <point x="582" y="42" type="line"/>
      <point x="348" y="556" type="line"/>
    </contour>
    <contour>
      <point x="144" y="62" type="line"/>
      <point x="348" y="509" type="line"/>
      <point x="551" y="62" type="line"/>
    </contour>
  </outline>
</glyph>
<glyph name="uni25B7" format="2">
  <advance width="694"/>
  <unicode hex="25B7"/>
  <outline>
    <contour>
      <point x="120" y="65" type="line"/>
      <point x="634" y="299" type="line"/>
      <point x="120" y="534" type="line"/>
    </contour>
    <contour>
      <point x="140" y="96" type="line"/>
      <point x="140" y="503" type="line"/>
      <point x="587" y="299" type="line"/>
    </contour>
  </outline>
</glyph>
<glyph name="triagdn" format="2">
  <advance width="694"/>
  <unicode hex="25BC"/>
  <outline>
    <contour>
      <point x="348" y="42" type="line"/>
      <point x="582" y="556" type="line"/>
      <point x="113" y="556" type="line"/>
    </contour>
  </outline>
</glyph>
<glyph name="uni25C7" format="2">
  <advance width="694"/>
  <unicode hex="25C7"/>
  <outline>
    <contour>
      <point x="52" y="326" type="line"/>
      <point x="347" y="31" type="line"/>
      <point x="642" y="326" type="line"/>
      <point x="347" y="621" type="line"/>
    </contour>
    <contour>
      <point x="80" y="326" type="line"/>
      <point x="347" y="593" type="line"/>
      <point x="614" y="326" type="line"/>
      <point x="347" y="59" type="line"/>
    </contour>
  </outline>
</glyph>
<glyph name="lozenge" format="2">
  <advance width="500"/>
  <unicode hex="25CA"/>
  <outline>
    <contour>
      <point x="250" y="688" type="line"/>
      <point x="450" y="350" type="line"/>
      <point x="250" y="12" type="line"/>
      <point x="50" y="350" type="line"/>
    </contour>
    <contour>
      <point x="260" y="710" type="line"/>
      <point x="240" y="710" type="line"/>
      <point x="29" y="350" type="line"/>
      <point x="240" y="-10" type="line"/>
      <point x="260" y="-10" type="line"/>
      <point x="471" y="350" type="line"/>
    </contour>
  </outline>
</glyph>
<glyph name="uni2661" format="2">
  <advance width="800"/>
  <unicode hex="2661"/>
  <outline>
    <contour>
      <point x="395" y="0" type="curve"/>
      <point x="405" y="0" type="line"/>
      <point x="466" y="187"/>
      <point x="747" y="242"/>
      <point x="747" y="463" type="curve" smooth="yes"/>
      <point x="747" y="587"/>
      <point x="664" y="650"/>
      <point x="568" y="650" type="curve" smooth="yes"/>
      <point x="499" y="650"/>
      <point x="433" y="617"/>
      <point x="400" y="531" type="curve"/>
      <point x="367" y="617"/>
      <point x="301" y="650"/>
      <point x="232" y="650" type="curve" smooth="yes"/>
      <point x="136" y="650"/>
      <point x="53" y="587"/>
      <point x="53" y="463" type="curve" smooth="yes"/>
      <point x="53" y="242"/>
      <point x="334" y="187"/>
    </contour>
    <contour>
      <point x="400" y="39" type="curve"/>
      <point x="320" y="207"/>
      <point x="73" y="265"/>
      <point x="73" y="463" type="curve" smooth="yes"/>
      <point x="73" y="575"/>
      <point x="147" y="632"/>
      <point x="232" y="632" type="curve" smooth="yes"/>
      <point x="299" y="632"/>
      <point x="364" y="594"/>
      <point x="394" y="491" type="curve"/>
      <point x="406" y="491" type="line"/>
      <point x="436" y="594"/>
      <point x="501" y="632"/>
      <point x="568" y="632" type="curve" smooth="yes"/>
      <point x="653" y="632"/>
      <point x="727" y="575"/>
      <point x="727" y="463" type="curve" smooth="yes"/>
      <point x="727" y="265"/>
      <point x="480" y="207"/>
    </contour>
  </outline>
</glyph>
<glyph name="uni2782" format="2">
  <advance width="1114"/>
  <unicode hex="2782"/>
  <outline>
    <contour>
      <point x="280" y="210" type="line"/>
      <point x="355" y="173"/>
      <point x="434" y="157"/>
      <point x="560" y="157" type="curve" smooth="yes"/>
      <point x="711" y="157"/>
      <point x="813" y="204"/>
      <point x="813" y="283" type="curve" smooth="yes"/>
      <point x="813" y="333"/>
      <point x="762" y="367"/>
      <point x="675" y="374" type="curve"/>
      <point x="733" y="385"/>
      <point x="770" y="419"/>
      <point x="770" y="464" type="curve" smooth="yes"/>
      <point x="770" y="531"/>
      <point x="683" y="570"/>
      <point x="536" y="570" type="curve" smooth="yes"/>
      <point x="484" y="570"/>
      <point x="340" y="553"/>
      <point x="324" y="545" type="curve"/>
      <point x="327" y="523" type="line"/>
      <point x="356" y="532"/>
      <point x="487" y="548"/>
      <point x="535" y="548" type="curve" smooth="yes"/>
      <point x="668" y="548"/>
      <point x="747" y="516"/>
      <point x="747" y="462" type="curve" smooth="yes"/>
      <point x="747" y="412"/>
      <point x="688" y="382"/>
      <point x="578" y="382" type="curve" smooth="yes"/>
      <point x="428" y="382" type="line"/>
      <point x="428" y="363" type="line"/>
      <point x="539" y="363" type="line" smooth="yes"/>
      <point x="720" y="363"/>
      <point x="789" y="340"/>
      <point x="789" y="282" type="curve" smooth="yes"/>
      <point x="789" y="215"/>
      <point x="698" y="177"/>
      <point x="560" y="177" type="curve" smooth="yes"/>
      <point x="437" y="177"/>
      <point x="359" y="193"/>
      <point x="288" y="230" type="curve"/>
    </contour>
    <contour>
      <point x="73" y="350" type="curve" smooth="yes"/>
      <point x="73" y="69"/>
      <point x="302" y="-10"/>
      <point x="557" y="-10" type="curve" smooth="yes"/>
      <point x="812" y="-10"/>
      <point x="1041" y="69"/>
      <point x="1041" y="350" type="curve" smooth="yes"/>
      <point x="1041" y="631"/>
      <point x="812" y="710"/>
      <point x="557" y="710" type="curve" smooth="yes"/>
      <point x="302" y="710"/>
      <point x="73" y="631"/>
    </contour>
    <contour>
      <point x="93" y="350" type="curve" smooth="yes"/>
      <point x="93" y="615"/>
      <point x="312" y="690"/>
      <point x="557" y="690" type="curve" smooth="yes"/>
      <point x="802" y="690"/>
      <point x="1021" y="615"/>
      <point x="1021" y="350" type="curve" smooth="yes"/>
      <point x="1021" y="85"/>
      <point x="802" y="10"/>
      <point x="557" y="10" type="curve" smooth="yes"/>
      <point x="312" y="10"/>
      <point x="93" y="85"/>
    </contour>
  </outline>
</glyph>
<glyph name="uni2783" format="2">
  <advance width="1114"/>
  <unicode hex="2783"/>
  <outline>
    <contour>
      <point x="254" y="279" type="line"/>
      <point x="641" y="279" type="line"/>
      <point x="641" y="164" type="line"/>
      <point x="664" y="164" type="line"/>
      <point x="664" y="279" type="line"/>
      <point x="791" y="279" type="line"/>
      <point x="791" y="299" type="line"/>
      <point x="664" y="299" type="line"/>
      <point x="664" y="559" type="line"/>
      <point x="649" y="565" type="line"/>
      <point x="252" y="296" type="line"/>
    </contour>
    <contour>
      <point x="291" y="299" type="line"/>
      <point x="641" y="534" type="line"/>
      <point x="641" y="299" type="line"/>
    </contour>
    <contour>
      <point x="73" y="350" type="curve" smooth="yes"/>
      <point x="73" y="69"/>
      <point x="302" y="-10"/>
      <point x="557" y="-10" type="curve" smooth="yes"/>
      <point x="812" y="-10"/>
      <point x="1041" y="69"/>
      <point x="1041" y="350" type="curve" smooth="yes"/>
      <point x="1041" y="631"/>
      <point x="812" y="710"/>
      <point x="557" y="710" type="curve" smooth="yes"/>
      <point x="302" y="710"/>
      <point x="73" y="631"/>
    </contour>
    <contour>
      <point x="93" y="350" type="curve" smooth="yes"/>
      <point x="93" y="615"/>
      <point x="312" y="690"/>
      <point x="557" y="690" type="curve" smooth="yes"/>
      <point x="802" y="690"/>
      <point x="1021" y="615"/>
      <point x="1021" y="350" type="curve" smooth="yes"/>
      <point x="1021" y="85"/>
      <point x="802" y="10"/>
      <point x="557" y="10" type="curve" smooth="yes"/>
      <point x="312" y="10"/>
      <point x="93" y="85"/>
    </contour>
  </outline>
</glyph>
<glyph name="uni2786" format="2">
  <advance width="1114"/>
  <unicode hex="2786"/>
  <outline>
    <contour>
      <point x="499" y="164" type="curve"/>
      <point x="520" y="164" type="line"/>
      <point x="520" y="240"/>
      <point x="549" y="292"/>
      <point x="645" y="386" type="curve" smooth="yes"/>
      <point x="802" y="539" type="line"/>
      <point x="802" y="555" type="line"/>
      <point x="323" y="555" type="line"/>
      <point x="323" y="535" type="line"/>
      <point x="770" y="535" type="line"/>
      <point x="641" y="408" type="line" smooth="yes"/>
      <point x="530" y="300"/>
      <point x="499" y="247"/>
    </contour>
    <contour>
      <point x="557" y="-10" type="curve" smooth="yes"/>
      <point x="812" y="-10"/>
      <point x="1041" y="69"/>
      <point x="1041" y="350" type="curve" smooth="yes"/>
      <point x="1041" y="631"/>
      <point x="812" y="710"/>
      <point x="557" y="710" type="curve" smooth="yes"/>
      <point x="302" y="710"/>
      <point x="73" y="631"/>
      <point x="73" y="350" type="curve" smooth="yes"/>
      <point x="73" y="69"/>
      <point x="302" y="-10"/>
    </contour>
    <contour>
      <point x="557" y="690" type="curve" smooth="yes"/>
      <point x="802" y="690"/>
      <point x="1021" y="615"/>
      <point x="1021" y="350" type="curve" smooth="yes"/>
      <point x="1021" y="85"/>
      <point x="802" y="10"/>
      <point x="557" y="10" type="curve" smooth="yes"/>
      <point x="312" y="10"/>
      <point x="93" y="85"/>
      <point x="93" y="350" type="curve" smooth="yes"/>
      <point x="93" y="615"/>
      <point x="312" y="690"/>
    </contour>
  </outline>
</glyph>
<glyph name="uni2787" format="2">
  <advance width="1114"/>
  <unicode hex="2787"/>
  <outline>
    <contour>
      <point x="554" y="157" type="curve" smooth="yes"/>
      <point x="731" y="157"/>
      <point x="829" y="198"/>
      <point x="829" y="279" type="curve" smooth="yes"/>
      <point x="829" y="467"/>
      <point x="333" y="318"/>
      <point x="333" y="467" type="curve" smooth="yes"/>
      <point x="333" y="520"/>
      <point x="408" y="548"/>
      <point x="552" y="548" type="curve" smooth="yes"/>
      <point x="696" y="548"/>
      <point x="771" y="522"/>
      <point x="771" y="468" type="curve" smooth="yes"/>
      <point x="771" y="434"/>
      <point x="751" y="401"/>
      <point x="649" y="369" type="curve"/>
      <point x="685" y="365" type="line"/>
      <point x="760" y="388"/>
      <point x="795" y="425"/>
      <point x="795" y="468" type="curve" smooth="yes"/>
      <point x="795" y="533"/>
      <point x="710" y="568"/>
      <point x="552" y="568" type="curve" smooth="yes"/>
      <point x="395" y="568"/>
      <point x="309" y="532"/>
      <point x="309" y="467" type="curve" smooth="yes"/>
      <point x="309" y="288"/>
      <point x="804" y="446"/>
      <point x="804" y="278" type="curve" smooth="yes"/>
      <point x="804" y="210"/>
      <point x="714" y="176"/>
      <point x="555" y="176" type="curve" smooth="yes"/>
      <point x="393" y="176"/>
      <point x="307" y="201"/>
      <point x="307" y="276" type="curve" smooth="yes"/>
      <point x="307" y="327"/>
      <point x="359" y="365"/>
      <point x="455" y="392" type="curve"/>
      <point x="413" y="396" type="line"/>
      <point x="328" y="370"/>
      <point x="282" y="324"/>
      <point x="282" y="276" type="curve" smooth="yes"/>
      <point x="282" y="188"/>
      <point x="375" y="157"/>
    </contour>
    <contour>
      <point x="557" y="-10" type="curve" smooth="yes"/>
      <point x="812" y="-10"/>
      <point x="1041" y="69"/>
      <point x="1041" y="350" type="curve" smooth="yes"/>
      <point x="1041" y="631"/>
      <point x="812" y="710"/>
      <point x="557" y="710" type="curve" smooth="yes"/>
      <point x="302" y="710"/>
      <point x="73" y="631"/>
      <point x="73" y="350" type="curve" smooth="yes"/>
      <point x="73" y="69"/>
      <point x="302" y="-10"/>
    </contour>
    <contour>
      <point x="557" y="690" type="curve" smooth="yes"/>
      <point x="802" y="690"/>
      <point x="1021" y="615"/>
      <point x="1021" y="350" type="curve" smooth="yes"/>
      <point x="1021" y="85"/>
      <point x="802" y="10"/>
      <point x="557" y="10" type="curve" smooth="yes"/>
      <point x="312" y="10"/>
      <point x="93" y="85"/>
      <point x="93" y="350" type="curve" smooth="yes"/>
      <point x="93" y="615"/>
      <point x="312" y="690"/>
    </contour>
  </outline>
</glyph>
<glyph name="uni2788" format="2">
  <advance width="1114"/>
  <unicode hex="2788"/>
  <outline>
    <contour>
      <point x="813" y="365" type="curve"/>
      <point x="811" y="226"/>
      <point x="699" y="178"/>
      <point x="545" y="178" type="curve" smooth="yes"/>
      <point x="454" y="178"/>
      <point x="332" y="203"/>
      <point x="328" y="204" type="curve"/>
      <point x="326" y="184" type="line"/>
      <point x="328" y="182"/>
      <point x="449" y="157"/>
      <point x="553" y="157" type="curve" smooth="yes"/>
      <point x="700" y="157"/>
      <point x="836" y="202"/>
      <point x="836" y="370" type="curve" smooth="yes"/>
      <point x="836" y="512"/>
      <point x="717" y="568"/>
      <point x="572" y="568" type="curve" smooth="yes"/>
      <point x="445" y="568"/>
      <point x="295" y="542"/>
      <point x="295" y="434" type="curve" smooth="yes"/>
      <point x="295" y="343"/>
      <point x="407" y="309"/>
      <point x="528" y="309" type="curve" smooth="yes"/>
      <point x="637" y="309"/>
      <point x="752" y="333"/>
    </contour>
    <contour>
      <point x="531" y="330" type="curve" smooth="yes"/>
      <point x="420" y="330"/>
      <point x="318" y="356"/>
      <point x="318" y="434" type="curve" smooth="yes"/>
      <point x="318" y="525"/>
      <point x="456" y="547"/>
      <point x="569" y="547" type="curve" smooth="yes"/>
      <point x="694" y="547"/>
      <point x="800" y="502"/>
      <point x="812" y="386" type="curve"/>
      <point x="756" y="353"/>
      <point x="640" y="330"/>
    </contour>
    <contour>
      <point x="557" y="-10" type="curve" smooth="yes"/>
      <point x="812" y="-10"/>
      <point x="1041" y="69"/>
      <point x="1041" y="350" type="curve" smooth="yes"/>
      <point x="1041" y="631"/>
      <point x="812" y="710"/>
      <point x="557" y="710" type="curve" smooth="yes"/>
      <point x="302" y="710"/>
      <point x="73" y="631"/>
      <point x="73" y="350" type="curve" smooth="yes"/>
      <point x="73" y="69"/>
      <point x="302" y="-10"/>
    </contour>
    <contour>
      <point x="557" y="690" type="curve" smooth="yes"/>
      <point x="802" y="690"/>
      <point x="1021" y="615"/>
      <point x="1021" y="350" type="curve" smooth="yes"/>
      <point x="1021" y="85"/>
      <point x="802" y="10"/>
      <point x="557" y="10" type="curve" smooth="yes"/>
      <point x="312" y="10"/>
      <point x="93" y="85"/>
      <point x="93" y="350" type="curve" smooth="yes"/>
      <point x="93" y="615"/>
      <point x="312" y="690"/>
    </contour>
  </outline>
</glyph>
<glyph name="uni278B" format="2">
  <advance width="1114"/>
  <unicode hex="278B"/>
  <outline>
    <contour>
      <point x="557" y="-10" type="curve" smooth="yes"/>
      <point x="812" y="-10"/>
      <point x="1041" y="69"/>
      <point x="1041" y="350" type="curve" smooth="yes"/>
      <point x="1041" y="631"/>
      <point x="812" y="710"/>
      <point x="557" y="710" type="curve" smooth="yes"/>
      <point x="302" y="710"/>
      <point x="73" y="631"/>
      <point x="73" y="350" type="curve" smooth="yes"/>
      <point x="73" y="69"/>
      <point x="302" y="-10"/>
    </contour>
    <contour>
      <point x="319" y="164" type="line"/>
      <point x="316" y="180" type="line"/>
      <point x="618" y="319"/>
      <point x="680" y="363"/>
      <point x="680" y="444" type="curve" smooth="yes"/>
      <point x="680" y="506"/>
      <point x="625" y="542"/>
      <point x="528" y="542" type="curve" smooth="yes"/>
      <point x="471" y="542"/>
      <point x="403" y="528"/>
      <point x="354" y="507" type="curve"/>
      <point x="346" y="526" type="line"/>
      <point x="394" y="550"/>
      <point x="467" y="565"/>
      <point x="530" y="565" type="curve" smooth="yes"/>
      <point x="641" y="565"/>
      <point x="704" y="521"/>
      <point x="704" y="446" type="curve" smooth="yes"/>
      <point x="704" y="356"/>
      <point x="630" y="300"/>
      <point x="371" y="184" type="curve"/>
      <point x="800" y="184" type="line"/>
      <point x="800" y="164" type="line"/>
    </contour>
  </outline>
</glyph>
<glyph name="uni278C" format="2">
  <advance width="1114"/>
  <unicode hex="278C"/>
  <outline>
    <contour>
      <point x="557" y="-10" type="curve" smooth="yes"/>
      <point x="812" y="-10"/>
      <point x="1041" y="69"/>
      <point x="1041" y="350" type="curve" smooth="yes"/>
      <point x="1041" y="631"/>
      <point x="812" y="710"/>
      <point x="557" y="710" type="curve" smooth="yes"/>
      <point x="302" y="710"/>
      <point x="73" y="631"/>
      <point x="73" y="350" type="curve" smooth="yes"/>
      <point x="73" y="69"/>
      <point x="302" y="-10"/>
    </contour>
    <contour>
      <point x="560" y="157" type="curve" smooth="yes"/>
      <point x="434" y="157"/>
      <point x="355" y="173"/>
      <point x="280" y="210" type="curve"/>
      <point x="288" y="230" type="line"/>
      <point x="359" y="193"/>
      <point x="437" y="177"/>
      <point x="560" y="177" type="curve" smooth="yes"/>
      <point x="698" y="177"/>
      <point x="789" y="215"/>
      <point x="789" y="282" type="curve" smooth="yes"/>
      <point x="789" y="340"/>
      <point x="720" y="363"/>
      <point x="539" y="363" type="curve" smooth="yes"/>
      <point x="428" y="363" type="line"/>
      <point x="428" y="382" type="line"/>
      <point x="578" y="382" type="line" smooth="yes"/>
      <point x="688" y="382"/>
      <point x="747" y="412"/>
      <point x="747" y="462" type="curve" smooth="yes"/>
      <point x="747" y="516"/>
      <point x="668" y="548"/>
      <point x="535" y="548" type="curve" smooth="yes"/>
      <point x="487" y="548"/>
      <point x="356" y="532"/>
      <point x="327" y="523" type="curve"/>
      <point x="324" y="545" type="line"/>
      <point x="340" y="553"/>
      <point x="484" y="570"/>
      <point x="536" y="570" type="curve" smooth="yes"/>
      <point x="683" y="570"/>
      <point x="770" y="531"/>
      <point x="770" y="464" type="curve" smooth="yes"/>
      <point x="770" y="419"/>
      <point x="733" y="385"/>
      <point x="675" y="374" type="curve"/>
      <point x="762" y="367"/>
      <point x="813" y="333"/>
      <point x="813" y="283" type="curve" smooth="yes"/>
      <point x="813" y="204"/>
      <point x="711" y="157"/>
    </contour>
  </outline>
</glyph>
<glyph name="uni278E" format="2">
  <advance width="1114"/>
  <unicode hex="278E"/>
  <outline>
    <contour>
      <point x="557" y="-10" type="curve" smooth="yes"/>
      <point x="812" y="-10"/>
      <point x="1041" y="69"/>
      <point x="1041" y="350" type="curve" smooth="yes"/>
      <point x="1041" y="631"/>
      <point x="812" y="710"/>
      <point x="557" y="710" type="curve" smooth="yes"/>
      <point x="302" y="710"/>
      <point x="73" y="631"/>
      <point x="73" y="350" type="curve" smooth="yes"/>
      <point x="73" y="69"/>
      <point x="302" y="-10"/>
    </contour>
    <contour>
      <point x="549" y="157" type="curve" smooth="yes"/>
      <point x="437" y="157"/>
      <point x="360" y="176"/>
      <point x="292" y="209" type="curve"/>
      <point x="301" y="229" type="line"/>
      <point x="365" y="197"/>
      <point x="442" y="177"/>
      <point x="549" y="177" type="curve" smooth="yes"/>
      <point x="702" y="177"/>
      <point x="793" y="217"/>
      <point x="793" y="282" type="curve" smooth="yes"/>
      <point x="793" y="345"/>
      <point x="738" y="377"/>
      <point x="575" y="377" type="curve" smooth="yes"/>
      <point x="332" y="377" type="line"/>
      <point x="324" y="386" type="line"/>
      <point x="359" y="558" type="line"/>
      <point x="775" y="558" type="line"/>
      <point x="775" y="537" type="line"/>
      <point x="376" y="537" type="line"/>
      <point x="348" y="398" type="line"/>
      <point x="589" y="398" type="line" smooth="yes"/>
      <point x="757" y="398"/>
      <point x="817" y="355"/>
      <point x="817" y="281" type="curve" smooth="yes"/>
      <point x="817" y="195"/>
      <point x="692" y="157"/>
    </contour>
  </outline>
</glyph>
<glyph name="uni2790" format="2">
  <advance width="1114"/>
  <unicode hex="2790"/>
  <outline>
    <contour>
      <point x="557" y="-10" type="curve" smooth="yes"/>
      <point x="812" y="-10"/>
      <point x="1041" y="69"/>
      <point x="1041" y="350" type="curve" smooth="yes"/>
      <point x="1041" y="631"/>
      <point x="812" y="710"/>
      <point x="557" y="710" type="curve" smooth="yes"/>
      <point x="302" y="710"/>
      <point x="73" y="631"/>
      <point x="73" y="350" type="curve" smooth="yes"/>
      <point x="73" y="69"/>
      <point x="302" y="-10"/>
    </contour>
    <contour>
      <point x="499" y="164" type="line"/>
      <point x="499" y="247"/>
      <point x="530" y="300"/>
      <point x="641" y="408" type="curve" smooth="yes"/>
      <point x="770" y="535" type="line"/>
      <point x="323" y="535" type="line"/>
      <point x="323" y="555" type="line"/>
      <point x="802" y="555" type="line"/>
      <point x="802" y="539" type="line"/>
      <point x="645" y="386" type="line" smooth="yes"/>
      <point x="549" y="292"/>
      <point x="520" y="240"/>
      <point x="520" y="164" type="curve"/>
    </contour>
  </outline>
</glyph>
<glyph name="uni2791" format="2">
  <advance width="1114"/>
  <unicode hex="2791"/>
  <outline>
    <contour>
      <point x="557" y="-10" type="curve" smooth="yes"/>
      <point x="812" y="-10"/>
      <point x="1041" y="69"/>
      <point x="1041" y="350" type="curve" smooth="yes"/>
      <point x="1041" y="631"/>
      <point x="812" y="710"/>
      <point x="557" y="710" type="curve" smooth="yes"/>
      <point x="302" y="710"/>
      <point x="73" y="631"/>
      <point x="73" y="350" type="curve" smooth="yes"/>
      <point x="73" y="69"/>
      <point x="302" y="-10"/>
    </contour>
    <contour>
      <point x="555" y="176" type="curve" smooth="yes"/>
      <point x="714" y="176"/>
      <point x="804" y="210"/>
      <point x="804" y="278" type="curve" smooth="yes"/>
      <point x="804" y="396"/>
      <point x="560" y="353"/>
      <point x="415" y="379" type="curve"/>
      <point x="345" y="353"/>
      <point x="307" y="319"/>
      <point x="307" y="276" type="curve" smooth="yes"/>
      <point x="307" y="201"/>
      <point x="393" y="176"/>
    </contour>
    <contour>
      <point x="554" y="157" type="curve" smooth="yes"/>
      <point x="375" y="157"/>
      <point x="282" y="188"/>
      <point x="282" y="276" type="curve" smooth="yes"/>
      <point x="282" y="318"/>
      <point x="318" y="359"/>
      <point x="385" y="386" type="curve"/>
      <point x="339" y="399"/>
      <point x="309" y="423"/>
      <point x="309" y="467" type="curve" smooth="yes"/>
      <point x="309" y="532"/>
      <point x="395" y="568"/>
      <point x="552" y="568" type="curve" smooth="yes"/>
      <point x="710" y="568"/>
      <point x="795" y="533"/>
      <point x="795" y="468" type="curve" smooth="yes"/>
      <point x="795" y="431"/>
      <point x="769" y="399"/>
      <point x="715" y="376" type="curve"/>
      <point x="781" y="363"/>
      <point x="829" y="337"/>
      <point x="829" y="279" type="curve" smooth="yes"/>
      <point x="829" y="198"/>
      <point x="731" y="157"/>
    </contour>
    <contour>
      <point x="682" y="381" type="curve"/>
      <point x="756" y="409"/>
      <point x="771" y="438"/>
      <point x="771" y="468" type="curve" smooth="yes"/>
      <point x="771" y="522"/>
      <point x="696" y="548"/>
      <point x="552" y="548" type="curve" smooth="yes"/>
      <point x="408" y="548"/>
      <point x="333" y="520"/>
      <point x="333" y="467" type="curve" smooth="yes"/>
      <point x="333" y="372"/>
      <point x="536" y="398"/>
    </contour>
  </outline>
</glyph>
<glyph name="T_h.liga" format="2">
  <advance width="1709"/>
  <outline>
    <contour>
      <point x="940" y="0" type="line"/>
      <point x="960" y="0" type="line"/>
      <point x="960" y="411" type="line"/>
      <point x="1100" y="476"/>
      <point x="1195" y="520"/>
      <point x="1344" y="520" type="curve" smooth="yes"/>
      <point x="1497" y="520"/>
      <point x="1565" y="446"/>
      <point x="1565" y="333" type="curve" smooth="yes"/>
      <point x="1565" y="0" type="line"/>
      <point x="1585" y="0" type="line"/>
      <point x="1585" y="333" type="line" smooth="yes"/>
      <point x="1585" y="463"/>
      <point x="1506" y="540"/>
      <point x="1344" y="540" type="curve" smooth="yes"/>
      <point x="1194" y="540"/>
      <point x="1094" y="494"/>
      <point x="960" y="432" type="curve"/>
      <point x="960" y="700" type="line"/>
      <point x="6" y="700" type="line"/>
      <point x="6" y="682" type="line"/>
      <point x="408" y="682" type="line"/>
      <point x="408" y="0" type="line"/>
      <point x="428" y="0" type="line"/>
      <point x="428" y="682" type="line"/>
      <point x="940" y="682" type="line"/>
    </contour>
  </outline>
</glyph>
<glyph name="a.sc" format="2">
  <advance width="924"/>
  <anchor x="901" y="0" name="ogonek"/>
  <anchor x="462" y="0" name="bottom"/>
  <anchor x="463" y="615" name="top"/>
  <outline>
    <contour>
      <point x="24" y="0" type="line"/>
      <point x="47" y="0" type="line"/>
      <point x="181" y="194" type="line"/>
      <point x="742" y="194" type="line"/>
      <point x="877" y="0" type="line"/>
      <point x="901" y="0" type="line"/>
      <point x="467" y="624" type="line"/>
      <point x="458" y="624" type="line"/>
    </contour>
    <contour>
      <point x="194" y="212" type="line"/>
      <point x="463" y="598" type="line"/>
      <point x="729" y="212" type="line"/>
    </contour>
  </outline>
</glyph>
<glyph name="ae.sc" format="2">
  <advance width="1481"/>
  <anchor x="743" y="615" name="top"/>
  <anchor x="741" y="0" name="bottom"/>
  <outline>
    <contour>
      <point x="15" y="0" type="line"/>
      <point x="42" y="0" type="line"/>
      <point x="355" y="279" type="line"/>
      <point x="710" y="279" type="line"/>
      <point x="710" y="0" type="line"/>
      <point x="1424" y="0" type="line"/>
      <point x="1424" y="20" type="line"/>
      <point x="730" y="20" type="line"/>
      <point x="730" y="279" type="line"/>
      <point x="1366" y="279" type="line"/>
      <point x="1366" y="299" type="line"/>
      <point x="730" y="299" type="line"/>
      <point x="730" y="595" type="line"/>
      <point x="1396" y="595" type="line"/>
      <point x="1396" y="615" type="line"/>
      <point x="706" y="615" type="line"/>
    </contour>
    <contour>
      <point x="377" y="299" type="line"/>
      <point x="710" y="595" type="line"/>
      <point x="710" y="299" type="line"/>
    </contour>
  </outline>
</glyph>
<glyph name="at.sc" format="2">
  <advance width="829"/>
  <outline>
    <contour>
      <point x="397" y="-10" type="curve" smooth="yes"/>
      <point x="495" y="-10"/>
      <point x="586" y="13"/>
      <point x="655" y="48" type="curve"/>
      <point x="647" y="66" type="line"/>
      <point x="580" y="33"/>
      <point x="493" y="10"/>
      <point x="397" y="10" type="curve" smooth="yes"/>
      <point x="194" y="10"/>
      <point x="54" y="120"/>
      <point x="54" y="307" type="curve" smooth="yes"/>
      <point x="54" y="466"/>
      <point x="183" y="606"/>
      <point x="419" y="606" type="curve" smooth="yes"/>
      <point x="643" y="606"/>
      <point x="771" y="505"/>
      <point x="771" y="342" type="curve" smooth="yes"/>
      <point x="771" y="247"/>
      <point x="726" y="162"/>
      <point x="664" y="162" type="curve" smooth="yes"/>
      <point x="632" y="162"/>
      <point x="589" y="179"/>
      <point x="595" y="278" type="curve" smooth="yes"/>
      <point x="605" y="457" type="line"/>
      <point x="552" y="468"/>
      <point x="494" y="476"/>
      <point x="449" y="476" type="curve" smooth="yes"/>
      <point x="294" y="476"/>
      <point x="215" y="377"/>
      <point x="215" y="287" type="curve" smooth="yes"/>
      <point x="215" y="195"/>
      <point x="278" y="144"/>
      <point x="358" y="144" type="curve" smooth="yes"/>
      <point x="440" y="144"/>
      <point x="530" y="194"/>
      <point x="575" y="297" type="curve"/>
      <point x="570" y="216"/>
      <point x="580" y="142"/>
      <point x="664" y="142" type="curve" smooth="yes"/>
      <point x="738" y="142"/>
      <point x="791" y="237"/>
      <point x="791" y="342" type="curve" smooth="yes"/>
      <point x="791" y="517"/>
      <point x="655" y="626"/>
      <point x="419" y="626" type="curve" smooth="yes"/>
      <point x="171" y="626"/>
      <point x="34" y="476"/>
      <point x="34" y="307" type="curve" smooth="yes"/>
      <point x="34" y="108"/>
      <point x="182" y="-10"/>
    </contour>
    <contour>
      <point x="358" y="164" type="curve" smooth="yes"/>
      <point x="290" y="164"/>
      <point x="235" y="209"/>
      <point x="235" y="287" type="curve" smooth="yes"/>
      <point x="235" y="371"/>
      <point x="308" y="456"/>
      <point x="449" y="456" type="curve" smooth="yes"/>
      <point x="489" y="456"/>
      <point x="535" y="451"/>
      <point x="584" y="441" type="curve"/>
      <point x="582" y="405" type="line" smooth="yes"/>
      <point x="573" y="249"/>
      <point x="453" y="164"/>
    </contour>
  </outline>
</glyph>
<glyph name="b.sc" format="2">
  <advance width="1045"/>
  <outline>
    <contour>
      <point x="148" y="4" type="line"/>
      <point x="339" y="-6"/>
      <point x="428" y="-9"/>
      <point x="563" y="-9" type="curve" smooth="yes"/>
      <point x="833" y="-9"/>
      <point x="937" y="45"/>
      <point x="937" y="174" type="curve" smooth="yes"/>
      <point x="937" y="262"/>
      <point x="855" y="315"/>
      <point x="727" y="327" type="curve"/>
      <point x="727" y="329" type="line"/>
      <point x="821" y="345"/>
      <point x="879" y="400"/>
      <point x="879" y="475" type="curve" smooth="yes"/>
      <point x="879" y="584"/>
      <point x="791" y="624"/>
      <point x="543" y="624" type="curve" smooth="yes"/>
      <point x="450" y="624"/>
      <point x="351" y="621"/>
      <point x="148" y="611" type="curve"/>
    </contour>
    <contour>
      <point x="168" y="335" type="line"/>
      <point x="168" y="592" type="line"/>
      <point x="380" y="603"/>
      <point x="398" y="604"/>
      <point x="523" y="604" type="curve" smooth="yes"/>
      <point x="769" y="604"/>
      <point x="859" y="570"/>
      <point x="859" y="474" type="curve" smooth="yes"/>
      <point x="859" y="389"/>
      <point x="771" y="335"/>
      <point x="632" y="335" type="curve" smooth="yes"/>
    </contour>
    <contour>
      <point x="168" y="24" type="curve"/>
      <point x="168" y="315" type="line"/>
      <point x="643" y="315" type="line" smooth="yes"/>
      <point x="817" y="315"/>
      <point x="917" y="270"/>
      <point x="917" y="173" type="curve" smooth="yes"/>
      <point x="917" y="54"/>
      <point x="814" y="11"/>
      <point x="554" y="11" type="curve" smooth="yes"/>
      <point x="456" y="11"/>
      <point x="390" y="13"/>
    </contour>
  </outline>
</glyph>
<glyph name="bracketright.sc" format="2">
  <advance width="398"/>
  <outline>
    <contour>
      <point x="12" y="-105" type="line"/>
      <point x="12" y="-125" type="line"/>
      <point x="283" y="-125" type="line"/>
      <point x="283" y="740" type="line"/>
      <point x="12" y="740" type="line"/>
      <point x="12" y="720" type="line"/>
      <point x="263" y="720" type="line"/>
      <point x="263" y="-105" type="line"/>
    </contour>
  </outline>
</glyph>
<glyph name="c.sc" format="2">
  <advance width="1013"/>
  <anchor x="566" y="615" name="top"/>
  <anchor x="569" y="0" name="bottom"/>
  <outline>
    <contour>
      <point x="101" y="296" type="curve" smooth="yes"/>
      <point x="101" y="99"/>
      <point x="259" y="-9"/>
      <point x="544" y="-9" type="curve" smooth="yes"/>
      <point x="697" y="-9"/>
      <point x="841" y="8"/>
      <point x="961" y="40" type="curve"/>
      <point x="956" y="59" type="line"/>
      <point x="835" y="27"/>
      <point x="689" y="11"/>
      <point x="544" y="11" type="curve" smooth="yes"/>
      <point x="272" y="11"/>
      <point x="121" y="111"/>
      <point x="121" y="296" type="curve" smooth="yes"/>
      <point x="121" y="494"/>
      <point x="293" y="604"/>
      <point x="592" y="604" type="curve" smooth="yes"/>
      <point x="719" y="604"/>
      <point x="809" y="594"/>
      <point x="914" y="568" type="curve"/>
      <point x="920" y="588" type="line"/>
      <point x="816" y="614"/>
      <point x="727" y="624"/>
      <point x="592" y="624" type="curve" smooth="yes"/>
      <point x="280" y="624"/>
      <point x="101" y="506"/>
    </contour>
  </outline>
</glyph>
<glyph name="c.superior" format="2">
  <advance width="475"/>
  <outline>
    <contour>
      <point x="243" y="364" type="curve" smooth="yes"/>
      <point x="308" y="364"/>
      <point x="387" y="373"/>
      <point x="447" y="387" type="curve"/>
      <point x="444" y="403" type="line"/>
      <point x="395" y="389"/>
      <point x="314" y="380"/>
      <point x="245" y="380" type="curve" smooth="yes"/>
      <point x="139" y="380"/>
      <point x="72" y="430"/>
      <point x="72" y="509" type="curve" smooth="yes"/>
      <point x="72" y="601"/>
      <point x="151" y="658"/>
      <point x="277" y="658" type="curve" smooth="yes"/>
      <point x="353" y="658"/>
      <point x="433" y="638"/>
      <point x="436" y="638" type="curve"/>
      <point x="439" y="654" type="line"/>
      <point x="406" y="665"/>
      <point x="330" y="675"/>
      <point x="278" y="675" type="curve" smooth="yes"/>
      <point x="139" y="675"/>
      <point x="53" y="612"/>
      <point x="53" y="509" type="curve" smooth="yes"/>
      <point x="53" y="419"/>
      <point x="125" y="364"/>
    </contour>
  </outline>
</glyph>
<glyph name="centsuperior" format="2">
  <advance width="540"/>
  <outline>
    <contour>
      <point x="274" y="360" type="curve" smooth="yes"/>
      <point x="353" y="360"/>
      <point x="440" y="375"/>
      <point x="470" y="382" type="curve"/>
      <point x="465" y="398" type="line"/>
      <point x="438" y="392"/>
      <point x="355" y="378"/>
      <point x="259" y="378" type="curve" smooth="yes"/>
      <point x="153" y="378"/>
      <point x="85" y="429"/>
      <point x="85" y="508" type="curve" smooth="yes"/>
      <point x="85" y="600"/>
      <point x="167" y="659"/>
      <point x="294" y="659" type="curve" smooth="yes"/>
      <point x="351" y="659"/>
      <point x="407" y="648"/>
      <point x="457" y="637" type="curve"/>
      <point x="462" y="655" type="line"/>
      <point x="409" y="666"/>
      <point x="349" y="676"/>
      <point x="297" y="676" type="curve" smooth="yes"/>
      <point x="156" y="676"/>
      <point x="69" y="612"/>
      <point x="69" y="508" type="curve" smooth="yes"/>
      <point x="69" y="413"/>
      <point x="142" y="360"/>
    </contour>
    <contour>
      <point x="269" y="307" type="line"/>
      <point x="287" y="307" type="line"/>
      <point x="287" y="366" type="line"/>
      <point x="269" y="365" type="line"/>
    </contour>
    <contour>
      <point x="269" y="670" type="line"/>
      <point x="287" y="671" type="line"/>
      <point x="287" y="730" type="line"/>
      <point x="269" y="730" type="line"/>
    </contour>
  </outline>
</glyph>
<glyph name="d.superior" format="2">
  <advance width="522"/>
  <outline>
    <contour>
      <point x="217" y="364" type="curve" smooth="yes"/>
      <point x="292" y="364"/>
      <point x="350" y="395"/>
      <point x="410" y="437" type="curve"/>
      <point x="415" y="370" type="line"/>
      <point x="429" y="370" type="line"/>
      <point x="429" y="788" type="line"/>
      <point x="410" y="788" type="line"/>
      <point x="410" y="660" type="line"/>
      <point x="377" y="667"/>
      <point x="325" y="674"/>
      <point x="274" y="674" type="curve" smooth="yes"/>
      <point x="127" y="674"/>
      <point x="53" y="619"/>
      <point x="53" y="509" type="curve" smooth="yes"/>
      <point x="53" y="418"/>
      <point x="114" y="364"/>
    </contour>
    <contour>
      <point x="219" y="380" type="curve" smooth="yes"/>
      <point x="130" y="380"/>
      <point x="72" y="429"/>
      <point x="72" y="509" type="curve" smooth="yes"/>
      <point x="72" y="608"/>
      <point x="140" y="658"/>
      <point x="272" y="658" type="curve" smooth="yes"/>
      <point x="326" y="658"/>
      <point x="379" y="650"/>
      <point x="410" y="643" type="curve"/>
      <point x="410" y="454" type="line"/>
      <point x="336" y="402"/>
      <point x="282" y="380"/>
    </contour>
  </outline>
</glyph>
<glyph name="dollarsuperior" format="2">
  <advance width="560"/>
  <outline>
    <contour>
      <point x="289" y="360" type="curve" smooth="yes"/>
      <point x="445" y="360"/>
      <point x="514" y="393"/>
      <point x="514" y="470" type="curve" smooth="yes"/>
      <point x="514" y="534"/>
      <point x="460" y="561"/>
      <point x="300" y="574" type="curve" smooth="yes"/>
      <point x="153" y="586"/>
      <point x="97" y="613"/>
      <point x="97" y="665" type="curve" smooth="yes"/>
      <point x="97" y="720"/>
      <point x="163" y="754"/>
      <point x="297" y="754" type="curve" smooth="yes"/>
      <point x="348" y="754"/>
      <point x="427" y="742"/>
      <point x="485" y="726" type="curve"/>
      <point x="490" y="744" type="line"/>
      <point x="430" y="760"/>
      <point x="350" y="772"/>
      <point x="296" y="772" type="curve" smooth="yes"/>
      <point x="152" y="772"/>
      <point x="80" y="732"/>
      <point x="80" y="665" type="curve" smooth="yes"/>
      <point x="80" y="600"/>
      <point x="135" y="572"/>
      <point x="299" y="557" type="curve" smooth="yes"/>
      <point x="445" y="544"/>
      <point x="497" y="520"/>
      <point x="497" y="470" type="curve" smooth="yes"/>
      <point x="497" y="405"/>
      <point x="436" y="378"/>
      <point x="290" y="378" type="curve" smooth="yes"/>
      <point x="193" y="378"/>
      <point x="121" y="394"/>
      <point x="50" y="416" type="curve"/>
      <point x="45" y="399" type="line"/>
      <point x="112" y="378"/>
      <point x="181" y="360"/>
    </contour>
    <contour>
      <point x="284" y="307" type="line"/>
      <point x="301" y="307" type="line"/>
      <point x="301" y="364" type="line"/>
      <point x="284" y="364" type="line"/>
    </contour>
    <contour>
      <point x="284" y="768" type="line"/>
      <point x="301" y="768" type="line"/>
      <point x="301" y="826" type="line"/>
      <point x="284" y="826" type="line"/>
    </contour>
  </outline>
</glyph>
<glyph name="e.sc" format="2">
  <advance width="919"/>
  <anchor x="862" y="0" name="ogonek"/>
  <anchor x="495" y="615" name="top"/>
  <anchor x="20" y="615" name="topleft"/>
  <anchor x="505" y="0" name="bottom"/>
  <outline>
    <contour>
      <point x="148" y="0" type="line"/>
      <point x="862" y="0" type="line"/>
      <point x="862" y="20" type="line"/>
      <point x="168" y="20" type="line"/>
      <point x="168" y="327" type="line"/>
      <point x="805" y="327" type="line"/>
      <point x="805" y="347" type="line"/>
      <point x="168" y="347" type="line"/>
      <point x="168" y="595" type="line"/>
      <point x="835" y="595" type="line"/>
      <point x="835" y="615" type="line"/>
      <point x="148" y="615" type="line"/>
    </contour>
  </outline>
</glyph>
<glyph name="e.superior" format="2">
  <advance width="503"/>
  <outline>
    <contour>
      <point x="245" y="364" type="curve" smooth="yes"/>
      <point x="332" y="364"/>
      <point x="409" y="378"/>
      <point x="451" y="388" type="curve"/>
      <point x="448" y="404" type="line"/>
      <point x="408" y="395"/>
      <point x="328" y="380"/>
      <point x="245" y="380" type="curve" smooth="yes"/>
      <point x="148" y="380"/>
      <point x="72" y="425"/>
      <point x="72" y="509" type="curve" smooth="yes"/>
      <point x="72" y="518"/>
      <point x="73" y="521"/>
      <point x="74" y="527" type="curve"/>
      <point x="262" y="528"/>
      <point x="417" y="538"/>
      <point x="454" y="540" type="curve"/>
      <point x="455" y="544"/>
      <point x="455" y="548"/>
      <point x="455" y="551" type="curve" smooth="yes"/>
      <point x="455" y="634"/>
      <point x="394" y="674"/>
      <point x="277" y="674" type="curve" smooth="yes"/>
      <point x="160" y="674"/>
      <point x="53" y="624"/>
      <point x="53" y="511" type="curve" smooth="yes"/>
      <point x="53" y="414"/>
      <point x="135" y="364"/>
    </contour>
    <contour>
      <point x="75" y="541" type="curve"/>
      <point x="93" y="630"/>
      <point x="199" y="658"/>
      <point x="279" y="658" type="curve" smooth="yes"/>
      <point x="389" y="658"/>
      <point x="438" y="622"/>
      <point x="439" y="553" type="curve"/>
      <point x="411" y="551"/>
      <point x="261" y="542"/>
    </contour>
  </outline>
</glyph>
<glyph name="exclamdown.case" format="2">
  <advance width="336"/>
  <outline>
    <contour>
      <point x="178" y="476" type="line"/>
      <point x="158" y="476" type="line"/>
      <point x="158" y="0" type="line"/>
      <point x="178" y="0" type="line"/>
    </contour>
    <contour>
      <point x="185" y="683" type="curve" smooth="yes"/>
      <point x="185" y="699"/>
      <point x="184" y="700"/>
      <point x="168" y="700" type="curve" smooth="yes"/>
      <point x="153" y="700"/>
      <point x="151" y="699"/>
      <point x="151" y="683" type="curve" smooth="yes"/>
      <point x="151" y="667"/>
      <point x="152" y="666"/>
      <point x="168" y="666" type="curve" smooth="yes"/>
      <point x="184" y="666"/>
      <point x="185" y="667"/>
    </contour>
  </outline>
</glyph>
<glyph name="f.sc" format="2">
  <advance width="875"/>
  <outline>
    <contour>
      <point x="148" y="0" type="line"/>
      <point x="168" y="0" type="line"/>
      <point x="168" y="265" type="line"/>
      <point x="766" y="265" type="line"/>
      <point x="766" y="285" type="line"/>
      <point x="168" y="285" type="line"/>
      <point x="168" y="595" type="line"/>
      <point x="835" y="595" type="line"/>
      <point x="835" y="615" type="line"/>
      <point x="148" y="615" type="line"/>
    </contour>
  </outline>
</glyph>
<glyph name="f_f.liga" format="2">
  <advance width="912"/>
  <outline>
    <contour>
      <point x="185" y="0" type="line"/>
      <point x="205" y="0" type="line"/>
      <point x="205" y="464" type="line"/>
      <point x="555" y="464" type="line"/>
      <point x="555" y="0" type="line"/>
      <point x="575" y="0" type="line"/>
      <point x="575" y="464" type="line"/>
      <point x="908" y="464" type="line"/>
      <point x="908" y="484" type="line"/>
      <point x="575" y="484" type="line"/>
      <point x="575" y="499" type="line" smooth="yes"/>
      <point x="575" y="668"/>
      <point x="653" y="731"/>
      <point x="799" y="731" type="curve" smooth="yes"/>
      <point x="867" y="731"/>
      <point x="927" y="719"/>
      <point x="1005" y="697" type="curve"/>
      <point x="1010" y="717" type="line"/>
      <point x="924" y="742"/>
      <point x="866" y="751"/>
      <point x="795" y="751" type="curve" smooth="yes"/>
      <point x="739" y="751"/>
      <point x="691" y="742"/>
      <point x="653" y="720" type="curve"/>
      <point x="560" y="745"/>
      <point x="495" y="750"/>
      <point x="464" y="750" type="curve" smooth="yes"/>
      <point x="279" y="750"/>
      <point x="185" y="686"/>
      <point x="185" y="499" type="curve" smooth="yes"/>
      <point x="185" y="484" type="line"/>
      <point x="45" y="479" type="line"/>
      <point x="45" y="464" type="line"/>
      <point x="185" y="464" type="line"/>
    </contour>
    <contour>
      <point x="205" y="484" type="line"/>
      <point x="205" y="499" type="line" smooth="yes"/>
      <point x="205" y="666"/>
      <point x="280" y="730"/>
      <point x="462" y="730" type="curve" smooth="yes"/>
      <point x="508" y="730"/>
      <point x="555" y="722"/>
      <point x="630" y="704" type="curve"/>
      <point x="582" y="665"/>
      <point x="555" y="600"/>
      <point x="555" y="499" type="curve" smooth="yes"/>
      <point x="555" y="484" type="line"/>
    </contour>
  </outline>
</glyph>
<glyph name="f_f_b.liga" format="2">
  <advance width="1751"/>
  <outline>
    <contour>
      <point x="1286" y="-10" type="curve" smooth="yes"/>
      <point x="1545" y="-10"/>
      <point x="1677" y="90"/>
      <point x="1677" y="285" type="curve" smooth="yes"/>
      <point x="1677" y="443"/>
      <point x="1566" y="540"/>
      <point x="1384" y="540" type="curve" smooth="yes"/>
      <point x="1270" y="540"/>
      <point x="1170" y="503"/>
      <point x="1034" y="409" type="curve"/>
      <point x="1034" y="723" type="line"/>
      <point x="975" y="740"/>
      <point x="909" y="751"/>
      <point x="841" y="751" type="curve" smooth="yes"/>
      <point x="766" y="751"/>
      <point x="707" y="741"/>
      <point x="662" y="718" type="curve"/>
      <point x="564" y="745"/>
      <point x="496" y="750"/>
      <point x="464" y="750" type="curve" smooth="yes"/>
      <point x="279" y="750"/>
      <point x="185" y="686"/>
      <point x="185" y="499" type="curve" smooth="yes"/>
      <point x="185" y="484" type="line"/>
      <point x="45" y="479" type="line"/>
      <point x="45" y="464" type="line"/>
      <point x="185" y="464" type="line"/>
      <point x="185" y="0" type="line"/>
      <point x="205" y="0" type="line"/>
      <point x="205" y="464" type="line"/>
      <point x="555" y="464" type="line"/>
      <point x="555" y="0" type="line"/>
      <point x="575" y="0" type="line"/>
      <point x="575" y="464" type="line"/>
      <point x="908" y="464" type="line"/>
      <point x="908" y="484" type="line"/>
      <point x="575" y="484" type="line"/>
      <point x="575" y="499" type="line" smooth="yes"/>
      <point x="575" y="676"/>
      <point x="665" y="731"/>
      <point x="845" y="731" type="curve" smooth="yes"/>
      <point x="896" y="731"/>
      <point x="960" y="722"/>
      <point x="1014" y="707" type="curve"/>
      <point x="1014" y="21" type="line"/>
      <point x="1121" y="0"/>
      <point x="1207" y="-10"/>
    </contour>
    <contour>
      <point x="205" y="484" type="line"/>
      <point x="205" y="499" type="line" smooth="yes"/>
      <point x="205" y="666"/>
      <point x="280" y="730"/>
      <point x="462" y="730" type="curve" smooth="yes"/>
      <point x="509" y="730"/>
      <point x="558" y="721"/>
      <point x="637" y="703" type="curve"/>
      <point x="582" y="663"/>
      <point x="555" y="597"/>
      <point x="555" y="499" type="curve" smooth="yes"/>
      <point x="555" y="484" type="line"/>
    </contour>
    <contour>
      <point x="1286" y="9" type="curve" smooth="yes"/>
      <point x="1218" y="9"/>
      <point x="1133" y="18"/>
      <point x="1034" y="37" type="curve"/>
      <point x="1034" y="387" type="line"/>
      <point x="1171" y="482"/>
      <point x="1270" y="520"/>
      <point x="1384" y="520" type="curve" smooth="yes"/>
      <point x="1552" y="520"/>
      <point x="1657" y="430"/>
      <point x="1657" y="285" type="curve" smooth="yes"/>
      <point x="1657" y="101"/>
      <point x="1533" y="9"/>
    </contour>
  </outline>
</glyph>
<glyph name="f_f_j.liga" format="2">
  <advance width="1069"/>
  <outline>
    <contour>
      <point x="973" y="700" type="curve"/>
      <point x="981" y="718" type="line"/>
      <point x="901" y="746"/>
      <point x="841" y="750"/>
      <point x="814" y="750" type="curve" smooth="yes"/>
      <point x="749" y="750"/>
      <point x="696" y="741"/>
      <point x="655" y="719" type="curve"/>
      <point x="561" y="745"/>
      <point x="495" y="750"/>
      <point x="464" y="750" type="curve" smooth="yes"/>
      <point x="279" y="750"/>
      <point x="185" y="686"/>
      <point x="185" y="499" type="curve" smooth="yes"/>
      <point x="185" y="484" type="line"/>
      <point x="45" y="479" type="line"/>
      <point x="45" y="464" type="line"/>
      <point x="185" y="464" type="line"/>
      <point x="185" y="0" type="line"/>
      <point x="205" y="0" type="line"/>
      <point x="205" y="464" type="line"/>
      <point x="555" y="464" type="line"/>
      <point x="555" y="0" type="line"/>
      <point x="575" y="0" type="line"/>
      <point x="575" y="464" type="line"/>
      <point x="925" y="464" type="line"/>
      <point x="925" y="31" type="line" smooth="yes"/>
      <point x="925" y="-141"/>
      <point x="825" y="-200"/>
      <point x="708" y="-200" type="curve" smooth="yes"/>
      <point x="671" y="-200"/>
      <point x="633" y="-194"/>
      <point x="597" y="-184" type="curve"/>
      <point x="591" y="-203" type="line"/>
      <point x="629" y="-214"/>
      <point x="668" y="-220"/>
      <point x="708" y="-220" type="curve" smooth="yes"/>
      <point x="835" y="-220"/>
      <point x="945" y="-158"/>
      <point x="945" y="31" type="curve" smooth="yes"/>
      <point x="945" y="484" type="line"/>
      <point x="575" y="484" type="line"/>
      <point x="575" y="499" type="line" smooth="yes"/>
      <point x="575" y="666"/>
      <point x="644" y="730"/>
      <point x="812" y="730" type="curve" smooth="yes"/>
      <point x="853" y="730"/>
      <point x="905" y="721"/>
    </contour>
    <contour>
      <point x="555" y="499" type="curve" smooth="yes"/>
      <point x="555" y="484" type="line"/>
      <point x="205" y="484" type="line"/>
      <point x="205" y="499" type="line" smooth="yes"/>
      <point x="205" y="666"/>
      <point x="280" y="730"/>
      <point x="462" y="730" type="curve" smooth="yes"/>
      <point x="508" y="730"/>
      <point x="555" y="722"/>
      <point x="631" y="704" type="curve"/>
      <point x="581" y="666"/>
      <point x="555" y="600"/>
    </contour>
  </outline>
</glyph>
<glyph name="f_f_l.liga" format="2">
  <advance width="1243"/>
  <outline>
    <contour>
      <point x="1150" y="-10" type="curve" smooth="yes"/>
      <point x="1185" y="-10"/>
      <point x="1219" y="-3"/>
      <point x="1245" y="6" type="curve"/>
      <point x="1241" y="26" type="line"/>
      <point x="1215" y="17"/>
      <point x="1182" y="10"/>
      <point x="1150" y="10" type="curve" smooth="yes"/>
      <point x="1091" y="10"/>
      <point x="1034" y="32"/>
      <point x="1034" y="155" type="curve" smooth="yes"/>
      <point x="1034" y="723" type="line"/>
      <point x="975" y="740"/>
      <point x="909" y="751"/>
      <point x="841" y="751" type="curve" smooth="yes"/>
      <point x="766" y="751"/>
      <point x="707" y="741"/>
      <point x="662" y="718" type="curve"/>
      <point x="564" y="745"/>
      <point x="496" y="750"/>
      <point x="464" y="750" type="curve" smooth="yes"/>
      <point x="279" y="750"/>
      <point x="185" y="686"/>
      <point x="185" y="499" type="curve" smooth="yes"/>
      <point x="185" y="484" type="line"/>
      <point x="45" y="479" type="line"/>
      <point x="45" y="464" type="line"/>
      <point x="185" y="464" type="line"/>
      <point x="185" y="0" type="line"/>
      <point x="205" y="0" type="line"/>
      <point x="205" y="464" type="line"/>
      <point x="555" y="464" type="line"/>
      <point x="555" y="0" type="line"/>
      <point x="575" y="0" type="line"/>
      <point x="575" y="464" type="line"/>
      <point x="908" y="464" type="line"/>
      <point x="908" y="484" type="line"/>
      <point x="575" y="484" type="line"/>
      <point x="575" y="499" type="line" smooth="yes"/>
      <point x="575" y="676"/>
      <point x="665" y="731"/>
      <point x="845" y="731" type="curve" smooth="yes"/>
      <point x="896" y="731"/>
      <point x="960" y="722"/>
      <point x="1014" y="707" type="curve"/>
      <point x="1014" y="155" type="line" smooth="yes"/>
      <point x="1014" y="16"/>
      <point x="1081" y="-10"/>
    </contour>
    <contour>
      <point x="205" y="484" type="line"/>
      <point x="205" y="499" type="line" smooth="yes"/>
      <point x="205" y="666"/>
      <point x="280" y="730"/>
      <point x="462" y="730" type="curve" smooth="yes"/>
      <point x="509" y="730"/>
      <point x="558" y="721"/>
      <point x="637" y="703" type="curve"/>
      <point x="582" y="663"/>
      <point x="555" y="597"/>
      <point x="555" y="499" type="curve" smooth="yes"/>
      <point x="555" y="484" type="line"/>
    </contour>
  </outline>
</glyph>
<glyph name="f_j.liga" format="2">
  <advance width="699"/>
  <outline>
    <contour>
      <point x="338" y="-220" type="curve" smooth="yes"/>
      <point x="465" y="-220"/>
      <point x="575" y="-158"/>
      <point x="575" y="31" type="curve" smooth="yes"/>
      <point x="575" y="484" type="line"/>
      <point x="205" y="484" type="line"/>
      <point x="205" y="499" type="line" smooth="yes"/>
      <point x="205" y="666"/>
      <point x="274" y="730"/>
      <point x="442" y="730" type="curve" smooth="yes"/>
      <point x="483" y="730"/>
      <point x="535" y="721"/>
      <point x="603" y="700" type="curve"/>
      <point x="611" y="718" type="line"/>
      <point x="531" y="746"/>
      <point x="471" y="750"/>
      <point x="444" y="750" type="curve" smooth="yes"/>
      <point x="272" y="750"/>
      <point x="185" y="686"/>
      <point x="185" y="499" type="curve" smooth="yes"/>
      <point x="185" y="484" type="line"/>
      <point x="45" y="479" type="line"/>
      <point x="45" y="464" type="line"/>
      <point x="185" y="464" type="line"/>
      <point x="185" y="0" type="line"/>
      <point x="205" y="0" type="line"/>
      <point x="205" y="464" type="line"/>
      <point x="555" y="464" type="line"/>
      <point x="555" y="31" type="line" smooth="yes"/>
      <point x="555" y="-141"/>
      <point x="455" y="-200"/>
      <point x="338" y="-200" type="curve" smooth="yes"/>
      <point x="301" y="-200"/>
      <point x="263" y="-194"/>
      <point x="227" y="-184" type="curve"/>
      <point x="221" y="-203" type="line"/>
      <point x="259" y="-214"/>
      <point x="298" y="-220"/>
    </contour>
  </outline>
</glyph>
<glyph name="f_k.liga" format="2">
  <advance width="1321"/>
  <outline>
    <contour>
      <point x="1291" y="-10" type="curve" smooth="yes"/>
      <point x="1295" y="-10"/>
      <point x="1302" y="-10"/>
      <point x="1307" y="-9" type="curve"/>
      <point x="1303" y="11" type="line"/>
      <point x="1298" y="10"/>
      <point x="1293" y="10"/>
      <point x="1291" y="10" type="curve" smooth="yes"/>
      <point x="1243" y="10"/>
      <point x="1167" y="52"/>
      <point x="983" y="175" type="curve" smooth="yes"/>
      <point x="664" y="389" type="line"/>
      <point x="664" y="723" type="line"/>
      <point x="605" y="740"/>
      <point x="539" y="751"/>
      <point x="471" y="751" type="curve" smooth="yes"/>
      <point x="275" y="751"/>
      <point x="185" y="679"/>
      <point x="185" y="499" type="curve" smooth="yes"/>
      <point x="185" y="484" type="line"/>
      <point x="45" y="479" type="line"/>
      <point x="45" y="464" type="line"/>
      <point x="185" y="464" type="line"/>
      <point x="185" y="0" type="line"/>
      <point x="205" y="0" type="line"/>
      <point x="205" y="464" type="line"/>
      <point x="538" y="464" type="line"/>
      <point x="538" y="484" type="line"/>
      <point x="205" y="484" type="line"/>
      <point x="205" y="499" type="line" smooth="yes"/>
      <point x="205" y="676"/>
      <point x="295" y="731"/>
      <point x="475" y="731" type="curve" smooth="yes"/>
      <point x="526" y="731"/>
      <point x="590" y="722"/>
      <point x="644" y="707" type="curve"/>
      <point x="644" y="0" type="line"/>
      <point x="664" y="0" type="line"/>
      <point x="664" y="365" type="line"/>
      <point x="984" y="150" type="line" smooth="yes"/>
      <point x="1208" y="0"/>
      <point x="1246" y="-10"/>
    </contour>
    <contour>
      <point x="827" y="264" type="line"/>
      <point x="961" y="320"/>
      <point x="1158" y="397"/>
      <point x="1245" y="528" type="curve"/>
      <point x="1229" y="540" type="line"/>
      <point x="1145" y="415"/>
      <point x="955" y="336"/>
      <point x="807" y="277" type="curve"/>
    </contour>
  </outline>
</glyph>
<glyph name="g.superior" format="2">
  <advance width="506"/>
  <outline>
    <contour>
      <point x="247" y="247" type="curve" smooth="yes"/>
      <point x="393" y="247"/>
      <point x="486" y="288"/>
      <point x="486" y="352" type="curve" smooth="yes"/>
      <point x="486" y="395"/>
      <point x="461" y="418"/>
      <point x="332" y="418" type="curve" smooth="yes"/>
      <point x="183" y="418" type="line" smooth="yes"/>
      <point x="118" y="418"/>
      <point x="78" y="430"/>
      <point x="78" y="466" type="curve" smooth="yes"/>
      <point x="78" y="485"/>
      <point x="95" y="507"/>
      <point x="133" y="517" type="curve"/>
      <point x="118" y="525" type="line"/>
      <point x="77" y="511"/>
      <point x="60" y="486"/>
      <point x="60" y="462" type="curve" smooth="yes"/>
      <point x="60" y="422"/>
      <point x="102" y="401"/>
      <point x="182" y="401" type="curve" smooth="yes"/>
      <point x="327" y="401" type="line" smooth="yes"/>
      <point x="446" y="401"/>
      <point x="468" y="384"/>
      <point x="468" y="352" type="curve" smooth="yes"/>
      <point x="468" y="298"/>
      <point x="387" y="263"/>
      <point x="245" y="263" type="curve" smooth="yes"/>
      <point x="110" y="263"/>
      <point x="43" y="289"/>
      <point x="43" y="340" type="curve" smooth="yes"/>
      <point x="43" y="370"/>
      <point x="90" y="397"/>
      <point x="133" y="407" type="curve"/>
      <point x="111" y="412" type="line"/>
      <point x="69" y="398"/>
      <point x="26" y="375"/>
      <point x="26" y="338" type="curve" smooth="yes"/>
      <point x="26" y="277"/>
      <point x="99" y="247"/>
    </contour>
    <contour>
      <point x="254" y="493" type="curve" smooth="yes"/>
      <point x="370" y="493"/>
      <point x="436" y="526"/>
      <point x="436" y="584" type="curve" smooth="yes"/>
      <point x="436" y="642"/>
      <point x="370" y="675"/>
      <point x="254" y="675" type="curve" smooth="yes"/>
      <point x="138" y="675"/>
      <point x="72" y="642"/>
      <point x="72" y="584" type="curve" smooth="yes"/>
      <point x="72" y="526"/>
      <point x="138" y="493"/>
    </contour>
    <contour>
      <point x="254" y="509" type="curve" smooth="yes"/>
      <point x="145" y="509"/>
      <point x="91" y="536"/>
      <point x="91" y="584" type="curve" smooth="yes"/>
      <point x="91" y="632"/>
      <point x="145" y="659"/>
      <point x="254" y="659" type="curve" smooth="yes"/>
      <point x="363" y="659"/>
      <point x="417" y="632"/>
      <point x="417" y="584" type="curve" smooth="yes"/>
      <point x="417" y="536"/>
      <point x="363" y="509"/>
    </contour>
    <contour>
      <point x="373" y="655" type="line"/>
      <point x="381" y="676"/>
      <point x="413" y="685"/>
      <point x="446" y="685" type="curve" smooth="yes"/>
      <point x="457" y="685"/>
      <point x="468" y="685"/>
      <point x="480" y="684" type="curve"/>
      <point x="481" y="698" type="line"/>
      <point x="468" y="699"/>
      <point x="460" y="700"/>
      <point x="447" y="700" type="curve" smooth="yes"/>
      <point x="407" y="700"/>
      <point x="371" y="689"/>
      <point x="359" y="660" type="curve"/>
    </contour>
  </outline>
</glyph>
<glyph name="h.sc" format="2">
  <advance width="1147"/>
  <anchor x="574" y="275" name="center"/>
  <anchor x="574" y="615" name="top"/>
  <anchor x="20" y="615" name="topleft"/>
  <anchor x="574" y="0" name="bottom"/>
  <outline>
    <contour>
      <point x="148" y="0" type="line"/>
      <point x="168" y="0" type="line"/>
      <point x="168" y="254" type="line"/>
      <point x="979" y="254" type="line"/>
      <point x="979" y="0" type="line"/>
      <point x="999" y="0" type="line"/>
      <point x="999" y="615" type="line"/>
      <point x="979" y="615" type="line"/>
      <point x="979" y="274" type="line"/>
      <point x="168" y="274" type="line"/>
      <point x="168" y="615" type="line"/>
      <point x="148" y="615" type="line"/>
    </contour>
  </outline>
</glyph>
<glyph name="j.sc" format="2">
  <advance width="737"/>
  <anchor x="373" y="615" name="top"/>
  <anchor x="369" y="0" name="bottom"/>
  <outline>
    <contour>
      <point x="40" y="35" type="line"/>
      <point x="146" y="7"/>
      <point x="262" y="-10"/>
      <point x="352" y="-10" type="curve" smooth="yes"/>
      <point x="512" y="-10"/>
      <point x="636" y="85"/>
      <point x="636" y="268" type="curve" smooth="yes"/>
      <point x="636" y="615" type="line"/>
      <point x="112" y="615" type="line"/>
      <point x="112" y="595" type="line"/>
      <point x="616" y="595" type="line"/>
      <point x="616" y="268" type="line" smooth="yes"/>
      <point x="616" y="97"/>
      <point x="499" y="10"/>
      <point x="351" y="10" type="curve" smooth="yes"/>
      <point x="270" y="10"/>
      <point x="152" y="26"/>
      <point x="46" y="55" type="curve"/>
    </contour>
  </outline>
</glyph>
<glyph name="k.sc" format="2">
  <advance width="1006"/>
  <anchor x="503" y="615" name="top"/>
  <anchor x="489" y="0" name="bottom"/>
  <outline>
    <contour>
      <point x="973" y="-9" type="curve" smooth="yes"/>
      <point x="976" y="-9"/>
      <point x="983" y="-9"/>
      <point x="989" y="-8" type="curve"/>
      <point x="989" y="11" type="line"/>
      <point x="983" y="10"/>
      <point x="979" y="10"/>
      <point x="974" y="10" type="curve" smooth="yes"/>
      <point x="892" y="12"/>
      <point x="829" y="44"/>
      <point x="673" y="129" type="curve" smooth="yes"/>
      <point x="168" y="404" type="line"/>
      <point x="168" y="615" type="line"/>
      <point x="148" y="615" type="line"/>
      <point x="148" y="0" type="line"/>
      <point x="168" y="0" type="line"/>
      <point x="168" y="381" type="line"/>
      <point x="663" y="112" type="line" smooth="yes"/>
      <point x="815" y="29"/>
      <point x="889" y="-9"/>
    </contour>
    <contour>
      <point x="351" y="287" type="line"/>
      <point x="526" y="343"/>
      <point x="810" y="450"/>
      <point x="947" y="609" type="curve"/>
      <point x="932" y="621" type="line"/>
      <point x="791" y="459"/>
      <point x="498" y="353"/>
      <point x="331" y="300" type="curve"/>
    </contour>
  </outline>
</glyph>
<glyph name="k.superior" format="2">
  <advance width="485"/>
  <outline>
    <contour>
      <point x="112" y="794" type="line"/>
      <point x="93" y="794" type="line"/>
      <point x="93" y="370" type="line"/>
      <point x="112" y="370" type="line"/>
      <point x="112" y="575" type="line"/>
      <point x="396" y="380"/>
      <point x="421" y="365"/>
      <point x="463" y="365" type="curve" smooth="yes"/>
      <point x="466" y="365"/>
      <point x="470" y="365"/>
      <point x="472" y="366" type="curve"/>
      <point x="471" y="383" type="line"/>
      <point x="468" y="382"/>
      <point x="464" y="382"/>
      <point x="463" y="382" type="curve" smooth="yes"/>
      <point x="431" y="382"/>
      <point x="392" y="405"/>
      <point x="215" y="526" type="curve"/>
      <point x="290" y="558"/>
      <point x="392" y="603"/>
      <point x="439" y="674" type="curve"/>
      <point x="420" y="680" type="line"/>
      <point x="375" y="611"/>
      <point x="279" y="573"/>
      <point x="198" y="539" type="curve"/>
      <point x="112" y="597" type="line"/>
    </contour>
  </outline>
</glyph>
<glyph name="l.sc" format="2">
  <advance width="819"/>
  <anchor x="410" y="275" name="center"/>
  <anchor x="158" y="615" name="top"/>
  <anchor x="533" y="615" name="topright"/>
  <anchor x="471" y="0" name="bottom"/>
  <outline>
    <contour>
      <point x="148" y="0" type="line"/>
      <point x="805" y="0" type="line"/>
      <point x="805" y="20" type="line"/>
      <point x="168" y="20" type="line"/>
      <point x="168" y="615" type="line"/>
      <point x="148" y="615" type="line"/>
    </contour>
  </outline>
</glyph>
<glyph name="lslash.sc" format="2">
  <advance width="814"/>
  <outline>
    <contour>
      <point x="34" y="163" type="line"/>
      <point x="150" y="230" type="line"/>
      <point x="150" y="0" type="line"/>
      <point x="807" y="0" type="line"/>
      <point x="807" y="20" type="line"/>
      <point x="170" y="20" type="line"/>
      <point x="170" y="241" type="line"/>
      <point x="540" y="455" type="line"/>
      <point x="540" y="479" type="line"/>
      <point x="170" y="265" type="line"/>
      <point x="170" y="615" type="line"/>
      <point x="150" y="615" type="line"/>
      <point x="150" y="254" type="line"/>
      <point x="34" y="187" type="line"/>
    </contour>
  </outline>
</glyph>
<glyph name="m.sc" format="2">
  <advance width="1304"/>
  <outline>
    <contour>
      <point x="148" y="0" type="line"/>
      <point x="168" y="0" type="line"/>
      <point x="168" y="589" type="line"/>
      <point x="648" y="254" type="line"/>
      <point x="656" y="254" type="line"/>
      <point x="1136" y="590" type="line"/>
      <point x="1136" y="0" type="line"/>
      <point x="1156" y="0" type="line"/>
      <point x="1156" y="615" type="line"/>
      <point x="1138" y="615" type="line"/>
      <point x="653" y="275" type="line"/>
      <point x="166" y="615" type="line"/>
      <point x="148" y="615" type="line"/>
    </contour>
  </outline>
</glyph>
<glyph name="m.superior" format="2">
  <advance width="811"/>
  <outline>
    <contour>
      <point x="93" y="370" type="line"/>
      <point x="112" y="370" type="line"/>
      <point x="112" y="596" type="line"/>
      <point x="173" y="632"/>
      <point x="220" y="659"/>
      <point x="292" y="659" type="curve" smooth="yes"/>
      <point x="388" y="659"/>
      <point x="397" y="585"/>
      <point x="397" y="553" type="curve" smooth="yes"/>
      <point x="397" y="370" type="line"/>
      <point x="416" y="370" type="line"/>
      <point x="416" y="554" type="line" smooth="yes"/>
      <point x="416" y="568"/>
      <point x="415" y="583"/>
      <point x="409" y="600" type="curve"/>
      <point x="448" y="623"/>
      <point x="508" y="658"/>
      <point x="592" y="658" type="curve" smooth="yes"/>
      <point x="687" y="658"/>
      <point x="699" y="591"/>
      <point x="699" y="555" type="curve" smooth="yes"/>
      <point x="699" y="370" type="line"/>
      <point x="718" y="370" type="line"/>
      <point x="718" y="558" type="line" smooth="yes"/>
      <point x="718" y="594"/>
      <point x="706" y="675"/>
      <point x="595" y="675" type="curve" smooth="yes"/>
      <point x="507" y="675"/>
      <point x="444" y="639"/>
      <point x="404" y="615" type="curve"/>
      <point x="389" y="645"/>
      <point x="360" y="675"/>
      <point x="296" y="675" type="curve" smooth="yes"/>
      <point x="220" y="675"/>
      <point x="167" y="646"/>
      <point x="111" y="613" type="curve"/>
      <point x="111" y="670" type="line"/>
      <point x="93" y="670" type="line"/>
    </contour>
  </outline>
</glyph>
<glyph name="multiplysuperior" format="2">
  <advance width="400"/>
  <outline>
    <contour>
      <point x="85" y="404" type="line"/>
      <point x="200" y="519" type="line"/>
      <point x="314" y="406" type="line"/>
      <point x="326" y="418" type="line"/>
      <point x="212" y="531" type="line"/>
      <point x="326" y="645" type="line"/>
      <point x="314" y="657" type="line"/>
      <point x="200" y="543" type="line"/>
      <point x="85" y="658" type="line"/>
      <point x="74" y="646" type="line"/>
      <point x="188" y="531" type="line"/>
      <point x="74" y="416" type="line"/>
    </contour>
  </outline>
</glyph>
<glyph name="numbersign.tosf" format="2">
  <advance width="1034"/>
  <outline>
    <contour>
      <point x="116" y="142" type="line"/>
      <point x="287" y="142" type="line"/>
      <point x="236" y="0" type="line"/>
      <point x="256" y="0" type="line"/>
      <point x="307" y="142" type="line"/>
      <point x="639" y="142" type="line"/>
      <point x="588" y="0" type="line"/>
      <point x="608" y="0" type="line"/>
      <point x="659" y="142" type="line"/>
      <point x="855" y="142" type="line"/>
      <point x="855" y="162" type="line"/>
      <point x="666" y="162" type="line"/>
      <point x="744" y="376" type="line"/>
      <point x="918" y="376" type="line"/>
      <point x="918" y="396" type="line"/>
      <point x="751" y="396" type="line"/>
      <point x="803" y="539" type="line"/>
      <point x="783" y="539" type="line"/>
      <point x="731" y="396" type="line"/>
      <point x="399" y="396" type="line"/>
      <point x="451" y="539" type="line"/>
      <point x="431" y="539" type="line"/>
      <point x="379" y="396" type="line"/>
      <point x="179" y="396" type="line"/>
      <point x="179" y="376" type="line"/>
      <point x="372" y="376" type="line"/>
      <point x="294" y="162" type="line"/>
      <point x="116" y="162" type="line"/>
    </contour>
    <contour>
      <point x="314" y="162" type="line"/>
      <point x="392" y="376" type="line"/>
      <point x="724" y="376" type="line"/>
      <point x="646" y="162" type="line"/>
    </contour>
  </outline>
</glyph>
<glyph name="o.superior" format="2">
  <advance width="542"/>
  <outline>
    <contour>
      <point x="53" y="520" type="curve" smooth="yes"/>
      <point x="53" y="417"/>
      <point x="120" y="364"/>
      <point x="272" y="364" type="curve" smooth="yes"/>
      <point x="423" y="364"/>
      <point x="489" y="417"/>
      <point x="489" y="520" type="curve" smooth="yes"/>
      <point x="489" y="617"/>
      <point x="433" y="675"/>
      <point x="272" y="675" type="curve" smooth="yes"/>
      <point x="110" y="675"/>
      <point x="53" y="617"/>
    </contour>
    <contour>
      <point x="72" y="520" type="curve" smooth="yes"/>
      <point x="72" y="605"/>
      <point x="122" y="659"/>
      <point x="272" y="659" type="curve" smooth="yes"/>
      <point x="421" y="659"/>
      <point x="470" y="605"/>
      <point x="470" y="520" type="curve" smooth="yes"/>
      <point x="470" y="430"/>
      <point x="412" y="380"/>
      <point x="272" y="380" type="curve" smooth="yes"/>
      <point x="131" y="380"/>
      <point x="72" y="430"/>
    </contour>
  </outline>
</glyph>
<glyph name="oe.sc" format="2">
  <advance width="1715"/>
  <outline>
    <contour>
      <point x="1658" y="0" type="line"/>
      <point x="1658" y="20" type="line"/>
      <point x="964" y="20" type="line"/>
      <point x="964" y="326" type="line"/>
      <point x="1601" y="326" type="line"/>
      <point x="1601" y="347" type="line"/>
      <point x="964" y="347" type="line"/>
      <point x="964" y="595" type="line"/>
      <point x="1631" y="595" type="line"/>
      <point x="1631" y="615" type="line"/>
      <point x="964" y="615" type="line"/>
      <point x="825" y="619"/>
      <point x="677" y="624"/>
      <point x="596" y="624" type="curve" smooth="yes"/>
      <point x="344" y="624"/>
      <point x="101" y="552"/>
      <point x="101" y="313" type="curve" smooth="yes"/>
      <point x="101" y="22"/>
      <point x="390" y="-9"/>
      <point x="626" y="-9" type="curve" smooth="yes"/>
      <point x="724" y="-9"/>
      <point x="837" y="-4"/>
      <point x="964" y="0" type="curve"/>
    </contour>
    <contour>
      <point x="944" y="18" type="line"/>
      <point x="879" y="17"/>
      <point x="745" y="11"/>
      <point x="634" y="11" type="curve" smooth="yes"/>
      <point x="396" y="11"/>
      <point x="121" y="42"/>
      <point x="121" y="312" type="curve" smooth="yes"/>
      <point x="121" y="559"/>
      <point x="397" y="604"/>
      <point x="604" y="604" type="curve" smooth="yes"/>
      <point x="650" y="604"/>
      <point x="914" y="597"/>
      <point x="944" y="597" type="curve"/>
    </contour>
  </outline>
</glyph>
<glyph name="one.lf" format="2">
  <advance width="676"/>
  <outline>
    <contour>
      <point x="536" y="0" type="line"/>
      <point x="536" y="710" type="line"/>
      <point x="524" y="710" type="line"/>
      <point x="19" y="499" type="line"/>
      <point x="27" y="481" type="line"/>
      <point x="516" y="685" type="line"/>
      <point x="516" y="0" type="line"/>
    </contour>
  </outline>
</glyph>
<glyph name="one.osf" format="2">
  <advance width="673"/>
  <outline>
    <contour>
      <point x="538" y="0" type="line"/>
      <point x="538" y="539" type="line"/>
      <point x="526" y="539" type="line"/>
      <point x="21" y="328" type="line"/>
      <point x="29" y="310" type="line"/>
      <point x="518" y="514" type="line"/>
      <point x="518" y="0" type="line"/>
    </contour>
  </outline>
</glyph>
<glyph name="periodsuperior" format="2">
  <advance width="239"/>
  <outline>
    <contour>
      <point x="107" y="379" type="curve" smooth="yes"/>
      <point x="107" y="367"/>
      <point x="108" y="366"/>
      <point x="120" y="366" type="curve" smooth="yes"/>
      <point x="131" y="366"/>
      <point x="132" y="367"/>
      <point x="132" y="379" type="curve" smooth="yes"/>
      <point x="132" y="391"/>
      <point x="131" y="391"/>
      <point x="120" y="391" type="curve" smooth="yes"/>
      <point x="108" y="391"/>
      <point x="107" y="391"/>
    </contour>
  </outline>
</glyph>
<glyph name="q.sc" format="2">
  <advance width="1211"/>
  <outline>
    <contour>
      <point x="692" y="-2" type="curve"/>
      <point x="671" y="-3" type="line"/>
      <point x="730" y="-100"/>
      <point x="802" y="-183"/>
      <point x="918" y="-183" type="curve" smooth="yes"/>
      <point x="959" y="-183"/>
      <point x="1006" y="-173"/>
      <point x="1060" y="-150" type="curve"/>
      <point x="1052" y="-134" type="line"/>
      <point x="1002" y="-155"/>
      <point x="955" y="-164"/>
      <point x="918" y="-164" type="curve" smooth="yes"/>
      <point x="816" y="-164"/>
      <point x="750" y="-97"/>
    </contour>
    <contour>
      <point x="604" y="12" type="curve" smooth="yes"/>
      <point x="393" y="12"/>
      <point x="121" y="67"/>
      <point x="121" y="308" type="curve" smooth="yes"/>
      <point x="121" y="558"/>
      <point x="392" y="605"/>
      <point x="604" y="605" type="curve" smooth="yes"/>
      <point x="817" y="605"/>
      <point x="1090" y="559"/>
      <point x="1090" y="308" type="curve" smooth="yes"/>
      <point x="1090" y="55"/>
      <point x="816" y="12"/>
    </contour>
    <contour>
      <point x="604" y="-9" type="curve" smooth="yes"/>
      <point x="835" y="-9"/>
      <point x="1110" y="43"/>
      <point x="1110" y="312" type="curve" smooth="yes"/>
      <point x="1110" y="573"/>
      <point x="823" y="625"/>
      <point x="604" y="625" type="curve" smooth="yes"/>
      <point x="380" y="625"/>
      <point x="101" y="569"/>
      <point x="101" y="308" type="curve" smooth="yes"/>
      <point x="101" y="57"/>
      <point x="382" y="-9"/>
    </contour>
  </outline>
</glyph>
<glyph name="questiondown.case" format="2">
  <advance width="667"/>
  <outline>
    <contour>
      <point x="347" y="479" type="line"/>
      <point x="327" y="479" type="line"/>
      <point x="327" y="413" type="line"/>
      <point x="123" y="371"/>
      <point x="20" y="312"/>
      <point x="20" y="195" type="curve" smooth="yes"/>
      <point x="20" y="34"/>
      <point x="175" y="-10"/>
      <point x="303" y="-10" type="curve" smooth="yes"/>
      <point x="415" y="-10"/>
      <point x="539" y="14"/>
      <point x="633" y="70" type="curve"/>
      <point x="623" y="88" type="line"/>
      <point x="531" y="34"/>
      <point x="411" y="10"/>
      <point x="303" y="10" type="curve" smooth="yes"/>
      <point x="185" y="10"/>
      <point x="40" y="50"/>
      <point x="40" y="195" type="curve" smooth="yes"/>
      <point x="40" y="286"/>
      <point x="122" y="360"/>
      <point x="347" y="397" type="curve"/>
    </contour>
    <contour>
      <point x="347" y="683" type="curve" smooth="yes"/>
      <point x="347" y="699"/>
      <point x="345" y="700"/>
      <point x="330" y="700" type="curve" smooth="yes"/>
      <point x="314" y="700"/>
      <point x="313" y="699"/>
      <point x="313" y="683" type="curve" smooth="yes"/>
      <point x="313" y="667"/>
      <point x="314" y="666"/>
      <point x="330" y="666" type="curve" smooth="yes"/>
      <point x="346" y="666"/>
      <point x="347" y="667"/>
    </contour>
  </outline>
</glyph>
<glyph name="s.sc" format="2">
  <advance width="957"/>
  <anchor x="465" y="615" name="top"/>
  <anchor x="465" y="0" name="bottom"/>
  <outline>
    <contour>
      <point x="801" y="581" type="line"/>
      <point x="710" y="606"/>
      <point x="574" y="625"/>
      <point x="485" y="625" type="curve" smooth="yes"/>
      <point x="235" y="625"/>
      <point x="108" y="565"/>
      <point x="108" y="462" type="curve" smooth="yes"/>
      <point x="108" y="332"/>
      <point x="289" y="316"/>
      <point x="487" y="298" type="curve" smooth="yes"/>
      <point x="662" y="282"/>
      <point x="840" y="262"/>
      <point x="840" y="157" type="curve" smooth="yes"/>
      <point x="840" y="55"/>
      <point x="719" y="10"/>
      <point x="474" y="10" type="curve" smooth="yes"/>
      <point x="317" y="10"/>
      <point x="121" y="56"/>
      <point x="76" y="69" type="curve"/>
      <point x="70" y="51" type="line"/>
      <point x="114" y="38"/>
      <point x="313" y="-10"/>
      <point x="474" y="-10" type="curve" smooth="yes"/>
      <point x="732" y="-10"/>
      <point x="860" y="42"/>
      <point x="860" y="158" type="curve" smooth="yes"/>
      <point x="860" y="282"/>
      <point x="676" y="300"/>
      <point x="490" y="317" type="curve" smooth="yes"/>
      <point x="302" y="334"/>
      <point x="128" y="350"/>
      <point x="128" y="462" type="curve" smooth="yes"/>
      <point x="128" y="554"/>
      <point x="249" y="605"/>
      <point x="485" y="605" type="curve" smooth="yes"/>
      <point x="576" y="605"/>
      <point x="704" y="587"/>
      <point x="795" y="563" type="curve"/>
    </contour>
  </outline>
</glyph>
